NimbusSanL-BoldCond.ufo
<glyph name="quotedbl" format="1">
  <advance width="389"/>
  <unicode hex="0022"/>
  <outline>
    <contour>
      <point x="228" y="447" type="line"/>
      <point x="228" y="718" type="line"/>
      <point x="308" y="718" type="line"/>
      <point x="308" y="447" type="line"/>
    </contour>
    <contour>
      <point x="80" y="447" type="line"/>
      <point x="80" y="718" type="line"/>
      <point x="160" y="718" type="line"/>
      <point x="160" y="447" type="line"/>
    </contour>
  </outline>
</glyph>
<glyph name="ampersand" format="1">
  <advance width="592"/>
  <unicode hex="0026"/>
  <outline>
    <contour>
      <point x="468" y="157" type="curve"/>
      <point x="575" y="0" type="line"/>
      <point x="436" y="0" type="line"/>
      <point x="396" y="61" type="line"/>
      <point x="347" y="4"/>
      <point x="300" y="-19"/>
      <point x="232" y="-19" type="curve" smooth="yes"/>
      <point x="121" y="-19"/>
      <point x="44" y="67"/>
      <point x="44" y="190" type="curve" smooth="yes"/>
      <point x="44" y="274"/>
      <point x="79" y="336"/>
      <point x="157" y="394" type="curve"/>
      <point x="170" y="403" type="line"/>
      <point x="132" y="457"/>
      <point x="116" y="503"/>
      <point x="116" y="554" type="curve" smooth="yes"/>
      <point x="116" y="648"/>
      <point x="181" y="718"/>
      <point x="269" y="718" type="curve" smooth="yes"/>
      <point x="355" y="718"/>
      <point x="417" y="649"/>
      <point x="417" y="554" type="curve" smooth="yes"/>
      <point x="417" y="483"/>
      <point x="387" y="431"/>
      <point x="320" y="381" type="curve"/>
      <point x="403" y="255" type="line"/>
      <point x="421" y="290"/>
      <point x="430" y="322"/>
      <point x="434" y="373" type="curve"/>
      <point x="536" y="373" type="line"/>
      <point x="528" y="279"/>
      <point x="512" y="227"/>
    </contour>
    <contour>
      <point x="264" y="464" type="curve"/>
      <point x="303" y="497"/>
      <point x="317" y="519"/>
      <point x="317" y="553" type="curve" smooth="yes"/>
      <point x="317" y="588"/>
      <point x="298" y="611"/>
      <point x="269" y="611" type="curve" smooth="yes"/>
      <point x="241" y="611"/>
      <point x="221" y="588"/>
      <point x="221" y="555" type="curve" smooth="yes"/>
      <point x="221" y="530"/>
      <point x="232" y="507"/>
    </contour>
    <contour>
      <point x="337" y="149" type="curve"/>
      <point x="229" y="314" type="line"/>
      <point x="171" y="262"/>
      <point x="159" y="243"/>
      <point x="159" y="199" type="curve" smooth="yes"/>
      <point x="159" y="142"/>
      <point x="195" y="99"/>
      <point x="243" y="99" type="curve" smooth="yes"/>
      <point x="276" y="99"/>
      <point x="303" y="114"/>
    </contour>
  </outline>
</glyph>
<glyph name="parenleft" format="1">
  <advance width="273"/>
  <unicode hex="0028"/>
  <outline>
    <contour>
      <point x="257" y="-207" type="curve"/>
      <point x="173" y="-207" type="line"/>
      <point x="70" y="-33"/>
      <point x="29" y="99"/>
      <point x="29" y="263" type="curve" smooth="yes"/>
      <point x="29" y="335"/>
      <point x="39" y="408"/>
      <point x="59" y="479" type="curve" smooth="yes"/>
      <point x="83" y="567"/>
      <point x="109" y="625"/>
      <point x="173" y="734" type="curve"/>
      <point x="257" y="734" type="line"/>
      <point x="175" y="557"/>
      <point x="147" y="437"/>
      <point x="147" y="262" type="curve" smooth="yes"/>
      <point x="147" y="90"/>
      <point x="175" y="-31"/>
    </contour>
  </outline>
</glyph>
<glyph name="parenright" format="1">
  <advance width="273"/>
  <unicode hex="0029"/>
  <outline>
    <contour>
      <point x="16" y="734" type="curve"/>
      <point x="100" y="734" type="line"/>
      <point x="205" y="555"/>
      <point x="244" y="426"/>
      <point x="244" y="263" type="curve" smooth="yes"/>
      <point x="244" y="191"/>
      <point x="234" y="119"/>
      <point x="214" y="47" type="curve" smooth="yes"/>
      <point x="190" y="-42"/>
      <point x="164" y="-100"/>
      <point x="100" y="-207" type="curve"/>
      <point x="16" y="-207" type="line"/>
      <point x="97" y="-34"/>
      <point x="126" y="89"/>
      <point x="126" y="264" type="curve" smooth="yes"/>
      <point x="126" y="435"/>
      <point x="98" y="554"/>
    </contour>
  </outline>
</glyph>
<glyph name="asterisk" format="1">
  <advance width="319"/>
  <unicode hex="002A"/>
  <outline>
    <contour>
      <point x="277" y="633" type="line"/>
      <point x="297" y="560" type="line"/>
      <point x="211" y="528" type="line"/>
      <point x="267" y="431" type="line"/>
      <point x="216" y="387" type="line"/>
      <point x="160" y="478" type="line"/>
      <point x="103" y="387" type="line"/>
      <point x="52" y="431" type="line"/>
      <point x="107" y="528" type="line"/>
      <point x="22" y="560" type="line"/>
      <point x="41" y="633" type="line"/>
      <point x="125" y="599" type="line"/>
      <point x="125" y="718" type="line"/>
      <point x="194" y="718" type="line"/>
      <point x="194" y="599" type="line"/>
    </contour>
  </outline>
</glyph>
<glyph name="plus" format="1">
  <advance width="479"/>
  <unicode hex="002B"/>
  <outline>
    <contour>
      <point x="194" y="309" type="line"/>
      <point x="194" y="506" type="line"/>
      <point x="286" y="506" type="line"/>
      <point x="286" y="309" type="line"/>
      <point x="446" y="309" type="line"/>
      <point x="446" y="197" type="line"/>
      <point x="286" y="197" type="line"/>
      <point x="286" y="0" type="line"/>
      <point x="194" y="0" type="line"/>
      <point x="194" y="197" type="line"/>
      <point x="33" y="197" type="line"/>
      <point x="33" y="309" type="line"/>
    </contour>
  </outline>
</glyph>
<glyph name="comma" format="1">
  <advance width="228"/>
  <unicode hex="002C"/>
  <outline>
    <contour>
      <point x="175" y="147" type="line"/>
      <point x="175" y="20" type="line" smooth="yes"/>
      <point x="175" y="-85"/>
      <point x="133" y="-150"/>
      <point x="52" y="-168" type="curve"/>
      <point x="52" y="-115" type="line"/>
      <point x="99" y="-96"/>
      <point x="116" y="-67"/>
      <point x="121" y="0" type="curve"/>
      <point x="52" y="0" type="line"/>
      <point x="52" y="147" type="line"/>
    </contour>
  </outline>
</glyph>
<glyph name="hyphen" format="1">
  <advance width="273"/>
  <unicode hex="002D"/>
  <outline>
    <contour>
      <point x="251" y="345" type="line"/>
      <point x="251" y="215" type="line"/>
      <point x="22" y="215" type="line"/>
      <point x="22" y="345" type="line"/>
    </contour>
  </outline>
</glyph>
<glyph name="slash" format="1">
  <advance width="228"/>
  <unicode hex="002F"/>
  <outline>
    <contour>
      <point x="255" y="737" type="line"/>
      <point x="69" y="-19" type="line"/>
      <point x="-27" y="-19" type="line"/>
      <point x="159" y="737" type="line"/>
    </contour>
  </outline>
</glyph>
<glyph name="zero" format="1">
  <advance width="456"/>
  <unicode hex="0030"/>
  <outline>
    <contour>
      <point x="231" y="710" type="curve" smooth="yes"/>
      <point x="284" y="710"/>
      <point x="329" y="690"/>
      <point x="360" y="652" type="curve"/>
      <point x="379" y="627"/>
      <point x="393" y="601"/>
      <point x="401" y="574" type="curve" smooth="yes"/>
      <point x="420" y="505"/>
      <point x="430" y="429"/>
      <point x="430" y="346" type="curve" smooth="yes"/>
      <point x="430" y="243"/>
      <point x="413" y="134"/>
      <point x="388" y="84" type="curve" smooth="yes"/>
      <point x="354" y="15"/>
      <point x="301" y="-19"/>
      <point x="228" y="-19" type="curve" smooth="yes"/>
      <point x="92" y="-19"/>
      <point x="26" y="99"/>
      <point x="26" y="343" type="curve" smooth="yes"/>
      <point x="26" y="461"/>
      <point x="46" y="571"/>
      <point x="76" y="623" type="curve" smooth="yes"/>
      <point x="111" y="683"/>
      <point x="160" y="710"/>
    </contour>
    <contour>
      <point x="229" y="598" type="curve" smooth="yes"/>
      <point x="164" y="598"/>
      <point x="144" y="538"/>
      <point x="144" y="336" type="curve" smooth="yes"/>
      <point x="144" y="156"/>
      <point x="166" y="93"/>
      <point x="228" y="93" type="curve" smooth="yes"/>
      <point x="291" y="93"/>
      <point x="312" y="156"/>
      <point x="312" y="346" type="curve" smooth="yes"/>
      <point x="312" y="534"/>
      <point x="291" y="598"/>
    </contour>
  </outline>
</glyph>
<glyph name="one" format="1">
  <advance width="456"/>
  <unicode hex="0031"/>
  <outline>
    <contour>
      <point x="57" y="489" type="line"/>
      <point x="57" y="587" type="line"/>
      <point x="73" y="587" type="line" smooth="yes"/>
      <point x="161" y="587"/>
      <point x="210" y="629"/>
      <point x="216" y="710" type="curve"/>
      <point x="310" y="710" type="line"/>
      <point x="310" y="0" type="line"/>
      <point x="196" y="0" type="line"/>
      <point x="196" y="489" type="line"/>
    </contour>
  </outline>
</glyph>
<glyph name="four" format="1">
  <advance width="456"/>
  <unicode hex="0034"/>
  <outline>
    <contour>
      <point x="431" y="265" type="line"/>
      <point x="431" y="157" type="line"/>
      <point x="366" y="157" type="line"/>
      <point x="366" y="0" type="line"/>
      <point x="252" y="0" type="line"/>
      <point x="252" y="157" type="line"/>
      <point x="22" y="157" type="line"/>
      <point x="22" y="277" type="line"/>
      <point x="236" y="710" type="line"/>
      <point x="366" y="710" type="line"/>
      <point x="366" y="265" type="line"/>
    </contour>
    <contour>
      <point x="107" y="265" type="line"/>
      <point x="252" y="265" type="line"/>
      <point x="253" y="447"/>
      <point x="253" y="483"/>
      <point x="255" y="574" type="curve"/>
    </contour>
  </outline>
</glyph>
<glyph name="six" format="1">
  <advance width="456"/>
  <unicode hex="0036"/>
  <outline>
    <contour>
      <point x="414" y="530" type="curve"/>
      <point x="300" y="530" type="line"/>
      <point x="295" y="576"/>
      <point x="273" y="598"/>
      <point x="234" y="598" type="curve" smooth="yes"/>
      <point x="173" y="598"/>
      <point x="146" y="542"/>
      <point x="137" y="397" type="curve"/>
      <point x="166" y="442"/>
      <point x="197" y="459"/>
      <point x="247" y="459" type="curve" smooth="yes"/>
      <point x="354" y="459"/>
      <point x="426" y="368"/>
      <point x="426" y="234" type="curve" smooth="yes"/>
      <point x="426" y="84"/>
      <point x="347" y="-19"/>
      <point x="231" y="-19" type="curve" smooth="yes"/>
      <point x="93" y="-19"/>
      <point x="25" y="100"/>
      <point x="25" y="341" type="curve" smooth="yes"/>
      <point x="25" y="465"/>
      <point x="42" y="554"/>
      <point x="77" y="614" type="curve"/>
      <point x="112" y="677"/>
      <point x="168" y="710"/>
      <point x="235" y="710" type="curve" smooth="yes"/>
      <point x="297" y="710"/>
      <point x="346" y="687"/>
      <point x="376" y="645" type="curve" smooth="yes"/>
      <point x="398" y="614"/>
      <point x="405" y="593"/>
    </contour>
    <contour>
      <point x="227" y="347" type="curve" smooth="yes"/>
      <point x="174" y="347"/>
      <point x="140" y="300"/>
      <point x="140" y="225" type="curve" smooth="yes"/>
      <point x="140" y="148"/>
      <point x="177" y="93"/>
      <point x="230" y="93" type="curve" smooth="yes"/>
      <point x="280" y="93"/>
      <point x="311" y="144"/>
      <point x="311" y="226" type="curve" smooth="yes"/>
      <point x="311" y="299"/>
      <point x="278" y="347"/>
    </contour>
  </outline>
</glyph>
<glyph name="seven" format="1">
  <advance width="456"/>
  <unicode hex="0037"/>
  <outline>
    <contour>
      <point x="433" y="698" type="line"/>
      <point x="433" y="591" type="line"/>
      <point x="302" y="414"/>
      <point x="234" y="225"/>
      <point x="220" y="0" type="curve"/>
      <point x="102" y="0" type="line"/>
      <point x="114" y="206"/>
      <point x="186" y="404"/>
      <point x="310" y="575" type="curve"/>
      <point x="20" y="575" type="line"/>
      <point x="22" y="698" type="line"/>
    </contour>
  </outline>
</glyph>
<glyph name="eight" format="1">
  <advance width="456"/>
  <unicode hex="0038"/>
  <outline>
    <contour>
      <point x="343" y="382" type="curve"/>
      <point x="407" y="339"/>
      <point x="430" y="295"/>
      <point x="430" y="214" type="curve" smooth="yes"/>
      <point x="430" y="75"/>
      <point x="348" y="-19"/>
      <point x="226" y="-19" type="curve" smooth="yes"/>
      <point x="104" y="-19"/>
      <point x="26" y="67"/>
      <point x="26" y="203" type="curve" smooth="yes"/>
      <point x="26" y="287"/>
      <point x="52" y="337"/>
      <point x="115" y="377" type="curve"/>
      <point x="64" y="411"/>
      <point x="44" y="451"/>
      <point x="44" y="516" type="curve" smooth="yes"/>
      <point x="44" y="632"/>
      <point x="118" y="710"/>
      <point x="227" y="710" type="curve" smooth="yes"/>
      <point x="335" y="710"/>
      <point x="410" y="634"/>
      <point x="410" y="523" type="curve" smooth="yes"/>
      <point x="410" y="458"/>
      <point x="390" y="415"/>
    </contour>
    <contour>
      <point x="231" y="598" type="curve" smooth="yes"/>
      <point x="184" y="598"/>
      <point x="154" y="564"/>
      <point x="154" y="512" type="curve" smooth="yes"/>
      <point x="154" y="460"/>
      <point x="186" y="422"/>
      <point x="229" y="422" type="curve" smooth="yes"/>
      <point x="272" y="422"/>
      <point x="300" y="457"/>
      <point x="300" y="510" type="curve" smooth="yes"/>
      <point x="300" y="562"/>
      <point x="272" y="598"/>
    </contour>
    <contour>
      <point x="228" y="316" type="curve" smooth="yes"/>
      <point x="176" y="316"/>
      <point x="144" y="274"/>
      <point x="144" y="206" type="curve" smooth="yes"/>
      <point x="144" y="137"/>
      <point x="177" y="93"/>
      <point x="228" y="93" type="curve" smooth="yes"/>
      <point x="278" y="93"/>
      <point x="312" y="139"/>
      <point x="312" y="206" type="curve" smooth="yes"/>
      <point x="312" y="271"/>
      <point x="278" y="316"/>
    </contour>
  </outline>
</glyph>
<glyph name="colon" format="1">
  <advance width="273"/>
  <unicode hex="003A"/>
  <outline>
    <contour>
      <point x="198" y="147" type="line"/>
      <point x="198" y="0" type="line"/>
      <point x="75" y="0" type="line"/>
      <point x="75" y="147" type="line"/>
    </contour>
    <contour>
      <point x="198" y="512" type="line"/>
      <point x="198" y="365" type="line"/>
      <point x="75" y="365" type="line"/>
      <point x="75" y="512" type="line"/>
    </contour>
  </outline>
</glyph>
<glyph name="semicolon" format="1">
  <advance width="273"/>
  <unicode hex="003B"/>
  <outline>
    <contour>
      <point x="198" y="147" type="line"/>
      <point x="198" y="20" type="line" smooth="yes"/>
      <point x="198" y="-58"/>
      <point x="178" y="-109"/>
      <point x="134" y="-141" type="curve" smooth="yes"/>
      <point x="110" y="-158"/>
      <point x="95" y="-165"/>
      <point x="75" y="-168" type="curve"/>
      <point x="75" y="-115" type="line"/>
      <point x="122" y="-96"/>
      <point x="139" y="-67"/>
      <point x="144" y="0" type="curve"/>
      <point x="75" y="0" type="line"/>
      <point x="75" y="147" type="line"/>
    </contour>
    <contour>
      <point x="198" y="512" type="line"/>
      <point x="198" y="365" type="line"/>
      <point x="75" y="365" type="line"/>
      <point x="75" y="512" type="line"/>
    </contour>
  </outline>
</glyph>
<glyph name="less" format="1">
  <advance width="479"/>
  <unicode hex="003C"/>
  <outline>
    <contour>
      <point x="448" y="-15" type="line"/>
      <point x="31" y="201" type="line"/>
      <point x="31" y="305" type="line"/>
      <point x="448" y="521" type="line"/>
      <point x="448" y="399" type="line"/>
      <point x="164" y="253" type="line"/>
      <point x="448" y="107" type="line"/>
    </contour>
  </outline>
</glyph>
<glyph name="equal" format="1">
  <advance width="479"/>
  <unicode hex="003D"/>
  <outline>
    <contour>
      <point x="446" y="419" type="line"/>
      <point x="446" y="307" type="line"/>
      <point x="33" y="307" type="line"/>
      <point x="33" y="419" type="line"/>
    </contour>
    <contour>
      <point x="446" y="199" type="line"/>
      <point x="446" y="87" type="line"/>
      <point x="33" y="87" type="line"/>
      <point x="33" y="199" type="line"/>
    </contour>
  </outline>
</glyph>
<glyph name="question" format="1">
  <advance width="501"/>
  <unicode hex="003F"/>
  <outline>
    <contour>
      <point x="306" y="208" type="curve"/>
      <point x="198" y="208" type="line"/>
      <point x="198" y="315"/>
      <point x="212" y="349"/>
      <point x="282" y="411" type="curve" smooth="yes"/>
      <point x="320" y="445"/>
      <point x="333" y="471"/>
      <point x="333" y="512" type="curve" smooth="yes"/>
      <point x="333" y="572"/>
      <point x="302" y="609"/>
      <point x="252" y="609" type="curve" smooth="yes"/>
      <point x="222" y="609"/>
      <point x="197" y="595"/>
      <point x="183" y="570" type="curve" smooth="yes"/>
      <point x="176" y="558"/>
      <point x="165" y="521"/>
      <point x="165" y="509" type="curve" smooth="yes"/>
      <point x="165" y="493" type="line"/>
      <point x="49" y="493" type="line"/>
      <point x="51" y="561"/>
      <point x="59" y="596"/>
      <point x="83" y="636" type="curve" smooth="yes"/>
      <point x="117" y="694"/>
      <point x="177" y="727"/>
      <point x="248" y="727" type="curve" smooth="yes"/>
      <point x="373" y="727"/>
      <point x="456" y="644"/>
      <point x="456" y="519" type="curve" smooth="yes"/>
      <point x="456" y="442"/>
      <point x="433" y="398"/>
      <point x="357" y="330" type="curve" smooth="yes"/>
      <point x="316" y="294"/>
      <point x="307" y="274"/>
    </contour>
    <contour>
      <point x="315" y="142" type="line"/>
      <point x="315" y="0" type="line"/>
      <point x="195" y="0" type="line"/>
      <point x="195" y="142" type="line"/>
    </contour>
  </outline>
</glyph>
<glyph name="F" format="1">
  <advance width="501"/>
  <unicode hex="0046"/>
  <outline>
    <contour>
      <point x="185" y="302" type="line"/>
      <point x="185" y="0" type="line"/>
      <point x="62" y="0" type="line"/>
      <point x="62" y="718" type="line"/>
      <point x="481" y="718" type="line"/>
      <point x="481" y="591" type="line"/>
      <point x="185" y="591" type="line"/>
      <point x="185" y="429" type="line"/>
      <point x="444" y="429" type="line"/>
      <point x="444" y="302" type="line"/>
    </contour>
  </outline>
</glyph>
<glyph name="H" format="1">
  <advance width="592"/>
  <unicode hex="0048"/>
  <outline>
    <contour>
      <point x="411" y="323" type="line"/>
      <point x="181" y="323" type="line"/>
      <point x="181" y="0" type="line"/>
      <point x="58" y="0" type="line"/>
      <point x="58" y="718" type="line"/>
      <point x="181" y="718" type="line"/>
      <point x="181" y="446" type="line"/>
      <point x="411" y="446" type="line"/>
      <point x="411" y="718" type="line"/>
      <point x="534" y="718" type="line"/>
      <point x="534" y="0" type="line"/>
      <point x="411" y="0" type="line"/>
    </contour>
  </outline>
</glyph>
<glyph name="K" format="1">
  <advance width="592"/>
  <unicode hex="004B"/>
  <outline>
    <contour>
      <point x="194" y="243" type="line"/>
      <point x="194" y="0" type="line"/>
      <point x="71" y="0" type="line"/>
      <point x="71" y="718" type="line"/>
      <point x="194" y="718" type="line"/>
      <point x="194" y="426" type="line"/>
      <point x="419" y="718" type="line"/>
      <point x="578" y="718" type="line"/>
      <point x="338" y="424" type="line"/>
      <point x="592" y="0" type="line"/>
      <point x="434" y="0" type="line"/>
      <point x="251" y="315" type="line"/>
    </contour>
  </outline>
</glyph>
<glyph name="L" format="1">
  <advance width="501"/>
  <unicode hex="004C"/>
  <outline>
    <contour>
      <point x="185" y="718" type="line"/>
      <point x="185" y="130" type="line"/>
      <point x="478" y="130" type="line"/>
      <point x="478" y="0" type="line"/>
      <point x="62" y="0" type="line"/>
      <point x="62" y="718" type="line"/>
    </contour>
  </outline>
</glyph>
<glyph name="M" format="1">
  <advance width="683"/>
  <unicode hex="004D"/>
  <outline>
    <contour>
      <point x="627" y="718" type="line"/>
      <point x="627" y="0" type="line"/>
      <point x="513" y="0" type="line"/>
      <point x="513" y="609" type="line"/>
      <point x="401" y="0" type="line"/>
      <point x="280" y="0" type="line"/>
      <point x="171" y="609" type="line"/>
      <point x="171" y="0" type="line"/>
      <point x="57" y="0" type="line"/>
      <point x="57" y="718" type="line"/>
      <point x="236" y="718" type="line"/>
      <point x="344" y="148" type="line"/>
      <point x="450" y="718" type="line"/>
    </contour>
  </outline>
</glyph>
<glyph name="N" format="1">
  <advance width="592"/>
  <unicode hex="004E"/>
  <outline>
    <contour>
      <point x="422" y="214" type="line"/>
      <point x="422" y="718" type="line"/>
      <point x="536" y="718" type="line"/>
      <point x="536" y="0" type="line"/>
      <point x="414" y="0" type="line"/>
      <point x="171" y="515" type="line"/>
      <point x="171" y="0" type="line"/>
      <point x="57" y="0" type="line"/>
      <point x="57" y="718" type="line"/>
      <point x="186" y="718" type="line"/>
    </contour>
  </outline>
</glyph>
<glyph name="Q" format="1">
  <advance width="638"/>
  <unicode hex="0051"/>
  <outline>
    <contour>
      <point x="604" y="29" type="line"/>
      <point x="539" y="-52" type="line"/>
      <point x="470" y="29" type="line"/>
      <point x="418" y="-5"/>
      <point x="373" y="-19"/>
      <point x="318" y="-19" type="curve" smooth="yes"/>
      <point x="240" y="-19"/>
      <point x="166" y="16"/>
      <point x="117" y="76" type="curve" smooth="yes"/>
      <point x="64" y="140"/>
      <point x="36" y="238"/>
      <point x="36" y="359" type="curve" smooth="yes"/>
      <point x="36" y="481"/>
      <point x="64" y="577"/>
      <point x="117" y="642" type="curve" smooth="yes"/>
      <point x="166" y="702"/>
      <point x="240" y="737"/>
      <point x="319" y="737" type="curve" smooth="yes"/>
      <point x="398" y="737"/>
      <point x="472" y="702"/>
      <point x="521" y="642" type="curve" smooth="yes"/>
      <point x="574" y="577"/>
      <point x="602" y="481"/>
      <point x="602" y="358" type="curve" smooth="yes"/>
      <point x="602" y="251"/>
      <point x="584" y="179"/>
      <point x="540" y="103" type="curve"/>
    </contour>
    <contour>
      <point x="326" y="195" type="line"/>
      <point x="389" y="276" type="line"/>
      <point x="452" y="205" type="line"/>
      <point x="471" y="253"/>
      <point x="479" y="297"/>
      <point x="479" y="359" type="curve" smooth="yes"/>
      <point x="479" y="514"/>
      <point x="418" y="610"/>
      <point x="319" y="610" type="curve" smooth="yes"/>
      <point x="221" y="610"/>
      <point x="159" y="514"/>
      <point x="159" y="363" type="curve" smooth="yes"/>
      <point x="159" y="204"/>
      <point x="219" y="108"/>
      <point x="318" y="108" type="curve" smooth="yes"/>
      <point x="343" y="108"/>
      <point x="362" y="114"/>
      <point x="385" y="127" type="curve"/>
    </contour>
  </outline>
</glyph>
<glyph name="V" format="1">
  <advance width="547"/>
  <unicode hex="0056"/>
  <outline>
    <contour>
      <point x="275" y="170" type="line"/>
      <point x="403" y="718" type="line"/>
      <point x="531" y="718" type="line"/>
      <point x="331" y="0" type="line"/>
      <point x="214" y="0" type="line"/>
      <point x="16" y="718" type="line"/>
      <point x="148" y="718" type="line"/>
    </contour>
  </outline>
</glyph>
<glyph name="X" format="1">
  <advance width="547"/>
  <unicode hex="0058"/>
  <outline>
    <contour>
      <point x="343" y="373" type="line"/>
      <point x="535" y="0" type="line"/>
      <point x="385" y="0" type="line"/>
      <point x="273" y="245" type="line"/>
      <point x="155" y="0" type="line"/>
      <point x="11" y="0" type="line"/>
      <point x="201" y="367" type="line"/>
      <point x="22" y="718" type="line"/>
      <point x="168" y="718" type="line"/>
      <point x="273" y="486" type="line"/>
      <point x="381" y="718" type="line"/>
      <point x="523" y="718" type="line"/>
    </contour>
  </outline>
</glyph>
<glyph name="Z" format="1">
  <advance width="501"/>
  <unicode hex="005A"/>
  <outline>
    <contour>
      <point x="481" y="127" type="line"/>
      <point x="481" y="0" type="line"/>
      <point x="20" y="0" type="line"/>
      <point x="20" y="127" type="line"/>
      <point x="325" y="591" type="line"/>
      <point x="28" y="591" type="line"/>
      <point x="28" y="718" type="line"/>
      <point x="479" y="718" type="line"/>
      <point x="479" y="600" type="line"/>
      <point x="170" y="127" type="line"/>
    </contour>
  </outline>
</glyph>
<glyph name="bracketleft" format="1">
  <advance width="273"/>
  <unicode hex="005B"/>
  <outline>
    <contour>
      <point x="152" y="625" type="line"/>
      <point x="152" y="-99" type="line"/>
      <point x="253" y="-99" type="line"/>
      <point x="253" y="-196" type="line"/>
      <point x="52" y="-196" type="line"/>
      <point x="52" y="722" type="line"/>
      <point x="253" y="722" type="line"/>
      <point x="253" y="625" type="line"/>
    </contour>
  </outline>
</glyph>
<glyph name="bracketright" format="1">
  <advance width="273"/>
  <unicode hex="005D"/>
  <outline>
    <contour>
      <point x="121" y="-99" type="line"/>
      <point x="121" y="625" type="line"/>
      <point x="20" y="625" type="line"/>
      <point x="20" y="722" type="line"/>
      <point x="221" y="722" type="line"/>
      <point x="221" y="-196" type="line"/>
      <point x="20" y="-196" type="line"/>
      <point x="20" y="-99" type="line"/>
    </contour>
  </outline>
</glyph>
<glyph name="grave" format="1">
  <advance width="273"/>
  <unicode hex="0060"/>
  <outline>
    <contour>
      <point x="101" y="604" type="line"/>
      <point x="-19" y="750" type="line"/>
      <point x="107" y="750" type="line"/>
      <point x="184" y="604" type="line"/>
    </contour>
  </outline>
</glyph>
<glyph name="b" format="1">
  <advance width="501"/>
  <unicode hex="0062"/>
  <outline>
    <contour>
      <point x="164" y="718" type="line"/>
      <point x="164" y="460" type="line"/>
      <point x="198" y="521"/>
      <point x="235" y="546"/>
      <point x="291" y="546" type="curve" smooth="yes"/>
      <point x="401" y="546"/>
      <point x="474" y="437"/>
      <point x="474" y="272" type="curve" smooth="yes"/>
      <point x="474" y="98"/>
      <point x="402" y="-14"/>
      <point x="290" y="-14" type="curve" smooth="yes"/>
      <point x="231" y="-14"/>
      <point x="190" y="13"/>
      <point x="162" y="70" type="curve"/>
      <point x="162" y="0" type="line"/>
      <point x="50" y="0" type="line"/>
      <point x="50" y="718" type="line"/>
    </contour>
    <contour>
      <point x="259" y="424" type="curve" smooth="yes"/>
      <point x="195" y="424"/>
      <point x="160" y="367"/>
      <point x="160" y="261" type="curve" smooth="yes"/>
      <point x="160" y="159"/>
      <point x="196" y="101"/>
      <point x="260" y="101" type="curve" smooth="yes"/>
      <point x="318" y="101"/>
      <point x="356" y="165"/>
      <point x="356" y="264" type="curve" smooth="yes"/>
      <point x="356" y="364"/>
      <point x="319" y="424"/>
    </contour>
  </outline>
</glyph>
<glyph name="h" format="1">
  <advance width="501"/>
  <unicode hex="0068"/>
  <outline>
    <contour>
      <point x="167" y="718" type="line"/>
      <point x="167" y="459" type="line"/>
      <point x="190" y="516"/>
      <point x="236" y="546"/>
      <point x="298" y="546" type="curve" smooth="yes"/>
      <point x="389" y="546"/>
      <point x="448" y="476"/>
      <point x="448" y="368" type="curve" smooth="yes"/>
      <point x="448" y="0" type="line"/>
      <point x="334" y="0" type="line"/>
      <point x="334" y="323" type="line" smooth="yes"/>
      <point x="334" y="397"/>
      <point x="312" y="428"/>
      <point x="260" y="428" type="curve" smooth="yes"/>
      <point x="203" y="428"/>
      <point x="167" y="381"/>
      <point x="167" y="305" type="curve" smooth="yes"/>
      <point x="167" y="0" type="line"/>
      <point x="53" y="0" type="line"/>
      <point x="53" y="718" type="line"/>
    </contour>
  </outline>
</glyph>
<glyph name="i" format="1">
  <advance width="228"/>
  <unicode hex="0069"/>
  <outline>
    <contour>
      <point x="57" y="532" type="line"/>
      <point x="171" y="532" type="line"/>
      <point x="171" y="0" type="line"/>
      <point x="57" y="0" type="line"/>
    </contour>
    <contour>
      <point x="171" y="725" type="line"/>
      <point x="171" y="595" type="line"/>
      <point x="57" y="595" type="line"/>
      <point x="57" y="725" type="line"/>
    </contour>
  </outline>
</glyph>
<glyph name="j" format="1">
  <advance width="228"/>
  <unicode hex="006A"/>
  <outline>
    <contour>
      <point x="171" y="532" type="line"/>
      <point x="171" y="-56" type="line" smooth="yes"/>
      <point x="171" y="-175"/>
      <point x="137" y="-214"/>
      <point x="32" y="-214" type="curve" smooth="yes"/>
      <point x="2" y="-214" type="line"/>
      <point x="2" y="-102" type="line"/>
      <point x="23" y="-102" type="line" smooth="yes"/>
      <point x="47" y="-102"/>
      <point x="57" y="-88"/>
      <point x="57" y="-53" type="curve" smooth="yes"/>
      <point x="57" y="532" type="line"/>
    </contour>
    <contour>
      <point x="171" y="725" type="line"/>
      <point x="171" y="595" type="line"/>
      <point x="57" y="595" type="line"/>
      <point x="57" y="725" type="line"/>
    </contour>
  </outline>
</glyph>
<glyph name="m" format="1">
  <advance width="729"/>
  <unicode hex="006D"/>
  <outline>
    <contour>
      <point x="162" y="532" type="line"/>
      <point x="162" y="451" type="line"/>
      <point x="189" y="517"/>
      <point x="228" y="546"/>
      <point x="290" y="546" type="curve" smooth="yes"/>
      <point x="345" y="546"/>
      <point x="373" y="526"/>
      <point x="408" y="461" type="curve"/>
      <point x="442" y="523"/>
      <point x="476" y="546"/>
      <point x="530" y="546" type="curve" smooth="yes"/>
      <point x="618" y="546"/>
      <point x="677" y="474"/>
      <point x="677" y="368" type="curve" smooth="yes"/>
      <point x="677" y="0" type="line"/>
      <point x="563" y="0" type="line"/>
      <point x="563" y="323" type="line" smooth="yes"/>
      <point x="563" y="392"/>
      <point x="541" y="428"/>
      <point x="498" y="428" type="curve" smooth="yes"/>
      <point x="448" y="428"/>
      <point x="421" y="389"/>
      <point x="421" y="319" type="curve" smooth="yes"/>
      <point x="421" y="0" type="line"/>
      <point x="307" y="0" type="line"/>
      <point x="307" y="320" type="line" smooth="yes"/>
      <point x="307" y="400"/>
      <point x="289" y="428"/>
      <point x="239" y="428" type="curve" smooth="yes"/>
      <point x="190" y="428"/>
      <point x="166" y="393"/>
      <point x="166" y="324" type="curve" smooth="yes"/>
      <point x="166" y="0" type="line"/>
      <point x="52" y="0" type="line"/>
      <point x="52" y="532" type="line"/>
    </contour>
  </outline>
</glyph>
<glyph name="p" format="1">
  <advance width="501"/>
  <unicode hex="0070"/>
  <outline>
    <contour>
      <point x="161" y="532" type="line"/>
      <point x="161" y="452" type="line"/>
      <point x="194" y="519"/>
      <point x="231" y="546"/>
      <point x="290" y="546" type="curve" smooth="yes"/>
      <point x="401" y="546"/>
      <point x="474" y="437"/>
      <point x="474" y="272" type="curve" smooth="yes"/>
      <point x="474" y="97"/>
      <point x="402" y="-14"/>
      <point x="289" y="-14" type="curve" smooth="yes"/>
      <point x="230" y="-14"/>
      <point x="195" y="10"/>
      <point x="165" y="71" type="curve"/>
      <point x="165" y="-207" type="line"/>
      <point x="51" y="-207" type="line"/>
      <point x="51" y="532" type="line"/>
    </contour>
    <contour>
      <point x="258" y="424" type="curve" smooth="yes"/>
      <point x="194" y="424"/>
      <point x="161" y="368"/>
      <point x="161" y="260" type="curve" smooth="yes"/>
      <point x="161" y="158"/>
      <point x="196" y="101"/>
      <point x="260" y="101" type="curve" smooth="yes"/>
      <point x="319" y="101"/>
      <point x="356" y="165"/>
      <point x="356" y="265" type="curve" smooth="yes"/>
      <point x="356" y="364"/>
      <point x="319" y="424"/>
    </contour>
  </outline>
</glyph>
<glyph name="q" format="1">
  <advance width="501"/>
  <unicode hex="0071"/>
  <outline>
    <contour>
      <point x="343" y="532" type="line"/>
      <point x="453" y="532" type="line"/>
      <point x="453" y="-207" type="line"/>
      <point x="339" y="-207" type="line"/>
      <point x="339" y="69" type="line"/>
      <point x="310" y="10"/>
      <point x="274" y="-14"/>
      <point x="214" y="-14" type="curve" smooth="yes"/>
      <point x="102" y="-14"/>
      <point x="28" y="96"/>
      <point x="28" y="261" type="curve" smooth="yes"/>
      <point x="28" y="431"/>
      <point x="105" y="546"/>
      <point x="218" y="546" type="curve" smooth="yes"/>
      <point x="276" y="546"/>
      <point x="313" y="518"/>
      <point x="343" y="450" type="curve"/>
    </contour>
    <contour>
      <point x="243" y="424" type="curve" smooth="yes"/>
      <point x="181" y="424"/>
      <point x="146" y="363"/>
      <point x="146" y="258" type="curve" smooth="yes"/>
      <point x="146" y="157"/>
      <point x="180" y="104"/>
      <point x="243" y="104" type="curve" smooth="yes"/>
      <point x="306" y="104"/>
      <point x="341" y="162"/>
      <point x="341" y="263" type="curve" smooth="yes"/>
      <point x="341" y="362"/>
      <point x="303" y="424"/>
    </contour>
  </outline>
</glyph>
<glyph name="r" format="1">
  <advance width="319"/>
  <unicode hex="0072"/>
  <outline>
    <contour>
      <point x="52" y="0" type="line"/>
      <point x="52" y="532" type="line"/>
      <point x="162" y="532" type="line"/>
      <point x="162" y="437" type="line"/>
      <point x="196" y="518"/>
      <point x="227" y="546"/>
      <point x="283" y="546" type="curve" smooth="yes"/>
      <point x="288" y="546"/>
      <point x="293" y="546"/>
      <point x="306" y="544" type="curve"/>
      <point x="306" y="402" type="line"/>
      <point x="298" y="403"/>
      <point x="288" y="404"/>
      <point x="277" y="404" type="curve" smooth="yes"/>
      <point x="202" y="404"/>
      <point x="166" y="363"/>
      <point x="166" y="277" type="curve" smooth="yes"/>
      <point x="166" y="0" type="line"/>
    </contour>
  </outline>
</glyph>
<glyph name="t" format="1">
  <advance width="273"/>
  <unicode hex="0074"/>
  <outline>
    <contour>
      <point x="181" y="676" type="line"/>
      <point x="181" y="532" type="line"/>
      <point x="253" y="532" type="line"/>
      <point x="253" y="432" type="line"/>
      <point x="181" y="432" type="line"/>
      <point x="181" y="143" type="line" smooth="yes"/>
      <point x="181" y="106"/>
      <point x="188" y="100"/>
      <point x="228" y="100" type="curve" smooth="yes"/>
      <point x="235" y="100"/>
      <point x="240" y="100"/>
      <point x="253" y="102" type="curve"/>
      <point x="253" y="-4" type="line"/>
      <point x="214" y="-6"/>
      <point x="211" y="-6"/>
      <point x="198" y="-6" type="curve" smooth="yes"/>
      <point x="183" y="-6" type="line" smooth="yes"/>
      <point x="99" y="-6"/>
      <point x="67" y="25"/>
      <point x="67" y="109" type="curve" smooth="yes"/>
      <point x="67" y="432" type="line"/>
      <point x="8" y="432" type="line"/>
      <point x="8" y="532" type="line"/>
      <point x="67" y="532" type="line"/>
      <point x="67" y="676" type="line"/>
    </contour>
  </outline>
</glyph>
<glyph name="u" format="1">
  <advance width="501"/>
  <unicode hex="0075"/>
  <outline>
    <contour>
      <point x="447" y="532" type="line"/>
      <point x="447" y="0" type="line"/>
      <point x="337" y="0" type="line"/>
      <point x="337" y="78" type="line"/>
      <point x="307" y="15"/>
      <point x="265" y="-14"/>
      <point x="201" y="-14" type="curve" smooth="yes"/>
      <point x="107" y="-14"/>
      <point x="54" y="57"/>
      <point x="54" y="182" type="curve" smooth="yes"/>
      <point x="54" y="532" type="line"/>
      <point x="168" y="532" type="line"/>
      <point x="168" y="202" type="line" smooth="yes"/>
      <point x="168" y="138"/>
      <point x="193" y="104"/>
      <point x="242" y="104" type="curve" smooth="yes"/>
      <point x="299" y="104"/>
      <point x="333" y="150"/>
      <point x="333" y="225" type="curve" smooth="yes"/>
      <point x="333" y="532" type="line"/>
    </contour>
  </outline>
</glyph>
<glyph name="v" format="1">
  <advance width="456"/>
  <unicode hex="0076"/>
  <outline>
    <contour>
      <point x="445" y="532" type="line"/>
      <point x="288" y="0" type="line"/>
      <point x="167" y="0" type="line"/>
      <point x="11" y="532" type="line"/>
      <point x="139" y="532" type="line"/>
      <point x="230" y="136" type="line"/>
      <point x="323" y="532" type="line"/>
    </contour>
  </outline>
</glyph>
<glyph name="x" format="1">
  <advance width="456"/>
  <unicode hex="0078"/>
  <outline>
    <contour>
      <point x="295" y="271" type="line"/>
      <point x="444" y="0" type="line"/>
      <point x="302" y="0" type="line"/>
      <point x="226" y="160" type="line"/>
      <point x="151" y="0" type="line"/>
      <point x="12" y="0" type="line"/>
      <point x="161" y="271" type="line"/>
      <point x="18" y="532" type="line"/>
      <point x="157" y="532" type="line"/>
      <point x="231" y="377" type="line"/>
      <point x="304" y="532" type="line"/>
      <point x="439" y="532" type="line"/>
    </contour>
  </outline>
</glyph>
<glyph name="braceleft" format="1">
  <advance width="319"/>
  <unicode hex="007B"/>
  <outline>
    <contour>
      <point x="299" y="-108" type="line"/>
      <point x="299" y="-196" type="line"/>
      <point x="231" y="-196" type="line" smooth="yes"/>
      <point x="165" y="-196"/>
      <point x="116" y="-138"/>
      <point x="116" y="-59" type="curve" smooth="yes"/>
      <point x="116" y="141" type="line" smooth="yes"/>
      <point x="116" y="186"/>
      <point x="89" y="213"/>
      <point x="39" y="217" type="curve"/>
      <point x="39" y="309" type="line"/>
      <point x="88" y="313"/>
      <point x="116" y="340"/>
      <point x="116" y="385" type="curve" smooth="yes"/>
      <point x="116" y="585" type="line" smooth="yes"/>
      <point x="116" y="664"/>
      <point x="165" y="722"/>
      <point x="231" y="722" type="curve" smooth="yes"/>
      <point x="299" y="722" type="line"/>
      <point x="299" y="634" type="line"/>
      <point x="262" y="634" type="line" smooth="yes"/>
      <point x="230" y="634"/>
      <point x="216" y="614"/>
      <point x="216" y="568" type="curve" smooth="yes"/>
      <point x="216" y="372" type="line" smooth="yes"/>
      <point x="216" y="340"/>
      <point x="198" y="304"/>
      <point x="172" y="284" type="curve" smooth="yes"/>
      <point x="157" y="273"/>
      <point x="145" y="268"/>
      <point x="118" y="263" type="curve"/>
      <point x="145" y="258"/>
      <point x="157" y="253"/>
      <point x="172" y="242" type="curve" smooth="yes"/>
      <point x="198" y="222"/>
      <point x="216" y="186"/>
      <point x="216" y="154" type="curve" smooth="yes"/>
      <point x="216" y="-42" type="line" smooth="yes"/>
      <point x="216" y="-88"/>
      <point x="230" y="-108"/>
      <point x="262" y="-108" type="curve" smooth="yes"/>
    </contour>
  </outline>
</glyph>
<glyph name="bar" format="1">
  <advance width="230"/>
  <unicode hex="007C"/>
  <outline>
    <contour>
      <point x="69" y="-19" type="line"/>
      <point x="69" y="737" type="line"/>
      <point x="161" y="737" type="line"/>
      <point x="161" y="-19" type="line"/>
    </contour>
  </outline>
</glyph>
<glyph name="braceright" format="1">
  <advance width="319"/>
  <unicode hex="007D"/>
  <outline>
    <contour>
      <point x="280" y="309" type="curve"/>
      <point x="280" y="217" type="line"/>
      <point x="230" y="213"/>
      <point x="203" y="186"/>
      <point x="203" y="141" type="curve" smooth="yes"/>
      <point x="203" y="-59" type="line" smooth="yes"/>
      <point x="203" y="-137"/>
      <point x="154" y="-196"/>
      <point x="88" y="-196" type="curve" smooth="yes"/>
      <point x="20" y="-196" type="line"/>
      <point x="20" y="-108" type="line"/>
      <point x="57" y="-108" type="line" smooth="yes"/>
      <point x="89" y="-108"/>
      <point x="103" y="-88"/>
      <point x="103" y="-42" type="curve" smooth="yes"/>
      <point x="103" y="154" type="line" smooth="yes"/>
      <point x="103" y="186"/>
      <point x="121" y="222"/>
      <point x="147" y="242" type="curve" smooth="yes"/>
      <point x="162" y="253"/>
      <point x="174" y="258"/>
      <point x="201" y="263" type="curve"/>
      <point x="174" y="268"/>
      <point x="162" y="273"/>
      <point x="147" y="284" type="curve" smooth="yes"/>
      <point x="121" y="304"/>
      <point x="103" y="340"/>
      <point x="103" y="372" type="curve" smooth="yes"/>
      <point x="103" y="568" type="line" smooth="yes"/>
      <point x="103" y="614"/>
      <point x="89" y="634"/>
      <point x="57" y="634" type="curve" smooth="yes"/>
      <point x="20" y="634" type="line"/>
      <point x="20" y="722" type="line"/>
      <point x="88" y="722" type="line" smooth="yes"/>
      <point x="154" y="722"/>
      <point x="203" y="663"/>
      <point x="203" y="585" type="curve" smooth="yes"/>
      <point x="203" y="385" type="line" smooth="yes"/>
      <point x="203" y="340"/>
      <point x="231" y="313"/>
    </contour>
  </outline>
</glyph>
<glyph name="asciitilde" format="1">
  <advance width="479"/>
  <unicode hex="007E"/>
  <outline>
    <contour>
      <point x="373" y="321" type="curve"/>
      <point x="429" y="267" type="line"/>
      <point x="395" y="198"/>
      <point x="367" y="173"/>
      <point x="322" y="173" type="curve" smooth="yes"/>
      <point x="300" y="173"/>
      <point x="279" y="180"/>
      <point x="245" y="198" type="curve" smooth="yes"/>
      <point x="209" y="217"/>
      <point x="187" y="224"/>
      <point x="162" y="224" type="curve" smooth="yes"/>
      <point x="136" y="224"/>
      <point x="122" y="215"/>
      <point x="106" y="187" type="curve"/>
      <point x="50" y="242" type="line"/>
      <point x="84" y="311"/>
      <point x="112" y="336"/>
      <point x="157" y="336" type="curve" smooth="yes"/>
      <point x="179" y="336"/>
      <point x="201" y="329"/>
      <point x="234" y="311" type="curve" smooth="yes"/>
      <point x="270" y="292"/>
      <point x="292" y="285"/>
      <point x="317" y="285" type="curve" smooth="yes"/>
      <point x="343" y="285"/>
      <point x="357" y="294"/>
    </contour>
  </outline>
</glyph>
<glyph name="cent" format="1">
  <advance width="456"/>
  <unicode hex="00A2"/>
  <outline>
    <contour>
      <point x="430" y="342" type="curve"/>
      <point x="314" y="342" type="line"/>
      <point x="308" y="374"/>
      <point x="300" y="395"/>
      <point x="286" y="410" type="curve"/>
      <point x="214" y="105" type="line"/>
      <point x="220" y="102"/>
      <point x="226" y="101"/>
      <point x="234" y="101" type="curve" smooth="yes"/>
      <point x="277" y="101"/>
      <point x="309" y="139"/>
      <point x="313" y="194" type="curve"/>
      <point x="429" y="194" type="line"/>
      <point x="412" y="59"/>
      <point x="342" y="-14"/>
      <point x="229" y="-14" type="curve" smooth="yes"/>
      <point x="215" y="-14"/>
      <point x="200" y="-13"/>
      <point x="188" y="-10" type="curve"/>
      <point x="163" y="-118" type="line"/>
      <point x="120" y="-118" type="line"/>
      <point x="148" y="2" type="line"/>
      <point x="103" y="26"/>
      <point x="83" y="45"/>
      <point x="61" y="89" type="curve" smooth="yes"/>
      <point x="39" y="133"/>
      <point x="28" y="188"/>
      <point x="28" y="257" type="curve" smooth="yes"/>
      <point x="28" y="441"/>
      <point x="104" y="546"/>
      <point x="237" y="546" type="curve" smooth="yes"/>
      <point x="247" y="546"/>
      <point x="261" y="545"/>
      <point x="274" y="543" type="curve"/>
      <point x="294" y="628" type="line"/>
      <point x="336" y="628" type="line"/>
      <point x="314" y="530" type="line"/>
      <point x="384" y="499"/>
      <point x="423" y="438"/>
    </contour>
    <contour>
      <point x="177" y="129" type="curve"/>
      <point x="247" y="428" type="line"/>
      <point x="237" y="428" type="line" smooth="yes"/>
      <point x="179" y="428"/>
      <point x="146" y="370"/>
      <point x="146" y="265" type="curve" smooth="yes"/>
      <point x="146" y="198"/>
      <point x="154" y="161"/>
    </contour>
  </outline>
</glyph>
<glyph name="yen" format="1">
  <advance width="456"/>
  <unicode hex="00A5"/>
  <outline>
    <contour>
      <point x="450" y="405" type="line"/>
      <point x="450" y="345" type="line"/>
      <point x="314" y="345" type="line"/>
      <point x="283" y="271" type="line"/>
      <point x="450" y="271" type="line"/>
      <point x="450" y="211" type="line"/>
      <point x="282" y="211" type="line"/>
      <point x="282" y="0" type="line"/>
      <point x="179" y="0" type="line"/>
      <point x="179" y="211" type="line"/>
      <point x="13" y="211" type="line"/>
      <point x="13" y="271" type="line"/>
      <point x="179" y="271" type="line"/>
      <point x="146" y="345" type="line"/>
      <point x="13" y="345" type="line"/>
      <point x="13" y="405" type="line"/>
      <point x="120" y="405" type="line"/>
      <point x="-7" y="698" type="line"/>
      <point x="116" y="698" type="line"/>
      <point x="233" y="404" type="line"/>
      <point x="346" y="698" type="line"/>
      <point x="463" y="698" type="line"/>
      <point x="340" y="405" type="line"/>
    </contour>
  </outline>
</glyph>
<glyph name="brokenbar" format="1">
  <advance width="230"/>
  <unicode hex="00A6"/>
  <outline>
    <contour>
      <point x="69" y="-19" type="line"/>
      <point x="69" y="271" type="line"/>
      <point x="161" y="271" type="line"/>
      <point x="161" y="-19" type="line"/>
    </contour>
    <contour>
      <point x="69" y="447" type="line"/>
      <point x="69" y="737" type="line"/>
      <point x="161" y="737" type="line"/>
      <point x="161" y="447" type="line"/>
    </contour>
  </outline>
</glyph>
<glyph name="section" format="1">
  <advance width="456"/>
  <unicode hex="00A7"/>
  <outline>
    <contour>
      <point x="393" y="544" type="curve"/>
      <point x="289" y="544" type="line"/>
      <point x="284" y="596"/>
      <point x="264" y="620"/>
      <point x="226" y="620" type="curve" smooth="yes"/>
      <point x="191" y="620"/>
      <point x="166" y="596"/>
      <point x="166" y="563" type="curve" smooth="yes"/>
      <point x="166" y="541"/>
      <point x="176" y="525"/>
      <point x="197" y="512" type="curve" smooth="yes"/>
      <point x="330" y="431" type="line" smooth="yes"/>
      <point x="396" y="390"/>
      <point x="428" y="341"/>
      <point x="428" y="278" type="curve" smooth="yes"/>
      <point x="428" y="219"/>
      <point x="399" y="166"/>
      <point x="350" y="134" type="curve"/>
      <point x="386" y="95"/>
      <point x="401" y="56"/>
      <point x="401" y="3" type="curve" smooth="yes"/>
      <point x="401" y="-107"/>
      <point x="327" y="-184"/>
      <point x="222" y="-184" type="curve" smooth="yes"/>
      <point x="122" y="-184"/>
      <point x="61" y="-117"/>
      <point x="52" y="3" type="curve"/>
      <point x="160" y="3" type="line"/>
      <point x="166" y="-52"/>
      <point x="188" y="-77"/>
      <point x="230" y="-77" type="curve" smooth="yes"/>
      <point x="267" y="-77"/>
      <point x="291" y="-49"/>
      <point x="291" y="-6" type="curve" smooth="yes"/>
      <point x="291" y="22"/>
      <point x="279" y="39"/>
      <point x="243" y="61" type="curve" smooth="yes"/>
      <point x="117" y="139" type="line" smooth="yes"/>
      <point x="53" y="179"/>
      <point x="28" y="222"/>
      <point x="28" y="294" type="curve" smooth="yes"/>
      <point x="28" y="355"/>
      <point x="48" y="391"/>
      <point x="104" y="432" type="curve"/>
      <point x="75" y="468"/>
      <point x="62" y="503"/>
      <point x="62" y="549" type="curve" smooth="yes"/>
      <point x="62" y="652"/>
      <point x="132" y="727"/>
      <point x="229" y="727" type="curve" smooth="yes"/>
      <point x="292" y="727"/>
      <point x="342" y="699"/>
      <point x="369" y="648" type="curve" smooth="yes"/>
      <point x="384" y="619"/>
      <point x="389" y="595"/>
    </contour>
    <contour>
      <point x="163" y="263" type="curve" smooth="yes"/>
      <point x="291" y="179" type="line"/>
      <point x="316" y="197"/>
      <point x="326" y="216"/>
      <point x="326" y="243" type="curve" smooth="yes"/>
      <point x="326" y="269"/>
      <point x="312" y="289"/>
      <point x="280" y="309" type="curve" smooth="yes"/>
      <point x="160" y="383" type="line"/>
      <point x="139" y="372"/>
      <point x="125" y="348"/>
      <point x="125" y="322" type="curve" smooth="yes"/>
      <point x="125" y="298"/>
      <point x="137" y="280"/>
    </contour>
  </outline>
</glyph>
<glyph name="dieresis" format="1">
  <advance width="273"/>
  <unicode hex="00A8"/>
  <outline>
    <contour>
      <point x="108" y="729" type="line"/>
      <point x="108" y="614" type="line"/>
      <point x="5" y="614" type="line"/>
      <point x="5" y="729" type="line"/>
    </contour>
    <contour>
      <point x="268" y="729" type="line"/>
      <point x="268" y="614" type="line"/>
      <point x="165" y="614" type="line"/>
      <point x="165" y="729" type="line"/>
    </contour>
  </outline>
</glyph>
<glyph name="logicalnot" format="1">
  <advance width="479"/>
  <unicode hex="00AC"/>
  <outline>
    <contour>
      <point x="354" y="108" type="line"/>
      <point x="354" y="307" type="line"/>
      <point x="33" y="307" type="line"/>
      <point x="33" y="419" type="line"/>
      <point x="446" y="419" type="line"/>
      <point x="446" y="108" type="line"/>
    </contour>
  </outline>
</glyph>
<glyph name="registered" format="1">
  <advance width="604"/>
  <unicode hex="00AE"/>
  <outline>
    <contour>
      <point x="251" y="328" type="line"/>
      <point x="251" y="157" type="line"/>
      <point x="179" y="157" type="line"/>
      <point x="179" y="563" type="line"/>
      <point x="304" y="563" type="line" smooth="yes"/>
      <point x="399" y="563"/>
      <point x="441" y="525"/>
      <point x="441" y="440" type="curve" smooth="yes"/>
      <point x="441" y="374"/>
      <point x="417" y="343"/>
      <point x="361" y="335" type="curve"/>
      <point x="446" y="157" type="line"/>
      <point x="362" y="157" type="line"/>
      <point x="285" y="328" type="line"/>
    </contour>
    <contour>
      <point x="251" y="396" type="line"/>
      <point x="314" y="396" type="line" smooth="yes"/>
      <point x="350" y="396"/>
      <point x="364" y="410"/>
      <point x="364" y="447" type="curve" smooth="yes"/>
      <point x="364" y="481"/>
      <point x="346" y="495"/>
      <point x="301" y="495" type="curve" smooth="yes"/>
      <point x="251" y="495" type="line"/>
    </contour>
    <contour>
      <point x="306" y="737" type="curve" smooth="yes"/>
      <point x="483" y="737"/>
      <point x="613" y="577"/>
      <point x="613" y="359" type="curve" smooth="yes"/>
      <point x="613" y="139"/>
      <point x="483" y="-19"/>
      <point x="302" y="-19" type="curve" smooth="yes"/>
      <point x="122" y="-19"/>
      <point x="-9" y="139"/>
      <point x="-9" y="358" type="curve" smooth="yes"/>
      <point x="-9" y="581"/>
      <point x="121" y="737"/>
    </contour>
    <contour>
      <point x="304" y="649" type="curve" smooth="yes"/>
      <point x="174" y="649"/>
      <point x="81" y="528"/>
      <point x="81" y="358" type="curve" smooth="yes"/>
      <point x="81" y="190"/>
      <point x="174" y="69"/>
      <point x="304" y="69" type="curve" smooth="yes"/>
      <point x="429" y="69"/>
      <point x="523" y="194"/>
      <point x="523" y="359" type="curve" smooth="yes"/>
      <point x="523" y="523"/>
      <point x="428" y="649"/>
    </contour>
  </outline>
</glyph>
<glyph name="macron" format="1">
  <advance width="273"/>
  <unicode hex="00AF"/>
  <outline>
    <contour>
      <point x="278" y="678" type="line"/>
      <point x="278" y="605" type="line"/>
      <point x="-5" y="605" type="line"/>
      <point x="-5" y="678" type="line"/>
    </contour>
  </outline>
</glyph>
<glyph name="plusminus" format="1">
  <advance width="479"/>
  <unicode hex="00B1"/>
  <outline>
    <contour>
      <point x="194" y="381" type="line"/>
      <point x="194" y="578" type="line"/>
      <point x="286" y="578" type="line"/>
      <point x="286" y="381" type="line"/>
      <point x="446" y="381" type="line"/>
      <point x="446" y="269" type="line"/>
      <point x="286" y="269" type="line"/>
      <point x="286" y="143" type="line"/>
      <point x="194" y="143" type="line"/>
      <point x="194" y="269" type="line"/>
      <point x="33" y="269" type="line"/>
      <point x="33" y="381" type="line"/>
    </contour>
    <contour>
      <point x="33" y="0" type="line"/>
      <point x="33" y="112" type="line"/>
      <point x="446" y="112" type="line"/>
      <point x="446" y="0" type="line"/>
    </contour>
  </outline>
</glyph>
<glyph name="threesuperior" format="1">
  <advance width="273"/>
  <unicode hex="00B3"/>
  <outline>
    <contour>
      <point x="7" y="425" type="curve"/>
      <point x="80" y="425" type="line"/>
      <point x="81" y="371"/>
      <point x="98" y="346"/>
      <point x="134" y="346" type="curve" smooth="yes"/>
      <point x="169" y="346"/>
      <point x="187" y="371"/>
      <point x="187" y="417" type="curve" smooth="yes"/>
      <point x="187" y="463"/>
      <point x="167" y="479"/>
      <point x="106" y="479" type="curve"/>
      <point x="106" y="543" type="line"/>
      <point x="118" y="543" type="line" smooth="yes"/>
      <point x="161" y="543"/>
      <point x="178" y="558"/>
      <point x="178" y="595" type="curve" smooth="yes"/>
      <point x="178" y="629"/>
      <point x="162" y="647"/>
      <point x="133" y="647" type="curve" smooth="yes"/>
      <point x="101" y="647"/>
      <point x="84" y="626"/>
      <point x="83" y="585" type="curve"/>
      <point x="14" y="585" type="line"/>
      <point x="15" y="625"/>
      <point x="20" y="645"/>
      <point x="33" y="668" type="curve" smooth="yes"/>
      <point x="54" y="703"/>
      <point x="91" y="722"/>
      <point x="137" y="722" type="curve" smooth="yes"/>
      <point x="209" y="722"/>
      <point x="256" y="676"/>
      <point x="256" y="605" type="curve" smooth="yes"/>
      <point x="256" y="564"/>
      <point x="241" y="538"/>
      <point x="209" y="520" type="curve"/>
      <point x="248" y="504"/>
      <point x="267" y="471"/>
      <point x="267" y="418" type="curve" smooth="yes"/>
      <point x="267" y="332"/>
      <point x="213" y="271"/>
      <point x="136" y="271" type="curve" smooth="yes"/>
      <point x="101" y="271"/>
      <point x="70" y="282"/>
      <point x="48" y="303" type="curve" smooth="yes"/>
      <point x="21" y="329"/>
      <point x="11" y="360"/>
    </contour>
  </outline>
</glyph>
<glyph name="paragraph" format="1">
  <advance width="456"/>
  <unicode hex="00B6"/>
  <outline>
    <contour>
      <point x="175" y="-191" type="line"/>
      <point x="175" y="347" type="line"/>
      <point x="111" y="350"/>
      <point x="79" y="360"/>
      <point x="47" y="388" type="curve"/>
      <point x="11" y="418"/>
      <point x="-7" y="463"/>
      <point x="-7" y="523" type="curve" smooth="yes"/>
      <point x="-7" y="643"/>
      <point x="58" y="700"/>
      <point x="193" y="700" type="curve" smooth="yes"/>
      <point x="442" y="700" type="line"/>
      <point x="442" y="-191" type="line"/>
      <point x="350" y="-191" type="line"/>
      <point x="350" y="615" type="line"/>
      <point x="267" y="615" type="line"/>
      <point x="267" y="-191" type="line"/>
    </contour>
  </outline>
</glyph>
<glyph name="onesuperior" format="1">
  <advance width="273"/>
  <unicode hex="00B9"/>
  <outline>
    <contour>
      <point x="21" y="574" type="line"/>
      <point x="21" y="636" type="line"/>
      <point x="32" y="636" type="line" smooth="yes"/>
      <point x="89" y="636"/>
      <point x="120" y="661"/>
      <point x="124" y="710" type="curve"/>
      <point x="194" y="710" type="line"/>
      <point x="194" y="283" type="line"/>
      <point x="111" y="283" type="line"/>
      <point x="111" y="574" type="line"/>
    </contour>
  </outline>
</glyph>
<glyph name="ordmasculine" format="1">
  <advance width="299"/>
  <unicode hex="00BA"/>
  <outline>
    <contour>
      <point x="152" y="737" type="curve" smooth="yes"/>
      <point x="236" y="737"/>
      <point x="295" y="667"/>
      <point x="295" y="569" type="curve" smooth="yes"/>
      <point x="295" y="470"/>
      <point x="236" y="401"/>
      <point x="150" y="401" type="curve" smooth="yes"/>
      <point x="64" y="401"/>
      <point x="5" y="469"/>
      <point x="5" y="569" type="curve" smooth="yes"/>
      <point x="5" y="670"/>
      <point x="64" y="737"/>
    </contour>
    <contour>
      <point x="151" y="665" type="curve" smooth="yes"/>
      <point x="111" y="665"/>
      <point x="85" y="626"/>
      <point x="85" y="569" type="curve" smooth="yes"/>
      <point x="85" y="512"/>
      <point x="112" y="473"/>
      <point x="150" y="473" type="curve" smooth="yes"/>
      <point x="188" y="473"/>
      <point x="215" y="512"/>
      <point x="215" y="569" type="curve" smooth="yes"/>
      <point x="215" y="625"/>
      <point x="188" y="665"/>
    </contour>
    <contour>
      <point x="27" y="356" type="line"/>
      <point x="272" y="356" type="line"/>
      <point x="272" y="276" type="line"/>
      <point x="27" y="276" type="line"/>
    </contour>
  </outline>
</glyph>
<glyph name="onequarter" format="1">
  <advance width="684"/>
  <unicode hex="00BC"/>
  <outline>
    <contour>
      <point x="587" y="424" type="line"/>
      <point x="587" y="158" type="line"/>
      <point x="628" y="158" type="line"/>
      <point x="628" y="90" type="line"/>
      <point x="587" y="90" type="line"/>
      <point x="587" y="0" type="line"/>
      <point x="509" y="0" type="line"/>
      <point x="509" y="90" type="line"/>
      <point x="359" y="90" type="line"/>
      <point x="359" y="163" type="line"/>
      <point x="498" y="424" type="line"/>
    </contour>
    <contour>
      <point x="418" y="157" type="line"/>
      <point x="512" y="157" type="line"/>
      <point x="513" y="264"/>
      <point x="513" y="288"/>
      <point x="514" y="343" type="curve"/>
    </contour>
    <contour>
      <point x="111" y="-19" type="line"/>
      <point x="462" y="710" type="line"/>
      <point x="526" y="710" type="line"/>
      <point x="176" y="-19" type="line"/>
    </contour>
    <contour>
      <point x="21" y="574" type="line"/>
      <point x="21" y="636" type="line"/>
      <point x="32" y="636" type="line" smooth="yes"/>
      <point x="89" y="636"/>
      <point x="120" y="661"/>
      <point x="124" y="710" type="curve"/>
      <point x="194" y="710" type="line"/>
      <point x="194" y="283" type="line"/>
      <point x="111" y="283" type="line"/>
      <point x="111" y="574" type="line"/>
    </contour>
  </outline>
</glyph>
<glyph name="onehalf" format="1">
  <advance width="684"/>
  <unicode hex="00BD"/>
  <outline>
    <contour>
      <point x="111" y="-19" type="line"/>
      <point x="462" y="710" type="line"/>
      <point x="526" y="710" type="line"/>
      <point x="176" y="-19" type="line"/>
    </contour>
    <contour>
      <point x="21" y="574" type="line"/>
      <point x="21" y="636" type="line"/>
      <point x="32" y="636" type="line" smooth="yes"/>
      <point x="89" y="636"/>
      <point x="120" y="661"/>
      <point x="124" y="710" type="curve"/>
      <point x="194" y="710" type="line"/>
      <point x="194" y="283" type="line"/>
      <point x="111" y="283" type="line"/>
      <point x="111" y="574" type="line"/>
    </contour>
    <contour>
      <point x="469" y="275" type="curve"/>
      <point x="397" y="275" type="line"/>
      <point x="398" y="326"/>
      <point x="404" y="351"/>
      <point x="418" y="378" type="curve" smooth="yes"/>
      <point x="439" y="417"/>
      <point x="476" y="439"/>
      <point x="521" y="439" type="curve" smooth="yes"/>
      <point x="597" y="439"/>
      <point x="650" y="379"/>
      <point x="650" y="293" type="curve" smooth="yes"/>
      <point x="650" y="249"/>
      <point x="636" y="211"/>
      <point x="609" y="180" type="curve" smooth="yes"/>
      <point x="598" y="168"/>
      <point x="598" y="168"/>
      <point x="552" y="133" type="curve" smooth="yes"/>
      <point x="528" y="114"/>
      <point x="506" y="93"/>
      <point x="498" y="82" type="curve"/>
      <point x="651" y="82" type="line"/>
      <point x="651" y="0" type="line"/>
      <point x="393" y="0" type="line"/>
      <point x="397" y="88"/>
      <point x="420" y="126"/>
      <point x="513" y="199" type="curve"/>
      <point x="558" y="237"/>
      <point x="572" y="262"/>
      <point x="572" y="303" type="curve" smooth="yes"/>
      <point x="572" y="335"/>
      <point x="550" y="361"/>
      <point x="522" y="361" type="curve" smooth="yes"/>
      <point x="487" y="361"/>
      <point x="471" y="335"/>
    </contour>
  </outline>
</glyph>
<glyph name="threequarters" format="1">
  <advance width="684"/>
  <unicode hex="00BE"/>
  <outline>
    <contour>
      <point x="614" y="424" type="line"/>
      <point x="614" y="158" type="line"/>
      <point x="655" y="158" type="line"/>
      <point x="655" y="90" type="line"/>
      <point x="614" y="90" type="line"/>
      <point x="614" y="0" type="line"/>
      <point x="536" y="0" type="line"/>
      <point x="536" y="90" type="line"/>
      <point x="386" y="90" type="line"/>
      <point x="386" y="163" type="line"/>
      <point x="525" y="424" type="line"/>
    </contour>
    <contour>
      <point x="444" y="158" type="line"/>
      <point x="536" y="158" type="line"/>
      <point x="536" y="259"/>
      <point x="537" y="289"/>
      <point x="538" y="339" type="curve"/>
    </contour>
    <contour>
      <point x="147" y="-19" type="line"/>
      <point x="498" y="710" type="line"/>
      <point x="562" y="710" type="line"/>
      <point x="212" y="-19" type="line"/>
    </contour>
    <contour>
      <point x="13" y="425" type="curve"/>
      <point x="87" y="425" type="line"/>
      <point x="86" y="420"/>
      <point x="86" y="416"/>
      <point x="86" y="414" type="curve" smooth="yes"/>
      <point x="86" y="373"/>
      <point x="108" y="346"/>
      <point x="141" y="346" type="curve" smooth="yes"/>
      <point x="175" y="346"/>
      <point x="194" y="371"/>
      <point x="194" y="417" type="curve" smooth="yes"/>
      <point x="194" y="463"/>
      <point x="174" y="479"/>
      <point x="112" y="479" type="curve"/>
      <point x="112" y="543" type="line"/>
      <point x="124" y="543" type="line" smooth="yes"/>
      <point x="167" y="543"/>
      <point x="184" y="558"/>
      <point x="184" y="595" type="curve" smooth="yes"/>
      <point x="184" y="629"/>
      <point x="168" y="647"/>
      <point x="139" y="647" type="curve" smooth="yes"/>
      <point x="107" y="647"/>
      <point x="90" y="626"/>
      <point x="89" y="585" type="curve"/>
      <point x="19" y="585" type="line"/>
      <point x="21" y="625"/>
      <point x="26" y="645"/>
      <point x="39" y="668" type="curve" smooth="yes"/>
      <point x="60" y="703"/>
      <point x="96" y="722"/>
      <point x="142" y="722" type="curve" smooth="yes"/>
      <point x="214" y="722"/>
      <point x="262" y="675"/>
      <point x="262" y="605" type="curve" smooth="yes"/>
      <point x="262" y="564"/>
      <point x="247" y="538"/>
      <point x="215" y="520" type="curve"/>
      <point x="255" y="504"/>
      <point x="274" y="471"/>
      <point x="274" y="418" type="curve" smooth="yes"/>
      <point x="274" y="331"/>
      <point x="220" y="271"/>
      <point x="142" y="271" type="curve" smooth="yes"/>
      <point x="108" y="271"/>
      <point x="76" y="282"/>
      <point x="54" y="303" type="curve" smooth="yes"/>
      <point x="27" y="329"/>
      <point x="16" y="360"/>
    </contour>
  </outline>
</glyph>
<glyph name="Adieresis" format="1">
  <advance width="592"/>
  <unicode hex="00C4"/>
  <outline>
    <contour>
      <point x="187" y="148" type="line"/>
      <point x="146" y="0" type="line"/>
      <point x="16" y="0" type="line"/>
      <point x="226" y="718" type="line"/>
      <point x="368" y="718" type="line"/>
      <point x="576" y="0" type="line"/>
      <point x="442" y="0" type="line"/>
      <point x="404" y="148" type="line"/>
    </contour>
    <contour>
      <point x="296" y="559" type="line"/>
      <point x="220" y="271" type="line"/>
      <point x="370" y="271" type="line"/>
    </contour>
    <contour>
      <point x="268" y="915" type="line"/>
      <point x="268" y="800" type="line"/>
      <point x="165" y="800" type="line"/>
      <point x="165" y="915" type="line"/>
    </contour>
    <contour>
      <point x="428" y="915" type="line"/>
      <point x="428" y="800" type="line"/>
      <point x="325" y="800" type="line"/>
      <point x="325" y="915" type="line"/>
    </contour>
  </outline>
</glyph>
<glyph name="Ccedilla" format="1">
  <advance width="592"/>
  <unicode hex="00C7"/>
  <outline>
    <contour>
      <point x="302" y="-19" type="curve"/>
      <point x="281" y="-55" type="line"/>
      <point x="291" y="-52"/>
      <point x="297" y="-51"/>
      <point x="305" y="-51" type="curve" smooth="yes"/>
      <point x="347" y="-51"/>
      <point x="377" y="-83"/>
      <point x="377" y="-129" type="curve" smooth="yes"/>
      <point x="377" y="-188"/>
      <point x="335" y="-228"/>
      <point x="273" y="-228" type="curve" smooth="yes"/>
      <point x="245" y="-228"/>
      <point x="227" y="-223"/>
      <point x="181" y="-203" type="curve"/>
      <point x="199" y="-155" type="line"/>
      <point x="229" y="-166"/>
      <point x="248" y="-171"/>
      <point x="261" y="-171" type="curve" smooth="yes"/>
      <point x="283" y="-171"/>
      <point x="300" y="-153"/>
      <point x="300" y="-131" type="curve" smooth="yes"/>
      <point x="300" y="-111"/>
      <point x="286" y="-96"/>
      <point x="268" y="-96" type="curve" smooth="yes"/>
      <point x="261" y="-96"/>
      <point x="250" y="-99"/>
      <point x="236" y="-104" type="curve"/>
      <point x="219" y="-84" type="line"/>
      <point x="256" y="-14" type="line"/>
      <point x="116" y="13"/>
      <point x="36" y="148"/>
      <point x="36" y="357" type="curve" smooth="yes"/>
      <point x="36" y="591"/>
      <point x="141" y="737"/>
      <point x="309" y="737" type="curve" smooth="yes"/>
      <point x="402" y="737"/>
      <point x="479" y="691"/>
      <point x="524" y="610" type="curve" smooth="yes"/>
      <point x="546" y="570"/>
      <point x="555" y="540"/>
      <point x="561" y="483" type="curve"/>
      <point x="438" y="483" type="line"/>
      <point x="429" y="522"/>
      <point x="422" y="538"/>
      <point x="409" y="559" type="curve"/>
      <point x="388" y="589"/>
      <point x="353" y="607"/>
      <point x="312" y="607" type="curve" smooth="yes"/>
      <point x="217" y="607"/>
      <point x="161" y="514"/>
      <point x="161" y="356" type="curve" smooth="yes"/>
      <point x="161" y="203"/>
      <point x="216" y="111"/>
      <point x="308" y="111" type="curve" smooth="yes"/>
      <point x="351" y="111"/>
      <point x="386" y="130"/>
      <point x="410" y="167" type="curve" smooth="yes"/>
      <point x="423" y="188"/>
      <point x="429" y="206"/>
      <point x="438" y="246" type="curve"/>
      <point x="561" y="246" type="line"/>
      <point x="533" y="73"/>
      <point x="442" y="-20"/>
    </contour>
  </outline>
</glyph>
<glyph name="Edieresis" format="1">
  <advance width="547"/>
  <unicode hex="00CB"/>
  <outline>
    <contour>
      <point x="495" y="718" type="line"/>
      <point x="495" y="591" type="line"/>
      <point x="182" y="591" type="line"/>
      <point x="182" y="440" type="line"/>
      <point x="470" y="440" type="line"/>
      <point x="470" y="313" type="line"/>
      <point x="182" y="313" type="line"/>
      <point x="182" y="127" type="line"/>
      <point x="509" y="127" type="line"/>
      <point x="509" y="0" type="line"/>
      <point x="62" y="0" type="line"/>
      <point x="62" y="718" type="line"/>
    </contour>
    <contour>
      <point x="245" y="915" type="line"/>
      <point x="245" y="800" type="line"/>
      <point x="142" y="800" type="line"/>
      <point x="142" y="915" type="line"/>
    </contour>
    <contour>
      <point x="405" y="915" type="line"/>
      <point x="405" y="800" type="line"/>
      <point x="302" y="800" type="line"/>
      <point x="302" y="915" type="line"/>
    </contour>
  </outline>
</glyph>
<glyph name="Igrave" format="1">
  <advance width="228"/>
  <unicode hex="00CC"/>
  <outline>
    <contour>
      <point x="175" y="718" type="line"/>
      <point x="175" y="0" type="line"/>
      <point x="52" y="0" type="line"/>
      <point x="52" y="718" type="line"/>
    </contour>
    <contour>
      <point x="79" y="790" type="line"/>
      <point x="-41" y="936" type="line"/>
      <point x="85" y="936" type="line"/>
      <point x="162" y="790" type="line"/>
    </contour>
  </outline>
</glyph>
<glyph name="Icircumflex" format="1">
  <advance width="228"/>
  <unicode hex="00CE"/>
  <outline>
    <contour>
      <point x="176" y="718" type="line"/>
      <point x="176" y="0" type="line"/>
      <point x="53" y="0" type="line"/>
      <point x="53" y="718" type="line"/>
    </contour>
    <contour>
      <point x="166" y="936" type="line"/>
      <point x="259" y="790" type="line"/>
      <point x="166" y="790" type="line"/>
      <point x="114" y="872" type="line"/>
      <point x="63" y="790" type="line"/>
      <point x="-30" y="790" type="line"/>
      <point x="63" y="936" type="line"/>
    </contour>
  </outline>
</glyph>
<glyph name="Idieresis" format="1">
  <advance width="228"/>
  <unicode hex="00CF"/>
  <outline>
    <contour>
      <point x="176" y="718" type="line"/>
      <point x="176" y="0" type="line"/>
      <point x="53" y="0" type="line"/>
      <point x="53" y="718" type="line"/>
    </contour>
    <contour>
      <point x="86" y="915" type="line"/>
      <point x="86" y="800" type="line"/>
      <point x="-17" y="800" type="line"/>
      <point x="-17" y="915" type="line"/>
    </contour>
    <contour>
      <point x="246" y="915" type="line"/>
      <point x="246" y="800" type="line"/>
      <point x="143" y="800" type="line"/>
      <point x="143" y="915" type="line"/>
    </contour>
  </outline>
</glyph>
<glyph name="Otilde" format="1">
  <advance width="638"/>
  <unicode hex="00D5"/>
  <outline>
    <contour>
      <point x="323" y="737" type="curve" smooth="yes"/>
      <point x="398" y="737"/>
      <point x="472" y="701"/>
      <point x="521" y="642" type="curve" smooth="yes"/>
      <point x="574" y="578"/>
      <point x="602" y="480"/>
      <point x="602" y="359" type="curve" smooth="yes"/>
      <point x="602" y="238"/>
      <point x="574" y="140"/>
      <point x="521" y="76" type="curve" smooth="yes"/>
      <point x="472" y="16"/>
      <point x="398" y="-19"/>
      <point x="319" y="-19" type="curve" smooth="yes"/>
      <point x="216" y="-19"/>
      <point x="126" y="39"/>
      <point x="79" y="135" type="curve" smooth="yes"/>
      <point x="51" y="194"/>
      <point x="36" y="270"/>
      <point x="36" y="358" type="curve" smooth="yes"/>
      <point x="36" y="480"/>
      <point x="64" y="578"/>
      <point x="117" y="642" type="curve" smooth="yes"/>
      <point x="167" y="703"/>
      <point x="241" y="737"/>
    </contour>
    <contour>
      <point x="321" y="610" type="curve" smooth="yes"/>
      <point x="220" y="610"/>
      <point x="159" y="516"/>
      <point x="159" y="361" type="curve" smooth="yes"/>
      <point x="159" y="203"/>
      <point x="219" y="108"/>
      <point x="319" y="108" type="curve" smooth="yes"/>
      <point x="419" y="108"/>
      <point x="479" y="203"/>
      <point x="479" y="362" type="curve" smooth="yes"/>
      <point x="479" y="446"/>
      <point x="460" y="516"/>
      <point x="425" y="558" type="curve"/>
      <point x="399" y="591"/>
      <point x="360" y="610"/>
    </contour>
    <contour>
      <point x="417" y="923" type="curve"/>
      <point x="470" y="923" type="line"/>
      <point x="457" y="843"/>
      <point x="427" y="803"/>
      <point x="382" y="803" type="curve" smooth="yes"/>
      <point x="364" y="803"/>
      <point x="333" y="812"/>
      <point x="297" y="827" type="curve"/>
      <point x="279" y="836"/>
      <point x="267" y="839"/>
      <point x="259" y="839" type="curve" smooth="yes"/>
      <point x="240" y="839"/>
      <point x="227" y="824"/>
      <point x="221" y="796" type="curve"/>
      <point x="169" y="796" type="line"/>
      <point x="183" y="880"/>
      <point x="215" y="919"/>
      <point x="268" y="919" type="curve" smooth="yes"/>
      <point x="284" y="919"/>
      <point x="293" y="916"/>
      <point x="327" y="900" type="curve" smooth="yes"/>
      <point x="356" y="887"/>
      <point x="367" y="883"/>
      <point x="378" y="883" type="curve" smooth="yes"/>
      <point x="399" y="883"/>
      <point x="410" y="895"/>
    </contour>
  </outline>
</glyph>
<glyph name="Odieresis" format="1">
  <advance width="638"/>
  <unicode hex="00D6"/>
  <outline>
    <contour>
      <point x="323" y="737" type="curve" smooth="yes"/>
      <point x="398" y="737"/>
      <point x="472" y="701"/>
      <point x="521" y="642" type="curve" smooth="yes"/>
      <point x="574" y="578"/>
      <point x="602" y="480"/>
      <point x="602" y="359" type="curve" smooth="yes"/>
      <point x="602" y="238"/>
      <point x="574" y="140"/>
      <point x="521" y="76" type="curve" smooth="yes"/>
      <point x="472" y="16"/>
      <point x="398" y="-19"/>
      <point x="319" y="-19" type="curve" smooth="yes"/>
      <point x="216" y="-19"/>
      <point x="126" y="39"/>
      <point x="79" y="135" type="curve" smooth="yes"/>
      <point x="51" y="194"/>
      <point x="36" y="270"/>
      <point x="36" y="358" type="curve" smooth="yes"/>
      <point x="36" y="480"/>
      <point x="64" y="578"/>
      <point x="117" y="642" type="curve" smooth="yes"/>
      <point x="167" y="703"/>
      <point x="241" y="737"/>
    </contour>
    <contour>
      <point x="321" y="610" type="curve" smooth="yes"/>
      <point x="220" y="610"/>
      <point x="159" y="516"/>
      <point x="159" y="361" type="curve" smooth="yes"/>
      <point x="159" y="203"/>
      <point x="219" y="108"/>
      <point x="319" y="108" type="curve" smooth="yes"/>
      <point x="419" y="108"/>
      <point x="479" y="203"/>
      <point x="479" y="362" type="curve" smooth="yes"/>
      <point x="479" y="446"/>
      <point x="460" y="516"/>
      <point x="425" y="558" type="curve"/>
      <point x="399" y="591"/>
      <point x="360" y="610"/>
    </contour>
    <contour>
      <point x="291" y="915" type="line"/>
      <point x="291" y="800" type="line"/>
      <point x="188" y="800" type="line"/>
      <point x="188" y="915" type="line"/>
    </contour>
    <contour>
      <point x="451" y="915" type="line"/>
      <point x="451" y="800" type="line"/>
      <point x="348" y="800" type="line"/>
      <point x="348" y="915" type="line"/>
    </contour>
  </outline>
</glyph>
<glyph name="Yacute" format="1">
  <advance width="547"/>
  <unicode hex="00DD"/>
  <outline>
    <contour>
      <point x="338" y="269" type="line"/>
      <point x="338" y="0" type="line"/>
      <point x="215" y="0" type="line"/>
      <point x="215" y="271" type="line"/>
      <point x="12" y="718" type="line"/>
      <point x="157" y="718" type="line"/>
      <point x="279" y="406" type="line"/>
      <point x="396" y="718" type="line"/>
      <point x="535" y="718" type="line"/>
    </contour>
    <contour>
      <point x="428" y="936" type="line"/>
      <point x="308" y="790" type="line"/>
      <point x="225" y="790" type="line"/>
      <point x="302" y="936" type="line"/>
    </contour>
  </outline>
</glyph>
<glyph name="Thorn" format="1">
  <advance width="547"/>
  <unicode hex="00DE"/>
  <outline>
    <contour>
      <point x="62" y="0" type="line"/>
      <point x="62" y="718" type="line"/>
      <point x="185" y="718" type="line"/>
      <point x="185" y="620" type="line"/>
      <point x="331" y="620" type="line" smooth="yes"/>
      <point x="442" y="620"/>
      <point x="514" y="531"/>
      <point x="514" y="394" type="curve" smooth="yes"/>
      <point x="514" y="252"/>
      <point x="440" y="159"/>
      <point x="326" y="159" type="curve" smooth="yes"/>
      <point x="185" y="159" type="line"/>
      <point x="185" y="0" type="line"/>
    </contour>
    <contour>
      <point x="185" y="282" type="line"/>
      <point x="299" y="282" type="line" smooth="yes"/>
      <point x="361" y="282"/>
      <point x="391" y="317"/>
      <point x="391" y="392" type="curve" smooth="yes"/>
      <point x="391" y="466"/>
      <point x="359" y="497"/>
      <point x="283" y="497" type="curve" smooth="yes"/>
      <point x="185" y="497" type="line"/>
    </contour>
  </outline>
</glyph>
<glyph name="germandbls" format="1">
  <advance width="501"/>
  <unicode hex="00DF"/>
  <outline>
    <contour>
      <point x="229" y="-8" type="curve"/>
      <point x="229" y="102" type="line"/>
      <point x="233" y="102" type="line"/>
      <point x="237" y="101"/>
      <point x="246" y="101"/>
      <point x="253" y="101" type="curve" smooth="yes"/>
      <point x="323" y="101"/>
      <point x="360" y="143"/>
      <point x="360" y="224" type="curve" smooth="yes"/>
      <point x="360" y="308"/>
      <point x="328" y="339"/>
      <point x="235" y="347" type="curve"/>
      <point x="235" y="444" type="line"/>
      <point x="305" y="447"/>
      <point x="327" y="467"/>
      <point x="327" y="530" type="curve" smooth="yes"/>
      <point x="327" y="587"/>
      <point x="298" y="619"/>
      <point x="247" y="619" type="curve" smooth="yes"/>
      <point x="200" y="619"/>
      <point x="171" y="585"/>
      <point x="171" y="530" type="curve" smooth="yes"/>
      <point x="171" y="0" type="line"/>
      <point x="57" y="0" type="line"/>
      <point x="57" y="539" type="line" smooth="yes"/>
      <point x="57" y="657"/>
      <point x="132" y="731"/>
      <point x="250" y="731" type="curve" smooth="yes"/>
      <point x="370" y="731"/>
      <point x="442" y="660"/>
      <point x="442" y="541" type="curve" smooth="yes"/>
      <point x="442" y="480"/>
      <point x="423" y="439"/>
      <point x="382" y="411" type="curve"/>
      <point x="450" y="369"/>
      <point x="475" y="321"/>
      <point x="475" y="231" type="curve" smooth="yes"/>
      <point x="475" y="81"/>
      <point x="398" y="-14"/>
      <point x="277" y="-14" type="curve" smooth="yes"/>
      <point x="263" y="-14"/>
      <point x="255" y="-13"/>
    </contour>
  </outline>
</glyph>
<glyph name="atilde" format="1">
  <advance width="456"/>
  <unicode hex="00E3"/>
  <outline>
    <contour>
      <point x="148" y="360" type="curve"/>
      <point x="38" y="360" type="line"/>
      <point x="44" y="419"/>
      <point x="53" y="447"/>
      <point x="72" y="478" type="curve"/>
      <point x="103" y="524"/>
      <point x="154" y="546"/>
      <point x="229" y="546" type="curve" smooth="yes"/>
      <point x="342" y="546"/>
      <point x="407" y="489"/>
      <point x="407" y="392" type="curve" smooth="yes"/>
      <point x="407" y="104" type="line" smooth="yes"/>
      <point x="407" y="52"/>
      <point x="413" y="31"/>
      <point x="432" y="21" type="curve"/>
      <point x="432" y="0" type="line"/>
      <point x="309" y="0" type="line"/>
      <point x="302" y="26"/>
      <point x="301" y="34"/>
      <point x="298" y="63" type="curve"/>
      <point x="253" y="6"/>
      <point x="216" y="-14"/>
      <point x="160" y="-14" type="curve" smooth="yes"/>
      <point x="76" y="-14"/>
      <point x="24" y="46"/>
      <point x="24" y="142" type="curve" smooth="yes"/>
      <point x="24" y="235"/>
      <point x="70" y="296"/>
      <point x="152" y="311" type="curve" smooth="yes"/>
      <point x="255" y="330" type="line" smooth="yes"/>
      <point x="283" y="335"/>
      <point x="295" y="349"/>
      <point x="295" y="374" type="curve" smooth="yes"/>
      <point x="295" y="414"/>
      <point x="271" y="434"/>
      <point x="224" y="434" type="curve" smooth="yes"/>
      <point x="175" y="434"/>
      <point x="155" y="414"/>
    </contour>
    <contour>
      <point x="295" y="191" type="curve" smooth="yes"/>
      <point x="295" y="259" type="line"/>
      <point x="280" y="245"/>
      <point x="263" y="239"/>
      <point x="217" y="230" type="curve" smooth="yes"/>
      <point x="160" y="218"/>
      <point x="139" y="197"/>
      <point x="139" y="151" type="curve" smooth="yes"/>
      <point x="139" y="111"/>
      <point x="160" y="86"/>
      <point x="194" y="86" type="curve" smooth="yes"/>
      <point x="250" y="86"/>
      <point x="295" y="133"/>
    </contour>
    <contour>
      <point x="326" y="737" type="curve"/>
      <point x="379" y="737" type="line"/>
      <point x="366" y="657"/>
      <point x="336" y="617"/>
      <point x="291" y="617" type="curve" smooth="yes"/>
      <point x="273" y="617"/>
      <point x="242" y="626"/>
      <point x="206" y="641" type="curve"/>
      <point x="188" y="650"/>
      <point x="176" y="653"/>
      <point x="168" y="653" type="curve" smooth="yes"/>
      <point x="149" y="653"/>
      <point x="136" y="638"/>
      <point x="130" y="610" type="curve"/>
      <point x="78" y="610" type="line"/>
      <point x="92" y="694"/>
      <point x="124" y="733"/>
      <point x="177" y="733" type="curve" smooth="yes"/>
      <point x="193" y="733"/>
      <point x="202" y="730"/>
      <point x="236" y="714" type="curve" smooth="yes"/>
      <point x="265" y="701"/>
      <point x="276" y="697"/>
      <point x="287" y="697" type="curve" smooth="yes"/>
      <point x="308" y="697"/>
      <point x="319" y="709"/>
    </contour>
  </outline>
</glyph>
<glyph name="ae" format="1">
  <advance width="729"/>
  <unicode hex="00E6"/>
  <outline>
    <contour>
      <point x="581" y="157" type="curve"/>
      <point x="699" y="157" type="line"/>
      <point x="680" y="91"/>
      <point x="663" y="60"/>
      <point x="626" y="29" type="curve" smooth="yes"/>
      <point x="592" y="0"/>
      <point x="552" y="-14"/>
      <point x="501" y="-14" type="curve" smooth="yes"/>
      <point x="425" y="-14"/>
      <point x="385" y="8"/>
      <point x="344" y="72" type="curve"/>
      <point x="311" y="16"/>
      <point x="255" y="-14"/>
      <point x="179" y="-14" type="curve" smooth="yes"/>
      <point x="79" y="-14"/>
      <point x="24" y="44"/>
      <point x="24" y="147" type="curve" smooth="yes"/>
      <point x="24" y="230"/>
      <point x="65" y="286"/>
      <point x="135" y="301" type="curve" smooth="yes"/>
      <point x="242" y="323" type="line" smooth="yes"/>
      <point x="293" y="334"/>
      <point x="301" y="340"/>
      <point x="301" y="374" type="curve" smooth="yes"/>
      <point x="301" y="416"/>
      <point x="278" y="434"/>
      <point x="225" y="434" type="curve" smooth="yes"/>
      <point x="176" y="434"/>
      <point x="154" y="411"/>
      <point x="152" y="359" type="curve"/>
      <point x="40" y="359" type="line"/>
      <point x="45" y="414"/>
      <point x="53" y="442"/>
      <point x="72" y="472" type="curve" smooth="yes"/>
      <point x="103" y="520"/>
      <point x="158" y="546"/>
      <point x="231" y="546" type="curve" smooth="yes"/>
      <point x="290" y="546"/>
      <point x="330" y="529"/>
      <point x="371" y="487" type="curve"/>
      <point x="417" y="531"/>
      <point x="451" y="546"/>
      <point x="503" y="546" type="curve" smooth="yes"/>
      <point x="557" y="546"/>
      <point x="609" y="522"/>
      <point x="642" y="481" type="curve" smooth="yes"/>
      <point x="683" y="430"/>
      <point x="704" y="354"/>
      <point x="704" y="252" type="curve" smooth="yes"/>
      <point x="704" y="227" type="line"/>
      <point x="405" y="227" type="line"/>
      <point x="412" y="138"/>
      <point x="443" y="99"/>
      <point x="505" y="99" type="curve" smooth="yes"/>
      <point x="544" y="99"/>
      <point x="570" y="119"/>
    </contour>
    <contour>
      <point x="299" y="188" type="curve" smooth="yes"/>
      <point x="299" y="254" type="line"/>
      <point x="286" y="240"/>
      <point x="268" y="234"/>
      <point x="214" y="224" type="curve" smooth="yes"/>
      <point x="156" y="213"/>
      <point x="139" y="197"/>
      <point x="139" y="151" type="curve" smooth="yes"/>
      <point x="139" y="110"/>
      <point x="162" y="86"/>
      <point x="200" y="86" type="curve" smooth="yes"/>
      <point x="252" y="86"/>
      <point x="299" y="135"/>
    </contour>
    <contour>
      <point x="408" y="319" type="curve"/>
      <point x="586" y="319" type="line"/>
      <point x="578" y="394"/>
      <point x="548" y="431"/>
      <point x="496" y="431" type="curve" smooth="yes"/>
      <point x="445" y="431"/>
      <point x="418" y="396"/>
    </contour>
  </outline>
</glyph>
<glyph name="eacute" format="1">
  <advance width="456"/>
  <unicode hex="00E9"/>
  <outline>
    <contour>
      <point x="310" y="157" type="curve"/>
      <point x="428" y="157" type="line"/>
      <point x="409" y="91"/>
      <point x="392" y="60"/>
      <point x="355" y="29" type="curve"/>
      <point x="322" y="0"/>
      <point x="281" y="-14"/>
      <point x="232" y="-14" type="curve" smooth="yes"/>
      <point x="96" y="-14"/>
      <point x="19" y="88"/>
      <point x="19" y="268" type="curve" smooth="yes"/>
      <point x="19" y="442"/>
      <point x="97" y="546"/>
      <point x="226" y="546" type="curve" smooth="yes"/>
      <point x="359" y="546"/>
      <point x="433" y="441"/>
      <point x="433" y="252" type="curve" smooth="yes"/>
      <point x="433" y="227" type="line"/>
      <point x="134" y="227" type="line"/>
      <point x="141" y="138"/>
      <point x="172" y="99"/>
      <point x="234" y="99" type="curve" smooth="yes"/>
      <point x="273" y="99"/>
      <point x="299" y="119"/>
    </contour>
    <contour>
      <point x="137" y="319" type="curve"/>
      <point x="315" y="319" type="line"/>
      <point x="307" y="394"/>
      <point x="277" y="431"/>
      <point x="225" y="431" type="curve" smooth="yes"/>
      <point x="174" y="431"/>
      <point x="147" y="396"/>
    </contour>
    <contour>
      <point x="384" y="750" type="line"/>
      <point x="264" y="604" type="line"/>
      <point x="181" y="604" type="line"/>
      <point x="258" y="750" type="line"/>
    </contour>
  </outline>
</glyph>
<glyph name="igrave" format="1">
  <advance width="228"/>
  <unicode hex="00EC"/>
  <outline>
    <contour>
      <point x="57" y="532" type="line"/>
      <point x="171" y="532" type="line"/>
      <point x="171" y="0" type="line"/>
      <point x="57" y="0" type="line"/>
    </contour>
    <contour>
      <point x="79" y="604" type="line"/>
      <point x="-41" y="750" type="line"/>
      <point x="85" y="750" type="line"/>
      <point x="162" y="604" type="line"/>
    </contour>
  </outline>
</glyph>
<glyph name="iacute" format="1">
  <advance width="228"/>
  <unicode hex="00ED"/>
  <outline>
    <contour>
      <point x="57" y="532" type="line"/>
      <point x="171" y="532" type="line"/>
      <point x="171" y="0" type="line"/>
      <point x="57" y="0" type="line"/>
    </contour>
    <contour>
      <point x="270" y="750" type="line"/>
      <point x="150" y="604" type="line"/>
      <point x="67" y="604" type="line"/>
      <point x="144" y="750" type="line"/>
    </contour>
  </outline>
</glyph>
<glyph name="icircumflex" format="1">
  <advance width="228"/>
  <unicode hex="00EE"/>
  <outline>
    <contour>
      <point x="57" y="532" type="line"/>
      <point x="171" y="532" type="line"/>
      <point x="171" y="0" type="line"/>
      <point x="57" y="0" type="line"/>
    </contour>
    <contour>
      <point x="166" y="750" type="line"/>
      <point x="259" y="604" type="line"/>
      <point x="166" y="604" type="line"/>
      <point x="114" y="686" type="line"/>
      <point x="63" y="604" type="line"/>
      <point x="-30" y="604" type="line"/>
      <point x="63" y="750" type="line"/>
    </contour>
  </outline>
</glyph>
<glyph name="idieresis" format="1">
  <advance width="228"/>
  <unicode hex="00EF"/>
  <outline>
    <contour>
      <point x="57" y="532" type="line"/>
      <point x="171" y="532" type="line"/>
      <point x="171" y="0" type="line"/>
      <point x="57" y="0" type="line"/>
    </contour>
    <contour>
      <point x="86" y="729" type="line"/>
      <point x="86" y="614" type="line"/>
      <point x="-17" y="614" type="line"/>
      <point x="-17" y="729" type="line"/>
    </contour>
    <contour>
      <point x="246" y="729" type="line"/>
      <point x="246" y="614" type="line"/>
      <point x="143" y="614" type="line"/>
      <point x="143" y="729" type="line"/>
    </contour>
  </outline>
</glyph>
<glyph name="ntilde" format="1">
  <advance width="501"/>
  <unicode hex="00F1"/>
  <outline>
    <contour>
      <point x="163" y="532" type="line"/>
      <point x="163" y="451" type="line"/>
      <point x="194" y="517"/>
      <point x="235" y="546"/>
      <point x="297" y="546" type="curve" smooth="yes"/>
      <point x="389" y="546"/>
      <point x="448" y="477"/>
      <point x="448" y="368" type="curve" smooth="yes"/>
      <point x="448" y="0" type="line"/>
      <point x="334" y="0" type="line"/>
      <point x="334" y="323" type="line" smooth="yes"/>
      <point x="334" y="397"/>
      <point x="312" y="428"/>
      <point x="260" y="428" type="curve" smooth="yes"/>
      <point x="203" y="428"/>
      <point x="167" y="381"/>
      <point x="167" y="305" type="curve" smooth="yes"/>
      <point x="167" y="0" type="line"/>
      <point x="53" y="0" type="line"/>
      <point x="53" y="532" type="line"/>
    </contour>
    <contour>
      <point x="348" y="737" type="curve"/>
      <point x="401" y="737" type="line"/>
      <point x="388" y="657"/>
      <point x="358" y="617"/>
      <point x="313" y="617" type="curve" smooth="yes"/>
      <point x="295" y="617"/>
      <point x="264" y="626"/>
      <point x="228" y="641" type="curve"/>
      <point x="210" y="650"/>
      <point x="198" y="653"/>
      <point x="190" y="653" type="curve" smooth="yes"/>
      <point x="171" y="653"/>
      <point x="158" y="638"/>
      <point x="152" y="610" type="curve"/>
      <point x="100" y="610" type="line"/>
      <point x="114" y="694"/>
      <point x="146" y="733"/>
      <point x="199" y="733" type="curve" smooth="yes"/>
      <point x="215" y="733"/>
      <point x="224" y="730"/>
      <point x="258" y="714" type="curve" smooth="yes"/>
      <point x="287" y="701"/>
      <point x="298" y="697"/>
      <point x="309" y="697" type="curve" smooth="yes"/>
      <point x="330" y="697"/>
      <point x="341" y="709"/>
    </contour>
  </outline>
</glyph>
<glyph name="divide" format="1">
  <advance width="479"/>
  <unicode hex="00F7"/>
  <outline>
    <contour>
      <point x="446" y="197" type="line"/>
      <point x="33" y="197" type="line"/>
      <point x="33" y="309" type="line"/>
      <point x="446" y="309" type="line"/>
    </contour>
    <contour>
      <point x="240" y="548" type="curve" smooth="yes"/>
      <point x="278" y="548"/>
      <point x="312" y="506"/>
      <point x="312" y="460" type="curve" smooth="yes"/>
      <point x="312" y="413"/>
      <point x="278" y="371"/>
      <point x="240" y="371" type="curve" smooth="yes"/>
      <point x="201" y="371"/>
      <point x="167" y="412"/>
      <point x="167" y="459" type="curve" smooth="yes"/>
      <point x="167" y="508"/>
      <point x="200" y="548"/>
    </contour>
    <contour>
      <point x="240" y="135" type="curve" smooth="yes"/>
      <point x="278" y="135"/>
      <point x="312" y="93"/>
      <point x="312" y="47" type="curve" smooth="yes"/>
      <point x="312" y="1"/>
      <point x="277" y="-42"/>
      <point x="240" y="-42" type="curve" smooth="yes"/>
      <point x="201" y="-42"/>
      <point x="167" y="-1"/>
      <point x="167" y="46" type="curve" smooth="yes"/>
      <point x="167" y="95"/>
      <point x="200" y="135"/>
    </contour>
  </outline>
</glyph>
<glyph name="oslash" format="1">
  <advance width="501"/>
  <unicode hex="00F8"/>
  <outline>
    <contour>
      <point x="483" y="528" type="line"/>
      <point x="425" y="454" type="line"/>
      <point x="460" y="396"/>
      <point x="474" y="343"/>
      <point x="474" y="266" type="curve" smooth="yes"/>
      <point x="474" y="96"/>
      <point x="386" y="-14"/>
      <point x="251" y="-14" type="curve" smooth="yes"/>
      <point x="194" y="-14"/>
      <point x="151" y="3"/>
      <point x="106" y="44" type="curve"/>
      <point x="49" y="-29" type="line"/>
      <point x="18" y="0" type="line"/>
      <point x="78" y="77" type="line"/>
      <point x="42" y="135"/>
      <point x="28" y="188"/>
      <point x="28" y="266" type="curve" smooth="yes"/>
      <point x="28" y="436"/>
      <point x="115" y="546"/>
      <point x="251" y="546" type="curve" smooth="yes"/>
      <point x="308" y="546"/>
      <point x="351" y="529"/>
      <point x="398" y="487" type="curve"/>
      <point x="454" y="560" type="line"/>
    </contour>
    <contour>
      <point x="344" y="351" type="curve"/>
      <point x="179" y="138" type="line"/>
      <point x="198" y="114"/>
      <point x="219" y="104"/>
      <point x="250" y="104" type="curve" smooth="yes"/>
      <point x="319" y="104"/>
      <point x="356" y="161"/>
      <point x="356" y="267" type="curve" smooth="yes"/>
      <point x="356" y="300"/>
      <point x="353" y="325"/>
    </contour>
    <contour>
      <point x="158" y="179" type="curve"/>
      <point x="325" y="393" type="line"/>
      <point x="303" y="418"/>
      <point x="282" y="428"/>
      <point x="251" y="428" type="curve" smooth="yes"/>
      <point x="183" y="428"/>
      <point x="146" y="371"/>
      <point x="146" y="267" type="curve" smooth="yes"/>
      <point x="146" y="232"/>
      <point x="149" y="208"/>
    </contour>
  </outline>
</glyph>
<glyph name="thorn" format="1">
  <advance width="501"/>
  <unicode hex="00FE"/>
  <outline>
    <contour>
      <point x="165" y="71" type="curve"/>
      <point x="165" y="-207" type="line"/>
      <point x="51" y="-207" type="line"/>
      <point x="51" y="718" type="line"/>
      <point x="165" y="718" type="line"/>
      <point x="165" y="461" type="line"/>
      <point x="198" y="521"/>
      <point x="235" y="546"/>
      <point x="291" y="546" type="curve" smooth="yes"/>
      <point x="401" y="546"/>
      <point x="474" y="437"/>
      <point x="474" y="272" type="curve" smooth="yes"/>
      <point x="474" y="97"/>
      <point x="402" y="-14"/>
      <point x="289" y="-14" type="curve" smooth="yes"/>
      <point x="230" y="-14"/>
      <point x="195" y="10"/>
    </contour>
    <contour>
      <point x="258" y="424" type="curve" smooth="yes"/>
      <point x="194" y="424"/>
      <point x="160" y="366"/>
      <point x="160" y="258" type="curve" smooth="yes"/>
      <point x="160" y="159"/>
      <point x="197" y="101"/>
      <point x="259" y="101" type="curve" smooth="yes"/>
      <point x="319" y="101"/>
      <point x="356" y="165"/>
      <point x="356" y="265" type="curve" smooth="yes"/>
      <point x="356" y="364"/>
      <point x="319" y="424"/>
    </contour>
  </outline>
</glyph>
<glyph name="ydieresis" format="1">
  <advance width="456"/>
  <unicode hex="00FF"/>
  <outline>
    <contour>
      <point x="442" y="532" type="line"/>
      <point x="292" y="9" type="line" smooth="yes"/>
      <point x="258" y="-110"/>
      <point x="242" y="-153"/>
      <point x="224" y="-177" type="curve" smooth="yes"/>
      <point x="204" y="-204"/>
      <point x="177" y="-214"/>
      <point x="126" y="-214" type="curve" smooth="yes"/>
      <point x="114" y="-214"/>
      <point x="98" y="-213"/>
      <point x="71" y="-212" type="curve"/>
      <point x="71" y="-100" type="line"/>
      <point x="79" y="-101"/>
      <point x="87" y="-102"/>
      <point x="95" y="-102" type="curve" smooth="yes"/>
      <point x="144" y="-102"/>
      <point x="158" y="-87"/>
      <point x="169" y="-22" type="curve"/>
      <point x="8" y="532" type="line"/>
      <point x="136" y="532" type="line"/>
      <point x="230" y="136" type="line"/>
      <point x="320" y="532" type="line"/>
    </contour>
    <contour>
      <point x="200" y="729" type="line"/>
      <point x="200" y="614" type="line"/>
      <point x="97" y="614" type="line"/>
      <point x="97" y="729" type="line"/>
    </contour>
    <contour>
      <point x="360" y="729" type="line"/>
      <point x="360" y="614" type="line"/>
      <point x="257" y="614" type="line"/>
      <point x="257" y="729" type="line"/>
    </contour>
  </outline>
</glyph>
<glyph name="Amacron" format="1">
  <advance width="592"/>
  <unicode hex="0100"/>
  <outline>
    <contour>
      <point x="187" y="148" type="line"/>
      <point x="146" y="0" type="line"/>
      <point x="16" y="0" type="line"/>
      <point x="226" y="718" type="line"/>
      <point x="368" y="718" type="line"/>
      <point x="576" y="0" type="line"/>
      <point x="442" y="0" type="line"/>
      <point x="404" y="148" type="line"/>
    </contour>
    <contour>
      <point x="296" y="559" type="line"/>
      <point x="220" y="271" type="line"/>
      <point x="370" y="271" type="line"/>
    </contour>
    <contour>
      <point x="438" y="864" type="line"/>
      <point x="438" y="791" type="line"/>
      <point x="155" y="791" type="line"/>
      <point x="155" y="864" type="line"/>
    </contour>
  </outline>
</glyph>
<glyph name="Aogonek" format="1">
  <advance width="592"/>
  <unicode hex="0104"/>
  <outline>
    <contour>
      <point x="368" y="718" type="line"/>
      <point x="576" y="0" type="line"/>
      <point x="576" y="-4" type="line"/>
      <point x="523" y="-42"/>
      <point x="495" y="-85"/>
      <point x="495" y="-125" type="curve" smooth="yes"/>
      <point x="495" y="-150"/>
      <point x="512" y="-171"/>
      <point x="532" y="-171" type="curve" smooth="yes"/>
      <point x="547" y="-171"/>
      <point x="569" y="-165"/>
      <point x="594" y="-155" type="curve"/>
      <point x="609" y="-204" type="line"/>
      <point x="568" y="-222"/>
      <point x="548" y="-228"/>
      <point x="521" y="-228" type="curve" smooth="yes"/>
      <point x="460" y="-228"/>
      <point x="418" y="-189"/>
      <point x="418" y="-132" type="curve" smooth="yes"/>
      <point x="418" y="-92"/>
      <point x="436" y="-52"/>
      <point x="467" y="-26" type="curve"/>
      <point x="476" y="-17"/>
      <point x="483" y="-13"/>
      <point x="507" y="0" type="curve"/>
      <point x="442" y="0" type="line"/>
      <point x="404" y="148" type="line"/>
      <point x="187" y="148" type="line"/>
      <point x="146" y="0" type="line"/>
      <point x="16" y="0" type="line"/>
      <point x="226" y="718" type="line"/>
    </contour>
    <contour>
      <point x="296" y="559" type="line"/>
      <point x="220" y="271" type="line"/>
      <point x="370" y="271" type="line"/>
    </contour>
  </outline>
</glyph>
<glyph name="ccircumflex" format="1">
  <advance width="456"/>
  <unicode hex="0109"/>
  <outline>
    <contour>
      <point x="340" y="778" type="line"/>
      <point x="433" y="632" type="line"/>
      <point x="340" y="632" type="line"/>
      <point x="288" y="714" type="line"/>
      <point x="237" y="632" type="line"/>
      <point x="144" y="632" type="line"/>
      <point x="237" y="778" type="line"/>
    </contour>
    <contour>
      <point x="313" y="194" type="curve"/>
      <point x="429" y="194" type="line"/>
      <point x="412" y="59"/>
      <point x="342" y="-14"/>
      <point x="229" y="-14" type="curve" smooth="yes"/>
      <point x="100" y="-14"/>
      <point x="28" y="84"/>
      <point x="28" y="259" type="curve" smooth="yes"/>
      <point x="28" y="439"/>
      <point x="105" y="546"/>
      <point x="235" y="546" type="curve" smooth="yes"/>
      <point x="307" y="546"/>
      <point x="368" y="512"/>
      <point x="401" y="452" type="curve" smooth="yes"/>
      <point x="418" y="421"/>
      <point x="425" y="395"/>
      <point x="430" y="342" type="curve"/>
      <point x="314" y="342" type="line"/>
      <point x="303" y="402"/>
      <point x="281" y="428"/>
      <point x="240" y="428" type="curve" smooth="yes"/>
      <point x="178" y="428"/>
      <point x="146" y="372"/>
      <point x="146" y="265" type="curve" smooth="yes"/>
      <point x="146" y="156"/>
      <point x="175" y="101"/>
      <point x="233" y="101" type="curve" smooth="yes"/>
      <point x="277" y="101"/>
      <point x="308" y="138"/>
    </contour>
  </outline>
</glyph>
<glyph name="Dcaron" format="1">
  <advance width="592"/>
  <unicode hex="010E"/>
  <outline>
    <contour>
      <point x="62" y="0" type="line"/>
      <point x="62" y="718" type="line"/>
      <point x="322" y="718" type="line" smooth="yes"/>
      <point x="474" y="718"/>
      <point x="562" y="592"/>
      <point x="562" y="374" type="curve" smooth="yes"/>
      <point x="562" y="250"/>
      <point x="532" y="144"/>
      <point x="478" y="75" type="curve"/>
      <point x="439" y="27"/>
      <point x="382" y="0"/>
      <point x="317" y="0" type="curve" smooth="yes"/>
    </contour>
    <contour>
      <point x="182" y="595" type="line"/>
      <point x="182" y="123" type="line"/>
      <point x="302" y="123" type="line" smooth="yes"/>
      <point x="387" y="123"/>
      <point x="437" y="214"/>
      <point x="437" y="370" type="curve" smooth="yes"/>
      <point x="437" y="455"/>
      <point x="421" y="520"/>
      <point x="391" y="557" type="curve" smooth="yes"/>
      <point x="370" y="582"/>
      <point x="340" y="595"/>
      <point x="300" y="595" type="curve" smooth="yes"/>
    </contour>
    <contour>
      <point x="441" y="936" type="line"/>
      <point x="348" y="790" type="line"/>
      <point x="245" y="790" type="line"/>
      <point x="152" y="936" type="line"/>
      <point x="245" y="936" type="line"/>
      <point x="296" y="854" type="line"/>
      <point x="348" y="936" type="line"/>
    </contour>
  </outline>
</glyph>
<glyph name="dcaron" format="1">
  <advance width="561"/>
  <unicode hex="010F"/>
  <outline>
    <contour>
      <point x="452" y="718" type="line"/>
      <point x="452" y="0" type="line"/>
      <point x="340" y="0" type="line"/>
      <point x="340" y="70" type="line"/>
      <point x="312" y="13"/>
      <point x="271" y="-14"/>
      <point x="212" y="-14" type="curve" smooth="yes"/>
      <point x="100" y="-14"/>
      <point x="28" y="98"/>
      <point x="28" y="272" type="curve" smooth="yes"/>
      <point x="28" y="437"/>
      <point x="101" y="546"/>
      <point x="211" y="546" type="curve" smooth="yes"/>
      <point x="267" y="546"/>
      <point x="303" y="522"/>
      <point x="338" y="460" type="curve"/>
      <point x="338" y="718" type="line"/>
    </contour>
    <contour>
      <point x="246" y="424" type="curve" smooth="yes"/>
      <point x="183" y="424"/>
      <point x="146" y="365"/>
      <point x="146" y="264" type="curve" smooth="yes"/>
      <point x="146" y="164"/>
      <point x="183" y="101"/>
      <point x="242" y="101" type="curve" smooth="yes"/>
      <point x="306" y="101"/>
      <point x="342" y="159"/>
      <point x="342" y="260" type="curve" smooth="yes"/>
      <point x="342" y="364"/>
      <point x="307" y="424"/>
    </contour>
    <contour>
      <point x="473" y="718" type="line"/>
      <point x="581" y="718" type="line"/>
      <point x="581" y="615" type="line" smooth="yes"/>
      <point x="581" y="566"/>
      <point x="569" y="530"/>
      <point x="544" y="505" type="curve" smooth="yes"/>
      <point x="525" y="486"/>
      <point x="497" y="472"/>
      <point x="473" y="471" type="curve"/>
      <point x="473" y="517" type="line"/>
      <point x="513" y="525"/>
      <point x="538" y="558"/>
      <point x="536" y="600" type="curve"/>
      <point x="536" y="606" type="line"/>
      <point x="473" y="606" type="line"/>
    </contour>
  </outline>
</glyph>
<glyph name="Dcroat" format="1">
  <advance width="592"/>
  <unicode hex="0110"/>
  <outline>
    <contour>
      <point x="62" y="317" type="line"/>
      <point x="-4" y="317" type="line"/>
      <point x="-4" y="440" type="line"/>
      <point x="62" y="440" type="line"/>
      <point x="62" y="718" type="line"/>
      <point x="322" y="718" type="line" smooth="yes"/>
      <point x="474" y="718"/>
      <point x="562" y="592"/>
      <point x="562" y="375" type="curve" smooth="yes"/>
      <point x="562" y="250"/>
      <point x="532" y="144"/>
      <point x="478" y="75" type="curve" smooth="yes"/>
      <point x="440" y="26"/>
      <point x="383" y="0"/>
      <point x="317" y="0" type="curve" smooth="yes"/>
      <point x="62" y="0" type="line"/>
    </contour>
    <contour>
      <point x="182" y="595" type="line"/>
      <point x="182" y="440" type="line"/>
      <point x="319" y="440" type="line"/>
      <point x="319" y="317" type="line"/>
      <point x="182" y="317" type="line"/>
      <point x="182" y="123" type="line"/>
      <point x="303" y="123" type="line" smooth="yes"/>
      <point x="387" y="123"/>
      <point x="437" y="214"/>
      <point x="437" y="369" type="curve" smooth="yes"/>
      <point x="437" y="522"/>
      <point x="393" y="595"/>
      <point x="301" y="595" type="curve" smooth="yes"/>
    </contour>
  </outline>
</glyph>
<glyph name="dcroat" format="1">
  <advance width="501"/>
  <unicode hex="0111"/>
  <outline>
    <contour>
      <point x="452" y="663" type="line"/>
      <point x="501" y="663" type="line"/>
      <point x="501" y="596" type="line"/>
      <point x="452" y="596" type="line"/>
      <point x="452" y="0" type="line"/>
      <point x="340" y="0" type="line"/>
      <point x="340" y="70" type="line"/>
      <point x="312" y="13"/>
      <point x="271" y="-14"/>
      <point x="212" y="-14" type="curve" smooth="yes"/>
      <point x="100" y="-14"/>
      <point x="28" y="98"/>
      <point x="28" y="272" type="curve" smooth="yes"/>
      <point x="28" y="437"/>
      <point x="101" y="546"/>
      <point x="211" y="546" type="curve" smooth="yes"/>
      <point x="267" y="546"/>
      <point x="303" y="521"/>
      <point x="338" y="460" type="curve"/>
      <point x="338" y="596" type="line"/>
      <point x="219" y="596" type="line"/>
      <point x="219" y="663" type="line"/>
      <point x="338" y="663" type="line"/>
      <point x="338" y="718" type="line"/>
      <point x="452" y="718" type="line"/>
    </contour>
    <contour>
      <point x="246" y="424" type="curve" smooth="yes"/>
      <point x="183" y="424"/>
      <point x="146" y="365"/>
      <point x="146" y="264" type="curve" smooth="yes"/>
      <point x="146" y="164"/>
      <point x="183" y="101"/>
      <point x="242" y="101" type="curve" smooth="yes"/>
      <point x="306" y="101"/>
      <point x="342" y="159"/>
      <point x="342" y="260" type="curve" smooth="yes"/>
      <point x="342" y="364"/>
      <point x="307" y="424"/>
    </contour>
  </outline>
</glyph>
<glyph name="Emacron" format="1">
  <advance width="547"/>
  <unicode hex="0112"/>
  <outline>
    <contour>
      <point x="495" y="718" type="line"/>
      <point x="495" y="591" type="line"/>
      <point x="182" y="591" type="line"/>
      <point x="182" y="440" type="line"/>
      <point x="470" y="440" type="line"/>
      <point x="470" y="313" type="line"/>
      <point x="182" y="313" type="line"/>
      <point x="182" y="127" type="line"/>
      <point x="509" y="127" type="line"/>
      <point x="509" y="0" type="line"/>
      <point x="62" y="0" type="line"/>
      <point x="62" y="718" type="line"/>
    </contour>
    <contour>
      <point x="415" y="864" type="line"/>
      <point x="415" y="791" type="line"/>
      <point x="132" y="791" type="line"/>
      <point x="132" y="864" type="line"/>
    </contour>
  </outline>
</glyph>
<glyph name="Ebreve" format="1">
  <advance width="547"/>
  <unicode hex="0114"/>
  <outline>
    <contour>
      <point x="364" y="964" type="curve"/>
      <point x="417" y="964" type="line"/>
      <point x="407" y="867"/>
      <point x="358" y="818"/>
      <point x="274" y="818" type="curve" smooth="yes"/>
      <point x="194" y="818"/>
      <point x="149" y="866"/>
      <point x="140" y="964" type="curve"/>
      <point x="194" y="964" type="line"/>
      <point x="203" y="913"/>
      <point x="225" y="895"/>
      <point x="279" y="895" type="curve" smooth="yes"/>
      <point x="332" y="895"/>
      <point x="353" y="912"/>
    </contour>
    <contour>
      <point x="495" y="718" type="line"/>
      <point x="495" y="591" type="line"/>
      <point x="182" y="591" type="line"/>
      <point x="182" y="440" type="line"/>
      <point x="470" y="440" type="line"/>
      <point x="470" y="313" type="line"/>
      <point x="182" y="313" type="line"/>
      <point x="182" y="127" type="line"/>
      <point x="509" y="127" type="line"/>
      <point x="509" y="0" type="line"/>
      <point x="62" y="0" type="line"/>
      <point x="62" y="718" type="line"/>
    </contour>
  </outline>
</glyph>
<glyph name="Edotaccent" format="1">
  <advance width="547"/>
  <unicode hex="0116"/>
  <outline>
    <contour>
      <point x="495" y="718" type="line"/>
      <point x="495" y="591" type="line"/>
      <point x="182" y="591" type="line"/>
      <point x="182" y="440" type="line"/>
      <point x="470" y="440" type="line"/>
      <point x="470" y="313" type="line"/>
      <point x="182" y="313" type="line"/>
      <point x="182" y="127" type="line"/>
      <point x="509" y="127" type="line"/>
      <point x="509" y="0" type="line"/>
      <point x="62" y="0" type="line"/>
      <point x="62" y="718" type="line"/>
    </contour>
    <contour>
      <point x="326" y="915" type="line"/>
      <point x="326" y="800" type="line"/>
      <point x="222" y="800" type="line"/>
      <point x="222" y="915" type="line"/>
    </contour>
  </outline>
</glyph>
<glyph name="Eogonek" format="1">
  <advance width="547"/>
  <unicode hex="0118"/>
  <outline>
    <contour>
      <point x="495" y="718" type="line"/>
      <point x="495" y="591" type="line"/>
      <point x="182" y="591" type="line"/>
      <point x="182" y="440" type="line"/>
      <point x="470" y="440" type="line"/>
      <point x="470" y="313" type="line"/>
      <point x="182" y="313" type="line"/>
      <point x="182" y="127" type="line"/>
      <point x="509" y="127" type="line"/>
      <point x="509" y="-4" type="line"/>
      <point x="456" y="-42"/>
      <point x="428" y="-85"/>
      <point x="428" y="-125" type="curve" smooth="yes"/>
      <point x="428" y="-150"/>
      <point x="445" y="-171"/>
      <point x="465" y="-171" type="curve" smooth="yes"/>
      <point x="480" y="-171"/>
      <point x="502" y="-165"/>
      <point x="527" y="-155" type="curve"/>
      <point x="542" y="-204" type="line"/>
      <point x="501" y="-222"/>
      <point x="481" y="-228"/>
      <point x="454" y="-228" type="curve" smooth="yes"/>
      <point x="393" y="-228"/>
      <point x="351" y="-189"/>
      <point x="351" y="-132" type="curve" smooth="yes"/>
      <point x="351" y="-92"/>
      <point x="369" y="-52"/>
      <point x="400" y="-26" type="curve"/>
      <point x="409" y="-17"/>
      <point x="416" y="-13"/>
      <point x="440" y="0" type="curve"/>
      <point x="62" y="0" type="line"/>
      <point x="62" y="718" type="line"/>
    </contour>
  </outline>
</glyph>
<glyph name="gcircumflex" format="1">
  <advance width="501"/>
  <unicode hex="011D"/>
  <outline>
    <contour>
      <point x="354" y="778" type="line"/>
      <point x="447" y="632" type="line"/>
      <point x="354" y="632" type="line"/>
      <point x="302" y="714" type="line"/>
      <point x="251" y="632" type="line"/>
      <point x="158" y="632" type="line"/>
      <point x="251" y="778" type="line"/>
    </contour>
    <contour>
      <point x="343" y="532" type="line"/>
      <point x="453" y="532" type="line"/>
      <point x="453" y="28" type="line" smooth="yes"/>
      <point x="453" y="-59"/>
      <point x="439" y="-113"/>
      <point x="408" y="-151" type="curve" smooth="yes"/>
      <point x="373" y="-194"/>
      <point x="313" y="-217"/>
      <point x="240" y="-217" type="curve" smooth="yes"/>
      <point x="170" y="-217"/>
      <point x="115" y="-196"/>
      <point x="80" y="-156" type="curve" smooth="yes"/>
      <point x="57" y="-130"/>
      <point x="49" y="-108"/>
      <point x="42" y="-57" type="curve"/>
      <point x="167" y="-57" type="line"/>
      <point x="170" y="-72"/>
      <point x="172" y="-78"/>
      <point x="177" y="-85" type="curve" smooth="yes"/>
      <point x="187" y="-101"/>
      <point x="211" y="-110"/>
      <point x="243" y="-110" type="curve" smooth="yes"/>
      <point x="310" y="-110"/>
      <point x="338" y="-74"/>
      <point x="338" y="11" type="curve" smooth="yes"/>
      <point x="338" y="80" type="line"/>
      <point x="308" y="18"/>
      <point x="278" y="-3"/>
      <point x="220" y="-3" type="curve" smooth="yes"/>
      <point x="105" y="-3"/>
      <point x="33" y="102"/>
      <point x="33" y="271" type="curve" smooth="yes"/>
      <point x="33" y="437"/>
      <point x="105" y="546"/>
      <point x="215" y="546" type="curve" smooth="yes"/>
      <point x="275" y="546"/>
      <point x="313" y="518"/>
      <point x="343" y="450" type="curve"/>
    </contour>
    <contour>
      <point x="243" y="424" type="curve" smooth="yes"/>
      <point x="186" y="424"/>
      <point x="151" y="364"/>
      <point x="151" y="267" type="curve" smooth="yes"/>
      <point x="151" y="172"/>
      <point x="185" y="115"/>
      <point x="243" y="115" type="curve" smooth="yes"/>
      <point x="304" y="115"/>
      <point x="339" y="171"/>
      <point x="339" y="267" type="curve" smooth="yes"/>
      <point x="339" y="360"/>
      <point x="300" y="424"/>
    </contour>
  </outline>
</glyph>
<glyph name="gbreve" format="1">
  <advance width="501"/>
  <unicode hex="011F"/>
  <outline>
    <contour>
      <point x="343" y="532" type="line"/>
      <point x="453" y="532" type="line"/>
      <point x="453" y="28" type="line" smooth="yes"/>
      <point x="453" y="-59"/>
      <point x="439" y="-113"/>
      <point x="408" y="-151" type="curve" smooth="yes"/>
      <point x="373" y="-194"/>
      <point x="313" y="-217"/>
      <point x="240" y="-217" type="curve" smooth="yes"/>
      <point x="170" y="-217"/>
      <point x="115" y="-196"/>
      <point x="80" y="-156" type="curve" smooth="yes"/>
      <point x="57" y="-130"/>
      <point x="49" y="-108"/>
      <point x="42" y="-57" type="curve"/>
      <point x="167" y="-57" type="line"/>
      <point x="170" y="-72"/>
      <point x="172" y="-78"/>
      <point x="177" y="-85" type="curve" smooth="yes"/>
      <point x="187" y="-101"/>
      <point x="211" y="-110"/>
      <point x="243" y="-110" type="curve" smooth="yes"/>
      <point x="310" y="-110"/>
      <point x="338" y="-74"/>
      <point x="338" y="11" type="curve" smooth="yes"/>
      <point x="338" y="80" type="line"/>
      <point x="308" y="18"/>
      <point x="278" y="-3"/>
      <point x="220" y="-3" type="curve" smooth="yes"/>
      <point x="105" y="-3"/>
      <point x="33" y="102"/>
      <point x="33" y="271" type="curve" smooth="yes"/>
      <point x="33" y="437"/>
      <point x="105" y="546"/>
      <point x="215" y="546" type="curve" smooth="yes"/>
      <point x="275" y="546"/>
      <point x="313" y="518"/>
      <point x="343" y="450" type="curve"/>
    </contour>
    <contour>
      <point x="243" y="424" type="curve" smooth="yes"/>
      <point x="186" y="424"/>
      <point x="151" y="364"/>
      <point x="151" y="267" type="curve" smooth="yes"/>
      <point x="151" y="172"/>
      <point x="185" y="115"/>
      <point x="243" y="115" type="curve" smooth="yes"/>
      <point x="304" y="115"/>
      <point x="339" y="171"/>
      <point x="339" y="267" type="curve" smooth="yes"/>
      <point x="339" y="360"/>
      <point x="300" y="424"/>
    </contour>
    <contour>
      <point x="336" y="750" type="curve"/>
      <point x="389" y="750" type="line"/>
      <point x="379" y="653"/>
      <point x="330" y="604"/>
      <point x="246" y="604" type="curve" smooth="yes"/>
      <point x="166" y="604"/>
      <point x="121" y="652"/>
      <point x="112" y="750" type="curve"/>
      <point x="166" y="750" type="line"/>
      <point x="175" y="699"/>
      <point x="197" y="681"/>
      <point x="251" y="681" type="curve" smooth="yes"/>
      <point x="304" y="681"/>
      <point x="325" y="698"/>
    </contour>
  </outline>
</glyph>
<glyph name="Gcommaaccent" format="1">
  <advance width="638"/>
  <unicode hex="0122"/>
  <outline>
    <contour>
      <point x="338" y="265" type="line"/>
      <point x="338" y="387" type="line"/>
      <point x="585" y="387" type="line"/>
      <point x="585" y="0" type="line"/>
      <point x="503" y="0" type="line"/>
      <point x="490" y="90" type="line"/>
      <point x="466" y="56"/>
      <point x="454" y="42"/>
      <point x="436" y="27" type="curve" smooth="yes"/>
      <point x="401" y="-4"/>
      <point x="357" y="-19"/>
      <point x="306" y="-19" type="curve" smooth="yes"/>
      <point x="145" y="-19"/>
      <point x="36" y="131"/>
      <point x="36" y="354" type="curve" smooth="yes"/>
      <point x="36" y="588"/>
      <point x="148" y="737"/>
      <point x="324" y="737" type="curve" smooth="yes"/>
      <point x="422" y="737"/>
      <point x="501" y="693"/>
      <point x="547" y="612" type="curve" smooth="yes"/>
      <point x="568" y="575"/>
      <point x="576" y="547"/>
      <point x="583" y="495" type="curve"/>
      <point x="459" y="495" type="line"/>
      <point x="447" y="565"/>
      <point x="392" y="614"/>
      <point x="327" y="614" type="curve" smooth="yes"/>
      <point x="225" y="614"/>
      <point x="161" y="514"/>
      <point x="161" y="354" type="curve" smooth="yes"/>
      <point x="161" y="198"/>
      <point x="222" y="108"/>
      <point x="327" y="108" type="curve" smooth="yes"/>
      <point x="365" y="108"/>
      <point x="398" y="122"/>
      <point x="425" y="151" type="curve" smooth="yes"/>
      <point x="450" y="178"/>
      <point x="462" y="205"/>
      <point x="476" y="265" type="curve"/>
    </contour>
    <contour>
      <point x="265" y="-60" type="line"/>
      <point x="373" y="-60" type="line"/>
      <point x="373" y="-163" type="line" smooth="yes"/>
      <point x="373" y="-212"/>
      <point x="361" y="-248"/>
      <point x="336" y="-273" type="curve" smooth="yes"/>
      <point x="317" y="-292"/>
      <point x="289" y="-306"/>
      <point x="265" y="-307" type="curve"/>
      <point x="265" y="-261" type="line"/>
      <point x="305" y="-253"/>
      <point x="330" y="-220"/>
      <point x="328" y="-178" type="curve"/>
      <point x="328" y="-172" type="line"/>
      <point x="265" y="-172" type="line"/>
    </contour>
  </outline>
</glyph>
<glyph name="Hcircumflex" format="1">
  <advance width="592"/>
  <unicode hex="0124"/>
  <outline>
    <contour>
      <point x="348" y="964" type="line"/>
      <point x="441" y="818" type="line"/>
      <point x="348" y="818" type="line"/>
      <point x="296" y="900" type="line"/>
      <point x="245" y="818" type="line"/>
      <point x="152" y="818" type="line"/>
      <point x="245" y="964" type="line"/>
    </contour>
    <contour>
      <point x="411" y="323" type="line"/>
      <point x="181" y="323" type="line"/>
      <point x="181" y="0" type="line"/>
      <point x="58" y="0" type="line"/>
      <point x="58" y="718" type="line"/>
      <point x="181" y="718" type="line"/>
      <point x="181" y="446" type="line"/>
      <point x="411" y="446" type="line"/>
      <point x="411" y="718" type="line"/>
      <point x="534" y="718" type="line"/>
      <point x="534" y="0" type="line"/>
      <point x="411" y="0" type="line"/>
    </contour>
  </outline>
</glyph>
<glyph name="hcircumflex" format="1">
  <advance width="501"/>
  <unicode hex="0125"/>
  <outline>
    <contour>
      <point x="302" y="964" type="line"/>
      <point x="395" y="818" type="line"/>
      <point x="302" y="818" type="line"/>
      <point x="250" y="900" type="line"/>
      <point x="199" y="818" type="line"/>
      <point x="106" y="818" type="line"/>
      <point x="199" y="964" type="line"/>
    </contour>
    <contour>
      <point x="167" y="718" type="line"/>
      <point x="167" y="459" type="line"/>
      <point x="190" y="516"/>
      <point x="236" y="546"/>
      <point x="298" y="546" type="curve" smooth="yes"/>
      <point x="389" y="546"/>
      <point x="448" y="476"/>
      <point x="448" y="368" type="curve" smooth="yes"/>
      <point x="448" y="0" type="line"/>
      <point x="334" y="0" type="line"/>
      <point x="334" y="323" type="line" smooth="yes"/>
      <point x="334" y="397"/>
      <point x="312" y="428"/>
      <point x="260" y="428" type="curve" smooth="yes"/>
      <point x="203" y="428"/>
      <point x="167" y="381"/>
      <point x="167" y="305" type="curve" smooth="yes"/>
      <point x="167" y="0" type="line"/>
      <point x="53" y="0" type="line"/>
      <point x="53" y="718" type="line"/>
    </contour>
  </outline>
</glyph>
<glyph name="Hbar" format="1">
  <advance width="715"/>
  <unicode hex="0126"/>
  <outline>
    <contour>
      <point x="474" y="323" type="line"/>
      <point x="244" y="323" type="line"/>
      <point x="244" y="0" type="line"/>
      <point x="121" y="0" type="line"/>
      <point x="121" y="547" type="line"/>
      <point x="36" y="547" type="line"/>
      <point x="36" y="629" type="line"/>
      <point x="121" y="629" type="line"/>
      <point x="121" y="718" type="line"/>
      <point x="244" y="718" type="line"/>
      <point x="244" y="629" type="line"/>
      <point x="474" y="629" type="line"/>
      <point x="474" y="718" type="line"/>
      <point x="597" y="718" type="line"/>
      <point x="597" y="629" type="line"/>
      <point x="679" y="629" type="line"/>
      <point x="679" y="547" type="line"/>
      <point x="597" y="547" type="line"/>
      <point x="597" y="0" type="line"/>
      <point x="474" y="0" type="line"/>
    </contour>
    <contour>
      <point x="474" y="547" type="line"/>
      <point x="244" y="547" type="line"/>
      <point x="244" y="446" type="line"/>
      <point x="474" y="446" type="line"/>
    </contour>
  </outline>
</glyph>
<glyph name="hbar" format="1">
  <advance width="564"/>
  <unicode hex="0127"/>
  <outline>
    <contour>
      <point x="116" y="649" type="line"/>
      <point x="116" y="718" type="line"/>
      <point x="230" y="718" type="line"/>
      <point x="230" y="649" type="line"/>
      <point x="359" y="649" type="line"/>
      <point x="359" y="567" type="line"/>
      <point x="230" y="567" type="line"/>
      <point x="230" y="459" type="line"/>
      <point x="253" y="516"/>
      <point x="299" y="546"/>
      <point x="361" y="546" type="curve" smooth="yes"/>
      <point x="452" y="546"/>
      <point x="511" y="476"/>
      <point x="511" y="368" type="curve" smooth="yes"/>
      <point x="511" y="0" type="line"/>
      <point x="397" y="0" type="line"/>
      <point x="397" y="323" type="line" smooth="yes"/>
      <point x="397" y="397"/>
      <point x="375" y="428"/>
      <point x="323" y="428" type="curve" smooth="yes"/>
      <point x="266" y="428"/>
      <point x="230" y="381"/>
      <point x="230" y="305" type="curve" smooth="yes"/>
      <point x="230" y="0" type="line"/>
      <point x="116" y="0" type="line"/>
      <point x="116" y="567" type="line"/>
      <point x="36" y="567" type="line"/>
      <point x="36" y="649" type="line"/>
    </contour>
  </outline>
</glyph>
<glyph name="Itilde" format="1">
  <advance width="228"/>
  <unicode hex="0128"/>
  <outline>
    <contour>
      <point x="211" y="945" type="curve"/>
      <point x="264" y="945" type="line"/>
      <point x="251" y="865"/>
      <point x="221" y="825"/>
      <point x="176" y="825" type="curve" smooth="yes"/>
      <point x="158" y="825"/>
      <point x="127" y="834"/>
      <point x="91" y="849" type="curve"/>
      <point x="73" y="858"/>
      <point x="61" y="861"/>
      <point x="53" y="861" type="curve" smooth="yes"/>
      <point x="34" y="861"/>
      <point x="21" y="846"/>
      <point x="15" y="818" type="curve"/>
      <point x="-37" y="818" type="line"/>
      <point x="-23" y="902"/>
      <point x="9" y="941"/>
      <point x="62" y="941" type="curve" smooth="yes"/>
      <point x="78" y="941"/>
      <point x="87" y="938"/>
      <point x="121" y="922" type="curve" smooth="yes"/>
      <point x="150" y="909"/>
      <point x="161" y="905"/>
      <point x="172" y="905" type="curve" smooth="yes"/>
      <point x="193" y="905"/>
      <point x="204" y="917"/>
    </contour>
    <contour>
      <point x="175" y="718" type="line"/>
      <point x="175" y="0" type="line"/>
      <point x="52" y="0" type="line"/>
      <point x="52" y="718" type="line"/>
    </contour>
  </outline>
</glyph>
<glyph name="itilde" format="1">
  <advance width="228"/>
  <unicode hex="0129"/>
  <outline>
    <contour>
      <point x="212" y="759" type="curve"/>
      <point x="265" y="759" type="line"/>
      <point x="252" y="679"/>
      <point x="222" y="639"/>
      <point x="177" y="639" type="curve" smooth="yes"/>
      <point x="159" y="639"/>
      <point x="128" y="648"/>
      <point x="92" y="663" type="curve"/>
      <point x="74" y="672"/>
      <point x="62" y="675"/>
      <point x="54" y="675" type="curve" smooth="yes"/>
      <point x="35" y="675"/>
      <point x="22" y="660"/>
      <point x="16" y="632" type="curve"/>
      <point x="-36" y="632" type="line"/>
      <point x="-22" y="716"/>
      <point x="10" y="755"/>
      <point x="63" y="755" type="curve" smooth="yes"/>
      <point x="79" y="755"/>
      <point x="88" y="752"/>
      <point x="122" y="736" type="curve" smooth="yes"/>
      <point x="151" y="723"/>
      <point x="162" y="719"/>
      <point x="173" y="719" type="curve" smooth="yes"/>
      <point x="194" y="719"/>
      <point x="205" y="731"/>
    </contour>
    <contour>
      <point x="57" y="532" type="line"/>
      <point x="171" y="532" type="line"/>
      <point x="171" y="0" type="line"/>
      <point x="57" y="0" type="line"/>
    </contour>
  </outline>
</glyph>
<glyph name="Imacron" format="1">
  <advance width="228"/>
  <unicode hex="012A"/>
  <outline>
    <contour>
      <point x="175" y="718" type="line"/>
      <point x="175" y="0" type="line"/>
      <point x="52" y="0" type="line"/>
      <point x="52" y="718" type="line"/>
    </contour>
    <contour>
      <point x="255" y="864" type="line"/>
      <point x="255" y="791" type="line"/>
      <point x="-28" y="791" type="line"/>
      <point x="-28" y="864" type="line"/>
    </contour>
  </outline>
</glyph>
<glyph name="Ibreve" format="1">
  <advance width="228"/>
  <unicode hex="012C"/>
  <outline>
    <contour>
      <point x="199" y="964" type="curve"/>
      <point x="252" y="964" type="line"/>
      <point x="242" y="867"/>
      <point x="193" y="818"/>
      <point x="109" y="818" type="curve" smooth="yes"/>
      <point x="29" y="818"/>
      <point x="-16" y="866"/>
      <point x="-25" y="964" type="curve"/>
      <point x="29" y="964" type="line"/>
      <point x="38" y="913"/>
      <point x="60" y="895"/>
      <point x="114" y="895" type="curve" smooth="yes"/>
      <point x="167" y="895"/>
      <point x="188" y="912"/>
    </contour>
    <contour>
      <point x="175" y="718" type="line"/>
      <point x="175" y="0" type="line"/>
      <point x="52" y="0" type="line"/>
      <point x="52" y="718" type="line"/>
    </contour>
  </outline>
</glyph>
<glyph name="ibreve" format="1">
  <advance width="228"/>
  <unicode hex="012D"/>
  <outline>
    <contour>
      <point x="200" y="778" type="curve"/>
      <point x="253" y="778" type="line"/>
      <point x="243" y="681"/>
      <point x="194" y="632"/>
      <point x="110" y="632" type="curve" smooth="yes"/>
      <point x="30" y="632"/>
      <point x="-15" y="680"/>
      <point x="-24" y="778" type="curve"/>
      <point x="30" y="778" type="line"/>
      <point x="39" y="727"/>
      <point x="61" y="709"/>
      <point x="115" y="709" type="curve" smooth="yes"/>
      <point x="168" y="709"/>
      <point x="189" y="726"/>
    </contour>
    <contour>
      <point x="57" y="532" type="line"/>
      <point x="171" y="532" type="line"/>
      <point x="171" y="0" type="line"/>
      <point x="57" y="0" type="line"/>
    </contour>
  </outline>
</glyph>
<glyph name="Iogonek" format="1">
  <advance width="228"/>
  <unicode hex="012E"/>
  <outline>
    <contour>
      <point x="175" y="718" type="line"/>
      <point x="175" y="-4" type="line"/>
      <point x="122" y="-42"/>
      <point x="94" y="-85"/>
      <point x="94" y="-125" type="curve" smooth="yes"/>
      <point x="94" y="-150"/>
      <point x="111" y="-171"/>
      <point x="131" y="-171" type="curve" smooth="yes"/>
      <point x="146" y="-171"/>
      <point x="168" y="-165"/>
      <point x="193" y="-155" type="curve"/>
      <point x="208" y="-204" type="line"/>
      <point x="167" y="-222"/>
      <point x="147" y="-228"/>
      <point x="120" y="-228" type="curve" smooth="yes"/>
      <point x="59" y="-228"/>
      <point x="17" y="-189"/>
      <point x="17" y="-132" type="curve" smooth="yes"/>
      <point x="17" y="-92"/>
      <point x="35" y="-52"/>
      <point x="66" y="-26" type="curve"/>
      <point x="75" y="-17"/>
      <point x="82" y="-13"/>
      <point x="106" y="0" type="curve"/>
      <point x="52" y="0" type="line"/>
      <point x="52" y="718" type="line"/>
    </contour>
  </outline>
</glyph>
<glyph name="iogonek" format="1">
  <advance width="228"/>
  <unicode hex="012F"/>
  <outline>
    <contour>
      <point x="171" y="532" type="line"/>
      <point x="171" y="-4" type="line"/>
      <point x="118" y="-42"/>
      <point x="90" y="-85"/>
      <point x="90" y="-125" type="curve" smooth="yes"/>
      <point x="90" y="-150"/>
      <point x="107" y="-171"/>
      <point x="127" y="-171" type="curve" smooth="yes"/>
      <point x="142" y="-171"/>
      <point x="164" y="-165"/>
      <point x="189" y="-155" type="curve"/>
      <point x="204" y="-204" type="line"/>
      <point x="163" y="-222"/>
      <point x="143" y="-228"/>
      <point x="116" y="-228" type="curve" smooth="yes"/>
      <point x="55" y="-228"/>
      <point x="13" y="-189"/>
      <point x="13" y="-132" type="curve" smooth="yes"/>
      <point x="13" y="-92"/>
      <point x="31" y="-52"/>
      <point x="62" y="-26" type="curve"/>
      <point x="71" y="-17"/>
      <point x="78" y="-13"/>
      <point x="102" y="0" type="curve"/>
      <point x="57" y="0" type="line"/>
      <point x="57" y="532" type="line"/>
    </contour>
    <contour>
      <point x="171" y="725" type="line"/>
      <point x="171" y="595" type="line"/>
      <point x="57" y="595" type="line"/>
      <point x="57" y="725" type="line"/>
    </contour>
  </outline>
</glyph>
<glyph name="IJ" format="1">
  <advance width="648"/>
  <unicode hex="0132"/>
  <outline>
    <contour>
      <point x="597" y="718" type="line"/>
      <point x="597" y="208" type="line" smooth="yes"/>
      <point x="597" y="56"/>
      <point x="535" y="-18"/>
      <point x="407" y="-18" type="curve" smooth="yes"/>
      <point x="329" y="-18"/>
      <point x="273" y="12"/>
      <point x="245" y="70" type="curve"/>
      <point x="224" y="111"/>
      <point x="218" y="160"/>
      <point x="218" y="271" type="curve"/>
      <point x="333" y="271" type="line"/>
      <point x="334" y="135"/>
      <point x="347" y="104"/>
      <point x="405" y="104" type="curve" smooth="yes"/>
      <point x="456" y="104"/>
      <point x="474" y="131"/>
      <point x="474" y="208" type="curve" smooth="yes"/>
      <point x="474" y="718" type="line"/>
    </contour>
    <contour>
      <point x="175" y="718" type="line"/>
      <point x="175" y="0" type="line"/>
      <point x="52" y="0" type="line"/>
      <point x="52" y="718" type="line"/>
    </contour>
  </outline>
</glyph>
<glyph name="ij" format="1">
  <advance width="398"/>
  <unicode hex="0133"/>
  <outline>
    <contour>
      <point x="345" y="532" type="line"/>
      <point x="345" y="-56" type="line" smooth="yes"/>
      <point x="345" y="-175"/>
      <point x="311" y="-214"/>
      <point x="206" y="-214" type="curve" smooth="yes"/>
      <point x="176" y="-214" type="line"/>
      <point x="176" y="-102" type="line"/>
      <point x="197" y="-102" type="line" smooth="yes"/>
      <point x="221" y="-102"/>
      <point x="231" y="-88"/>
      <point x="231" y="-53" type="curve" smooth="yes"/>
      <point x="231" y="532" type="line"/>
    </contour>
    <contour>
      <point x="345" y="725" type="line"/>
      <point x="345" y="595" type="line"/>
      <point x="231" y="595" type="line"/>
      <point x="231" y="725" type="line"/>
    </contour>
    <contour>
      <point x="57" y="532" type="line"/>
      <point x="171" y="532" type="line"/>
      <point x="171" y="0" type="line"/>
      <point x="57" y="0" type="line"/>
    </contour>
    <contour>
      <point x="171" y="725" type="line"/>
      <point x="171" y="595" type="line"/>
      <point x="57" y="595" type="line"/>
      <point x="57" y="725" type="line"/>
    </contour>
  </outline>
</glyph>
<glyph name="jcircumflex" format="1">
  <advance width="228"/>
  <unicode hex="0135"/>
  <outline>
    <contour>
      <point x="171" y="532" type="line"/>
      <point x="171" y="-56" type="line" smooth="yes"/>
      <point x="171" y="-175"/>
      <point x="137" y="-214"/>
      <point x="32" y="-214" type="curve" smooth="yes"/>
      <point x="2" y="-214" type="line"/>
      <point x="2" y="-102" type="line"/>
      <point x="23" y="-102" type="line" smooth="yes"/>
      <point x="47" y="-102"/>
      <point x="57" y="-88"/>
      <point x="57" y="-53" type="curve" smooth="yes"/>
      <point x="57" y="532" type="line"/>
    </contour>
    <contour>
      <point x="188" y="750" type="line"/>
      <point x="281" y="604" type="line"/>
      <point x="188" y="604" type="line"/>
      <point x="136" y="686" type="line"/>
      <point x="85" y="604" type="line"/>
      <point x="-8" y="604" type="line"/>
      <point x="85" y="750" type="line"/>
    </contour>
  </outline>
</glyph>
<glyph name="kcommaaccent" format="1">
  <advance width="456"/>
  <unicode hex="0137"/>
  <outline>
    <contour>
      <point x="171" y="168" type="line"/>
      <point x="171" y="0" type="line"/>
      <point x="57" y="0" type="line"/>
      <point x="57" y="718" type="line"/>
      <point x="171" y="718" type="line"/>
      <point x="171" y="330" type="line"/>
      <point x="315" y="532" type="line"/>
      <point x="456" y="532" type="line"/>
      <point x="302" y="326" type="line"/>
      <point x="461" y="0" type="line"/>
      <point x="323" y="0" type="line"/>
      <point x="219" y="228" type="line"/>
    </contour>
    <contour>
      <point x="174" y="-60" type="line"/>
      <point x="282" y="-60" type="line"/>
      <point x="282" y="-163" type="line" smooth="yes"/>
      <point x="282" y="-212"/>
      <point x="270" y="-248"/>
      <point x="245" y="-273" type="curve" smooth="yes"/>
      <point x="226" y="-292"/>
      <point x="198" y="-306"/>
      <point x="174" y="-307" type="curve"/>
      <point x="174" y="-261" type="line"/>
      <point x="214" y="-253"/>
      <point x="239" y="-220"/>
      <point x="237" y="-178" type="curve"/>
      <point x="237" y="-172" type="line"/>
      <point x="174" y="-172" type="line"/>
    </contour>
  </outline>
</glyph>
<glyph name="Lacute" format="1">
  <advance width="501"/>
  <unicode hex="0139"/>
  <outline>
    <contour>
      <point x="185" y="718" type="line"/>
      <point x="185" y="130" type="line"/>
      <point x="478" y="130" type="line"/>
      <point x="478" y="0" type="line"/>
      <point x="62" y="0" type="line"/>
      <point x="62" y="718" type="line"/>
    </contour>
    <contour>
      <point x="306" y="936" type="line"/>
      <point x="186" y="790" type="line"/>
      <point x="103" y="790" type="line"/>
      <point x="180" y="936" type="line"/>
    </contour>
  </outline>
</glyph>
<glyph name="lacute" format="1">
  <advance width="228"/>
  <unicode hex="013A"/>
  <outline>
    <contour>
      <point x="171" y="718" type="line"/>
      <point x="171" y="0" type="line"/>
      <point x="57" y="0" type="line"/>
      <point x="57" y="718" type="line"/>
    </contour>
    <contour>
      <point x="270" y="936" type="line"/>
      <point x="150" y="790" type="line"/>
      <point x="67" y="790" type="line"/>
      <point x="144" y="936" type="line"/>
    </contour>
  </outline>
</glyph>
<glyph name="lcommaaccent" format="1">
  <advance width="228"/>
  <unicode hex="013C"/>
  <outline>
    <contour>
      <point x="171" y="718" type="line"/>
      <point x="171" y="0" type="line"/>
      <point x="57" y="0" type="line"/>
      <point x="57" y="718" type="line"/>
    </contour>
    <contour>
      <point x="60" y="-60" type="line"/>
      <point x="168" y="-60" type="line"/>
      <point x="168" y="-163" type="line" smooth="yes"/>
      <point x="168" y="-212"/>
      <point x="156" y="-248"/>
      <point x="131" y="-273" type="curve" smooth="yes"/>
      <point x="112" y="-292"/>
      <point x="84" y="-306"/>
      <point x="60" y="-307" type="curve"/>
      <point x="60" y="-261" type="line"/>
      <point x="100" y="-253"/>
      <point x="125" y="-220"/>
      <point x="123" y="-178" type="curve"/>
      <point x="123" y="-172" type="line"/>
      <point x="60" y="-172" type="line"/>
    </contour>
  </outline>
</glyph>
<glyph name="Lcaron" format="1">
  <advance width="501"/>
  <unicode hex="013D"/>
  <outline>
    <contour>
      <point x="185" y="718" type="line"/>
      <point x="185" y="130" type="line"/>
      <point x="478" y="130" type="line"/>
      <point x="478" y="0" type="line"/>
      <point x="62" y="0" type="line"/>
      <point x="62" y="718" type="line"/>
    </contour>
    <contour>
      <point x="323" y="718" type="line"/>
      <point x="431" y="718" type="line"/>
      <point x="431" y="615" type="line" smooth="yes"/>
      <point x="431" y="566"/>
      <point x="419" y="530"/>
      <point x="394" y="505" type="curve" smooth="yes"/>
      <point x="375" y="486"/>
      <point x="347" y="472"/>
      <point x="323" y="471" type="curve"/>
      <point x="323" y="517" type="line"/>
      <point x="363" y="525"/>
      <point x="388" y="558"/>
      <point x="386" y="600" type="curve"/>
      <point x="386" y="606" type="line"/>
      <point x="323" y="606" type="line"/>
    </contour>
  </outline>
</glyph>
<glyph name="lcaron" format="1">
  <advance width="280"/>
  <unicode hex="013E"/>
  <outline>
    <contour>
      <point x="171" y="718" type="line"/>
      <point x="171" y="0" type="line"/>
      <point x="57" y="0" type="line"/>
      <point x="57" y="718" type="line"/>
    </contour>
    <contour>
      <point x="192" y="718" type="line"/>
      <point x="300" y="718" type="line"/>
      <point x="300" y="615" type="line" smooth="yes"/>
      <point x="300" y="566"/>
      <point x="288" y="530"/>
      <point x="263" y="505" type="curve" smooth="yes"/>
      <point x="244" y="486"/>
      <point x="216" y="472"/>
      <point x="192" y="471" type="curve"/>
      <point x="192" y="517" type="line"/>
      <point x="232" y="525"/>
      <point x="257" y="558"/>
      <point x="255" y="600" type="curve"/>
      <point x="255" y="606" type="line"/>
      <point x="192" y="606" type="line"/>
    </contour>
  </outline>
</glyph>
<glyph name="Ldot" format="1">
  <advance width="501"/>
  <unicode hex="013F"/>
  <outline>
    <contour>
      <point x="271" y="440" type="curve" smooth="yes"/>
      <point x="306" y="440"/>
      <point x="336" y="403"/>
      <point x="336" y="359" type="curve" smooth="yes"/>
      <point x="336" y="314"/>
      <point x="307" y="278"/>
      <point x="270" y="278" type="curve" smooth="yes"/>
      <point x="233" y="278"/>
      <point x="204" y="314"/>
      <point x="204" y="359" type="curve" smooth="yes"/>
      <point x="204" y="404"/>
      <point x="234" y="440"/>
    </contour>
    <contour>
      <point x="185" y="718" type="line"/>
      <point x="185" y="130" type="line"/>
      <point x="478" y="130" type="line"/>
      <point x="478" y="0" type="line"/>
      <point x="62" y="0" type="line"/>
      <point x="62" y="718" type="line"/>
    </contour>
  </outline>
</glyph>
<glyph name="ldot" format="1">
  <advance width="456"/>
  <unicode hex="0140"/>
  <outline>
    <contour>
      <point x="343" y="334" type="curve" smooth="yes"/>
      <point x="378" y="334"/>
      <point x="408" y="297"/>
      <point x="408" y="253" type="curve" smooth="yes"/>
      <point x="408" y="208"/>
      <point x="379" y="172"/>
      <point x="342" y="172" type="curve" smooth="yes"/>
      <point x="305" y="172"/>
      <point x="276" y="208"/>
      <point x="276" y="253" type="curve" smooth="yes"/>
      <point x="276" y="298"/>
      <point x="306" y="334"/>
    </contour>
    <contour>
      <point x="171" y="718" type="line"/>
      <point x="171" y="0" type="line"/>
      <point x="57" y="0" type="line"/>
      <point x="57" y="718" type="line"/>
    </contour>
  </outline>
</glyph>
<glyph name="Lslash" format="1">
  <advance width="501"/>
  <unicode hex="0141"/>
  <outline>
    <contour>
      <point x="290" y="459" type="line"/>
      <point x="186" y="386" type="line"/>
      <point x="186" y="130" type="line"/>
      <point x="478" y="130" type="line"/>
      <point x="478" y="0" type="line"/>
      <point x="63" y="0" type="line"/>
      <point x="63" y="311" type="line"/>
      <point x="-16" y="256" type="line"/>
      <point x="-16" y="334" type="line"/>
      <point x="63" y="389" type="line"/>
      <point x="63" y="718" type="line"/>
      <point x="186" y="718" type="line"/>
      <point x="186" y="464" type="line"/>
      <point x="290" y="537" type="line"/>
    </contour>
  </outline>
</glyph>
<glyph name="lslash" format="1">
  <advance width="228"/>
  <unicode hex="0142"/>
  <outline>
    <contour>
      <point x="243" y="523" type="line"/>
      <point x="243" y="445" type="line"/>
      <point x="170" y="395" type="line"/>
      <point x="170" y="0" type="line"/>
      <point x="56" y="0" type="line"/>
      <point x="56" y="324" type="line"/>
      <point x="-15" y="274" type="line"/>
      <point x="-15" y="352" type="line"/>
      <point x="56" y="402" type="line"/>
      <point x="56" y="718" type="line"/>
      <point x="170" y="718" type="line"/>
      <point x="170" y="473" type="line"/>
    </contour>
  </outline>
</glyph>
<glyph name="Ncommaaccent" format="1">
  <advance width="592"/>
  <unicode hex="0145"/>
  <outline>
    <contour>
      <point x="422" y="214" type="line"/>
      <point x="422" y="718" type="line"/>
      <point x="536" y="718" type="line"/>
      <point x="536" y="0" type="line"/>
      <point x="414" y="0" type="line"/>
      <point x="171" y="515" type="line"/>
      <point x="171" y="0" type="line"/>
      <point x="57" y="0" type="line"/>
      <point x="57" y="718" type="line"/>
      <point x="186" y="718" type="line"/>
    </contour>
    <contour>
      <point x="242" y="-60" type="line"/>
      <point x="350" y="-60" type="line"/>
      <point x="350" y="-163" type="line" smooth="yes"/>
      <point x="350" y="-212"/>
      <point x="338" y="-248"/>
      <point x="313" y="-273" type="curve" smooth="yes"/>
      <point x="294" y="-292"/>
      <point x="266" y="-306"/>
      <point x="242" y="-307" type="curve"/>
      <point x="242" y="-261" type="line"/>
      <point x="282" y="-253"/>
      <point x="307" y="-220"/>
      <point x="305" y="-178" type="curve"/>
      <point x="305" y="-172" type="line"/>
      <point x="242" y="-172" type="line"/>
    </contour>
  </outline>
</glyph>
<glyph name="ncaron" format="1">
  <advance width="501"/>
  <unicode hex="0148"/>
  <outline>
    <contour>
      <point x="163" y="532" type="line"/>
      <point x="163" y="451" type="line"/>
      <point x="194" y="517"/>
      <point x="235" y="546"/>
      <point x="297" y="546" type="curve" smooth="yes"/>
      <point x="389" y="546"/>
      <point x="448" y="477"/>
      <point x="448" y="368" type="curve" smooth="yes"/>
      <point x="448" y="0" type="line"/>
      <point x="334" y="0" type="line"/>
      <point x="334" y="323" type="line" smooth="yes"/>
      <point x="334" y="397"/>
      <point x="312" y="428"/>
      <point x="260" y="428" type="curve" smooth="yes"/>
      <point x="203" y="428"/>
      <point x="167" y="381"/>
      <point x="167" y="305" type="curve" smooth="yes"/>
      <point x="167" y="0" type="line"/>
      <point x="53" y="0" type="line"/>
      <point x="53" y="532" type="line"/>
    </contour>
    <contour>
      <point x="395" y="750" type="line"/>
      <point x="302" y="604" type="line"/>
      <point x="199" y="604" type="line"/>
      <point x="106" y="750" type="line"/>
      <point x="199" y="750" type="line"/>
      <point x="250" y="668" type="line"/>
      <point x="302" y="750" type="line"/>
    </contour>
  </outline>
</glyph>
<glyph name="napostrophe" format="1">
  <advance width="501"/>
  <unicode hex="0149"/>
  <outline>
    <contour>
      <point x="53" y="691" type="line"/>
      <point x="53" y="818" type="line"/>
      <point x="166" y="818" type="line"/>
      <point x="166" y="716" type="line" smooth="yes"/>
      <point x="166" y="655"/>
      <point x="152" y="610"/>
      <point x="120" y="579" type="curve" smooth="yes"/>
      <point x="104" y="563"/>
      <point x="89" y="555"/>
      <point x="55" y="545" type="curve"/>
      <point x="55" y="596" type="line"/>
      <point x="99" y="614"/>
      <point x="114" y="637"/>
      <point x="116" y="691" type="curve"/>
    </contour>
    <contour>
      <point x="163" y="532" type="line"/>
      <point x="163" y="451" type="line"/>
      <point x="194" y="517"/>
      <point x="235" y="546"/>
      <point x="297" y="546" type="curve" smooth="yes"/>
      <point x="389" y="546"/>
      <point x="448" y="477"/>
      <point x="448" y="368" type="curve" smooth="yes"/>
      <point x="448" y="0" type="line"/>
      <point x="334" y="0" type="line"/>
      <point x="334" y="323" type="line" smooth="yes"/>
      <point x="334" y="397"/>
      <point x="312" y="428"/>
      <point x="260" y="428" type="curve" smooth="yes"/>
      <point x="203" y="428"/>
      <point x="167" y="381"/>
      <point x="167" y="305" type="curve" smooth="yes"/>
      <point x="167" y="0" type="line"/>
      <point x="53" y="0" type="line"/>
      <point x="53" y="532" type="line"/>
    </contour>
  </outline>
</glyph>
<glyph name="Eng" format="1">
  <advance width="592"/>
  <unicode hex="014A"/>
  <outline>
    <contour>
      <point x="414" y="0" type="curve"/>
      <point x="171" y="515" type="line"/>
      <point x="171" y="0" type="line"/>
      <point x="57" y="0" type="line"/>
      <point x="57" y="718" type="line"/>
      <point x="186" y="718" type="line"/>
      <point x="422" y="214" type="line"/>
      <point x="422" y="718" type="line"/>
      <point x="536" y="718" type="line"/>
      <point x="536" y="0" type="line" smooth="yes"/>
      <point x="536" y="-126"/>
      <point x="451" y="-176"/>
      <point x="304" y="-176" type="curve"/>
      <point x="304" y="-53" type="line"/>
      <point x="340" y="-53"/>
      <point x="406" y="-42"/>
    </contour>
  </outline>
</glyph>
<glyph name="eng" format="1">
  <advance width="501"/>
  <unicode hex="014B"/>
  <outline>
    <contour>
      <point x="334" y="43" type="curve" smooth="yes"/>
      <point x="334" y="323" type="line" smooth="yes"/>
      <point x="334" y="397"/>
      <point x="312" y="428"/>
      <point x="260" y="428" type="curve" smooth="yes"/>
      <point x="203" y="428"/>
      <point x="167" y="381"/>
      <point x="167" y="305" type="curve" smooth="yes"/>
      <point x="167" y="0" type="line"/>
      <point x="53" y="0" type="line"/>
      <point x="53" y="532" type="line"/>
      <point x="163" y="532" type="line"/>
      <point x="163" y="451" type="line"/>
      <point x="194" y="517"/>
      <point x="235" y="546"/>
      <point x="297" y="546" type="curve" smooth="yes"/>
      <point x="389" y="546"/>
      <point x="448" y="477"/>
      <point x="448" y="368" type="curve" smooth="yes"/>
      <point x="448" y="-1" type="line" smooth="yes"/>
      <point x="448" y="-142"/>
      <point x="372" y="-179"/>
      <point x="260" y="-179" type="curve"/>
      <point x="260" y="-61" type="line"/>
      <point x="312" y="-61"/>
      <point x="334" y="-30"/>
    </contour>
  </outline>
</glyph>
<glyph name="Obreve" format="1">
  <advance width="638"/>
  <unicode hex="014E"/>
  <outline>
    <contour>
      <point x="404" y="964" type="curve"/>
      <point x="457" y="964" type="line"/>
      <point x="447" y="867"/>
      <point x="398" y="818"/>
      <point x="314" y="818" type="curve" smooth="yes"/>
      <point x="234" y="818"/>
      <point x="189" y="866"/>
      <point x="180" y="964" type="curve"/>
      <point x="234" y="964" type="line"/>
      <point x="243" y="913"/>
      <point x="265" y="895"/>
      <point x="319" y="895" type="curve" smooth="yes"/>
      <point x="372" y="895"/>
      <point x="393" y="912"/>
    </contour>
    <contour>
      <point x="323" y="737" type="curve" smooth="yes"/>
      <point x="398" y="737"/>
      <point x="472" y="701"/>
      <point x="521" y="642" type="curve" smooth="yes"/>
      <point x="574" y="578"/>
      <point x="602" y="480"/>
      <point x="602" y="359" type="curve" smooth="yes"/>
      <point x="602" y="238"/>
      <point x="574" y="140"/>
      <point x="521" y="76" type="curve" smooth="yes"/>
      <point x="472" y="16"/>
      <point x="398" y="-19"/>
      <point x="319" y="-19" type="curve" smooth="yes"/>
      <point x="216" y="-19"/>
      <point x="126" y="39"/>
      <point x="79" y="135" type="curve" smooth="yes"/>
      <point x="51" y="194"/>
      <point x="36" y="270"/>
      <point x="36" y="358" type="curve" smooth="yes"/>
      <point x="36" y="480"/>
      <point x="64" y="578"/>
      <point x="117" y="642" type="curve" smooth="yes"/>
      <point x="167" y="703"/>
      <point x="241" y="737"/>
    </contour>
    <contour>
      <point x="321" y="610" type="curve" smooth="yes"/>
      <point x="220" y="610"/>
      <point x="159" y="516"/>
      <point x="159" y="361" type="curve" smooth="yes"/>
      <point x="159" y="203"/>
      <point x="219" y="108"/>
      <point x="319" y="108" type="curve" smooth="yes"/>
      <point x="419" y="108"/>
      <point x="479" y="203"/>
      <point x="479" y="362" type="curve" smooth="yes"/>
      <point x="479" y="446"/>
      <point x="460" y="516"/>
      <point x="425" y="558" type="curve"/>
      <point x="399" y="591"/>
      <point x="360" y="610"/>
    </contour>
  </outline>
</glyph>
<glyph name="obreve" format="1">
  <advance width="501"/>
  <unicode hex="014F"/>
  <outline>
    <contour>
      <point x="336" y="778" type="curve"/>
      <point x="389" y="778" type="line"/>
      <point x="379" y="681"/>
      <point x="330" y="632"/>
      <point x="246" y="632" type="curve" smooth="yes"/>
      <point x="166" y="632"/>
      <point x="121" y="680"/>
      <point x="112" y="778" type="curve"/>
      <point x="166" y="778" type="line"/>
      <point x="175" y="727"/>
      <point x="197" y="709"/>
      <point x="251" y="709" type="curve" smooth="yes"/>
      <point x="304" y="709"/>
      <point x="325" y="726"/>
    </contour>
    <contour>
      <point x="254" y="546" type="curve" smooth="yes"/>
      <point x="387" y="546"/>
      <point x="474" y="434"/>
      <point x="474" y="265" type="curve" smooth="yes"/>
      <point x="474" y="96"/>
      <point x="386" y="-14"/>
      <point x="251" y="-14" type="curve" smooth="yes"/>
      <point x="116" y="-14"/>
      <point x="28" y="96"/>
      <point x="28" y="265" type="curve" smooth="yes"/>
      <point x="28" y="437"/>
      <point x="115" y="546"/>
    </contour>
    <contour>
      <point x="252" y="428" type="curve" smooth="yes"/>
      <point x="183" y="428"/>
      <point x="146" y="372"/>
      <point x="146" y="266" type="curve" smooth="yes"/>
      <point x="146" y="161"/>
      <point x="183" y="104"/>
      <point x="251" y="104" type="curve" smooth="yes"/>
      <point x="319" y="104"/>
      <point x="356" y="161"/>
      <point x="356" y="266" type="curve" smooth="yes"/>
      <point x="356" y="370"/>
      <point x="319" y="428"/>
    </contour>
  </outline>
</glyph>
<glyph name="OE" format="1">
  <advance width="820"/>
  <unicode hex="0152"/>
  <outline>
    <contour>
      <point x="514" y="591" type="line"/>
      <point x="514" y="440" type="line"/>
      <point x="769" y="440" type="line"/>
      <point x="769" y="313" type="line"/>
      <point x="514" y="313" type="line"/>
      <point x="514" y="127" type="line"/>
      <point x="788" y="127" type="line"/>
      <point x="788" y="0" type="line"/>
      <point x="402" y="0" type="line"/>
      <point x="402" y="50" type="line"/>
      <point x="363" y="-2"/>
      <point x="333" y="-19"/>
      <point x="276" y="-19" type="curve" smooth="yes"/>
      <point x="125" y="-19"/>
      <point x="30" y="126"/>
      <point x="30" y="355" type="curve" smooth="yes"/>
      <point x="30" y="591"/>
      <point x="123" y="737"/>
      <point x="275" y="737" type="curve" smooth="yes"/>
      <point x="330" y="737"/>
      <point x="366" y="720"/>
      <point x="402" y="676" type="curve"/>
      <point x="402" y="718" type="line"/>
      <point x="788" y="718" type="line"/>
      <point x="788" y="591" type="line"/>
    </contour>
    <contour>
      <point x="394" y="196" type="curve" smooth="yes"/>
      <point x="394" y="521" type="line" smooth="yes"/>
      <point x="394" y="576"/>
      <point x="352" y="614"/>
      <point x="292" y="614" type="curve" smooth="yes"/>
      <point x="203" y="614"/>
      <point x="150" y="517"/>
      <point x="150" y="357" type="curve" smooth="yes"/>
      <point x="150" y="204"/>
      <point x="205" y="104"/>
      <point x="289" y="104" type="curve" smooth="yes"/>
      <point x="346" y="104"/>
      <point x="394" y="146"/>
    </contour>
  </outline>
</glyph>
<glyph name="Racute" format="1">
  <advance width="592"/>
  <unicode hex="0154"/>
  <outline>
    <contour>
      <point x="62" y="0" type="line"/>
      <point x="62" y="718" type="line"/>
      <point x="359" y="718" type="line" smooth="yes"/>
      <point x="472" y="718"/>
      <point x="545" y="638"/>
      <point x="545" y="514" type="curve" smooth="yes"/>
      <point x="545" y="459"/>
      <point x="529" y="411"/>
      <point x="499" y="376" type="curve" smooth="yes"/>
      <point x="487" y="362"/>
      <point x="477" y="355"/>
      <point x="454" y="344" type="curve"/>
      <point x="520" y="309"/>
      <point x="530" y="276"/>
      <point x="529" y="108" type="curve"/>
      <point x="530" y="45"/>
      <point x="534" y="29"/>
      <point x="555" y="19" type="curve"/>
      <point x="555" y="0" type="line"/>
      <point x="419" y="0" type="line"/>
      <point x="409" y="41"/>
      <point x="406" y="76"/>
      <point x="405" y="144" type="curve" smooth="yes"/>
      <point x="405" y="208"/>
      <point x="402" y="231"/>
      <point x="392" y="248" type="curve" smooth="yes"/>
      <point x="379" y="271"/>
      <point x="354" y="280"/>
      <point x="309" y="280" type="curve" smooth="yes"/>
      <point x="182" y="280" type="line"/>
      <point x="182" y="0" type="line"/>
    </contour>
    <contour>
      <point x="182" y="402" type="line"/>
      <point x="327" y="402" type="line" smooth="yes"/>
      <point x="392" y="402"/>
      <point x="422" y="432"/>
      <point x="422" y="498" type="curve" smooth="yes"/>
      <point x="422" y="560"/>
      <point x="391" y="595"/>
      <point x="336" y="595" type="curve" smooth="yes"/>
      <point x="182" y="595" type="line"/>
    </contour>
    <contour>
      <point x="452" y="936" type="line"/>
      <point x="332" y="790" type="line"/>
      <point x="249" y="790" type="line"/>
      <point x="326" y="936" type="line"/>
    </contour>
  </outline>
</glyph>
<glyph name="Rcommaaccent" format="1">
  <advance width="592"/>
  <unicode hex="0156"/>
  <outline>
    <contour>
      <point x="62" y="0" type="line"/>
      <point x="62" y="718" type="line"/>
      <point x="359" y="718" type="line" smooth="yes"/>
      <point x="472" y="718"/>
      <point x="545" y="638"/>
      <point x="545" y="514" type="curve" smooth="yes"/>
      <point x="545" y="459"/>
      <point x="529" y="411"/>
      <point x="499" y="376" type="curve" smooth="yes"/>
      <point x="487" y="362"/>
      <point x="477" y="355"/>
      <point x="454" y="344" type="curve"/>
      <point x="520" y="309"/>
      <point x="530" y="276"/>
      <point x="529" y="108" type="curve"/>
      <point x="530" y="45"/>
      <point x="534" y="29"/>
      <point x="555" y="19" type="curve"/>
      <point x="555" y="0" type="line"/>
      <point x="419" y="0" type="line"/>
      <point x="409" y="41"/>
      <point x="406" y="76"/>
      <point x="405" y="144" type="curve" smooth="yes"/>
      <point x="405" y="208"/>
      <point x="402" y="231"/>
      <point x="392" y="248" type="curve" smooth="yes"/>
      <point x="379" y="271"/>
      <point x="354" y="280"/>
      <point x="309" y="280" type="curve" smooth="yes"/>
      <point x="182" y="280" type="line"/>
      <point x="182" y="0" type="line"/>
    </contour>
    <contour>
      <point x="182" y="402" type="line"/>
      <point x="327" y="402" type="line" smooth="yes"/>
      <point x="392" y="402"/>
      <point x="422" y="432"/>
      <point x="422" y="498" type="curve" smooth="yes"/>
      <point x="422" y="560"/>
      <point x="391" y="595"/>
      <point x="336" y="595" type="curve" smooth="yes"/>
      <point x="182" y="595" type="line"/>
    </contour>
    <contour>
      <point x="242" y="-60" type="line"/>
      <point x="350" y="-60" type="line"/>
      <point x="350" y="-163" type="line" smooth="yes"/>
      <point x="350" y="-212"/>
      <point x="338" y="-248"/>
      <point x="313" y="-273" type="curve" smooth="yes"/>
      <point x="294" y="-292"/>
      <point x="266" y="-306"/>
      <point x="242" y="-307" type="curve"/>
      <point x="242" y="-261" type="line"/>
      <point x="282" y="-253"/>
      <point x="307" y="-220"/>
      <point x="305" y="-178" type="curve"/>
      <point x="305" y="-172" type="line"/>
      <point x="242" y="-172" type="line"/>
    </contour>
  </outline>
</glyph>
<glyph name="rcommaaccent" format="1">
  <advance width="319"/>
  <unicode hex="0157"/>
  <outline>
    <contour>
      <point x="52" y="0" type="line"/>
      <point x="52" y="532" type="line"/>
      <point x="162" y="532" type="line"/>
      <point x="162" y="437" type="line"/>
      <point x="196" y="518"/>
      <point x="227" y="546"/>
      <point x="283" y="546" type="curve" smooth="yes"/>
      <point x="288" y="546"/>
      <point x="293" y="546"/>
      <point x="306" y="544" type="curve"/>
      <point x="306" y="402" type="line"/>
      <point x="298" y="403"/>
      <point x="288" y="404"/>
      <point x="277" y="404" type="curve" smooth="yes"/>
      <point x="202" y="404"/>
      <point x="166" y="363"/>
      <point x="166" y="277" type="curve" smooth="yes"/>
      <point x="166" y="0" type="line"/>
    </contour>
    <contour>
      <point x="58" y="-60" type="line"/>
      <point x="166" y="-60" type="line"/>
      <point x="166" y="-163" type="line" smooth="yes"/>
      <point x="166" y="-212"/>
      <point x="154" y="-248"/>
      <point x="129" y="-273" type="curve" smooth="yes"/>
      <point x="110" y="-292"/>
      <point x="82" y="-306"/>
      <point x="58" y="-307" type="curve"/>
      <point x="58" y="-261" type="line"/>
      <point x="98" y="-253"/>
      <point x="123" y="-220"/>
      <point x="121" y="-178" type="curve"/>
      <point x="121" y="-172" type="line"/>
      <point x="58" y="-172" type="line"/>
    </contour>
  </outline>
</glyph>
<glyph name="Scedilla" format="1">
  <advance width="547"/>
  <unicode hex="015E"/>
  <outline>
    <contour>
      <point x="282" y="-19" type="curve"/>
      <point x="262" y="-55" type="line"/>
      <point x="272" y="-52"/>
      <point x="278" y="-51"/>
      <point x="286" y="-51" type="curve" smooth="yes"/>
      <point x="328" y="-51"/>
      <point x="358" y="-83"/>
      <point x="358" y="-129" type="curve" smooth="yes"/>
      <point x="358" y="-188"/>
      <point x="316" y="-228"/>
      <point x="254" y="-228" type="curve" smooth="yes"/>
      <point x="226" y="-228"/>
      <point x="207" y="-223"/>
      <point x="162" y="-203" type="curve"/>
      <point x="180" y="-155" type="line"/>
      <point x="210" y="-166"/>
      <point x="229" y="-171"/>
      <point x="242" y="-171" type="curve" smooth="yes"/>
      <point x="263" y="-171"/>
      <point x="281" y="-153"/>
      <point x="281" y="-132" type="curve" smooth="yes"/>
      <point x="281" y="-112"/>
      <point x="267" y="-96"/>
      <point x="249" y="-96" type="curve" smooth="yes"/>
      <point x="242" y="-96"/>
      <point x="232" y="-99"/>
      <point x="217" y="-104" type="curve"/>
      <point x="200" y="-84" type="line"/>
      <point x="236" y="-16" type="line"/>
      <point x="106" y="0"/>
      <point x="34" y="84"/>
      <point x="32" y="221" type="curve"/>
      <point x="150" y="221" type="line"/>
      <point x="155" y="142"/>
      <point x="196" y="104"/>
      <point x="278" y="104" type="curve" smooth="yes"/>
      <point x="354" y="104"/>
      <point x="398" y="138"/>
      <point x="398" y="196" type="curve" smooth="yes"/>
      <point x="398" y="243"/>
      <point x="374" y="263"/>
      <point x="291" y="287" type="curve" smooth="yes"/>
      <point x="228" y="305" type="line" smooth="yes"/>
      <point x="153" y="326"/>
      <point x="116" y="343"/>
      <point x="91" y="369" type="curve"/>
      <point x="58" y="401"/>
      <point x="41" y="450"/>
      <point x="41" y="512" type="curve" smooth="yes"/>
      <point x="41" y="652"/>
      <point x="125" y="737"/>
      <point x="265" y="737" type="curve" smooth="yes"/>
      <point x="406" y="737"/>
      <point x="488" y="655"/>
      <point x="497" y="505" type="curve"/>
      <point x="379" y="505" type="line"/>
      <point x="370" y="581"/>
      <point x="334" y="614"/>
      <point x="261" y="614" type="curve" smooth="yes"/>
      <point x="196" y="614"/>
      <point x="156" y="581"/>
      <point x="156" y="527" type="curve" smooth="yes"/>
      <point x="156" y="486"/>
      <point x="173" y="466"/>
      <point x="218" y="452" type="curve" smooth="yes"/>
      <point x="362" y="409" type="line" smooth="yes"/>
      <point x="472" y="376"/>
      <point x="516" y="320"/>
      <point x="516" y="214" type="curve" smooth="yes"/>
      <point x="516" y="71"/>
      <point x="429" y="-16"/>
    </contour>
  </outline>
</glyph>
<glyph name="Tcaron" format="1">
  <advance width="501"/>
  <unicode hex="0164"/>
  <outline>
    <contour>
      <point x="312" y="591" type="line"/>
      <point x="312" y="0" type="line"/>
      <point x="189" y="0" type="line"/>
      <point x="189" y="591" type="line"/>
      <point x="11" y="591" type="line"/>
      <point x="11" y="718" type="line"/>
      <point x="490" y="718" type="line"/>
      <point x="490" y="591" type="line"/>
    </contour>
    <contour>
      <point x="395" y="936" type="line"/>
      <point x="302" y="790" type="line"/>
      <point x="199" y="790" type="line"/>
      <point x="106" y="936" type="line"/>
      <point x="199" y="936" type="line"/>
      <point x="250" y="854" type="line"/>
      <point x="302" y="936" type="line"/>
    </contour>
  </outline>
</glyph>
<glyph name="tcaron" format="1">
  <advance width="338"/>
  <unicode hex="0165"/>
  <outline>
    <contour>
      <point x="181" y="676" type="line"/>
      <point x="181" y="532" type="line"/>
      <point x="253" y="532" type="line"/>
      <point x="253" y="518" type="line"/>
      <point x="292" y="527"/>
      <point x="315" y="559"/>
      <point x="313" y="600" type="curve"/>
      <point x="313" y="606" type="line"/>
      <point x="250" y="606" type="line"/>
      <point x="250" y="718" type="line"/>
      <point x="358" y="718" type="line"/>
      <point x="358" y="615" type="line" smooth="yes"/>
      <point x="358" y="566"/>
      <point x="346" y="530"/>
      <point x="321" y="505" type="curve" smooth="yes"/>
      <point x="303" y="487"/>
      <point x="275" y="473"/>
      <point x="253" y="472" type="curve"/>
      <point x="253" y="432" type="line"/>
      <point x="181" y="432" type="line"/>
      <point x="181" y="143" type="line" smooth="yes"/>
      <point x="181" y="106"/>
      <point x="188" y="100"/>
      <point x="228" y="100" type="curve" smooth="yes"/>
      <point x="234" y="100"/>
      <point x="238" y="100"/>
      <point x="253" y="102" type="curve"/>
      <point x="253" y="-4" type="line"/>
      <point x="211" y="-6"/>
      <point x="211" y="-6"/>
      <point x="198" y="-6" type="curve" smooth="yes"/>
      <point x="183" y="-6" type="line" smooth="yes"/>
      <point x="99" y="-6"/>
      <point x="67" y="25"/>
      <point x="67" y="109" type="curve" smooth="yes"/>
      <point x="67" y="432" type="line"/>
      <point x="8" y="432" type="line"/>
      <point x="8" y="532" type="line"/>
      <point x="67" y="532" type="line"/>
      <point x="67" y="676" type="line"/>
    </contour>
  </outline>
</glyph>
<glyph name="tbar" format="1">
  <advance width="273"/>
  <unicode hex="0167"/>
  <outline>
    <contour>
      <point x="181" y="676" type="line"/>
      <point x="181" y="532" type="line"/>
      <point x="253" y="532" type="line"/>
      <point x="253" y="432" type="line"/>
      <point x="181" y="432" type="line"/>
      <point x="181" y="339" type="line"/>
      <point x="253" y="339" type="line"/>
      <point x="253" y="227" type="line"/>
      <point x="181" y="227" type="line"/>
      <point x="181" y="143" type="line" smooth="yes"/>
      <point x="181" y="106"/>
      <point x="188" y="100"/>
      <point x="228" y="100" type="curve" smooth="yes"/>
      <point x="235" y="100"/>
      <point x="240" y="100"/>
      <point x="253" y="102" type="curve"/>
      <point x="253" y="-4" type="line"/>
      <point x="214" y="-6"/>
      <point x="211" y="-6"/>
      <point x="198" y="-6" type="curve" smooth="yes"/>
      <point x="183" y="-6" type="line" smooth="yes"/>
      <point x="99" y="-6"/>
      <point x="67" y="25"/>
      <point x="67" y="109" type="curve" smooth="yes"/>
      <point x="67" y="227" type="line"/>
      <point x="8" y="227" type="line"/>
      <point x="8" y="339" type="line"/>
      <point x="67" y="339" type="line"/>
      <point x="67" y="432" type="line"/>
      <point x="8" y="432" type="line"/>
      <point x="8" y="532" type="line"/>
      <point x="67" y="532" type="line"/>
      <point x="67" y="676" type="line"/>
    </contour>
  </outline>
</glyph>
<glyph name="Utilde" format="1">
  <advance width="592"/>
  <unicode hex="0168"/>
  <outline>
    <contour>
      <point x="394" y="945" type="curve"/>
      <point x="447" y="945" type="line"/>
      <point x="434" y="865"/>
      <point x="404" y="825"/>
      <point x="359" y="825" type="curve" smooth="yes"/>
      <point x="341" y="825"/>
      <point x="310" y="834"/>
      <point x="274" y="849" type="curve"/>
      <point x="256" y="858"/>
      <point x="244" y="861"/>
      <point x="236" y="861" type="curve" smooth="yes"/>
      <point x="217" y="861"/>
      <point x="204" y="846"/>
      <point x="198" y="818" type="curve"/>
      <point x="146" y="818" type="line"/>
      <point x="160" y="902"/>
      <point x="192" y="941"/>
      <point x="245" y="941" type="curve" smooth="yes"/>
      <point x="261" y="941"/>
      <point x="270" y="938"/>
      <point x="304" y="922" type="curve" smooth="yes"/>
      <point x="333" y="909"/>
      <point x="344" y="905"/>
      <point x="355" y="905" type="curve" smooth="yes"/>
      <point x="376" y="905"/>
      <point x="387" y="917"/>
    </contour>
    <contour>
      <point x="534" y="718" type="line"/>
      <point x="534" y="251" type="line" smooth="yes"/>
      <point x="534" y="75"/>
      <point x="451" y="-19"/>
      <point x="295" y="-19" type="curve" smooth="yes"/>
      <point x="145" y="-19"/>
      <point x="59" y="76"/>
      <point x="59" y="242" type="curve" smooth="yes"/>
      <point x="59" y="718" type="line"/>
      <point x="184" y="718" type="line"/>
      <point x="184" y="252" type="line" smooth="yes"/>
      <point x="184" y="160"/>
      <point x="224" y="108"/>
      <point x="295" y="108" type="curve" smooth="yes"/>
      <point x="369" y="108"/>
      <point x="409" y="156"/>
      <point x="409" y="245" type="curve" smooth="yes"/>
      <point x="409" y="718" type="line"/>
    </contour>
  </outline>
</glyph>
<glyph name="utilde" format="1">
  <advance width="501"/>
  <unicode hex="0169"/>
  <outline>
    <contour>
      <point x="348" y="759" type="curve"/>
      <point x="401" y="759" type="line"/>
      <point x="388" y="679"/>
      <point x="358" y="639"/>
      <point x="313" y="639" type="curve" smooth="yes"/>
      <point x="295" y="639"/>
      <point x="264" y="648"/>
      <point x="228" y="663" type="curve"/>
      <point x="210" y="672"/>
      <point x="198" y="675"/>
      <point x="190" y="675" type="curve" smooth="yes"/>
      <point x="171" y="675"/>
      <point x="158" y="660"/>
      <point x="152" y="632" type="curve"/>
      <point x="100" y="632" type="line"/>
      <point x="114" y="716"/>
      <point x="146" y="755"/>
      <point x="199" y="755" type="curve" smooth="yes"/>
      <point x="215" y="755"/>
      <point x="224" y="752"/>
      <point x="258" y="736" type="curve" smooth="yes"/>
      <point x="287" y="723"/>
      <point x="298" y="719"/>
      <point x="309" y="719" type="curve" smooth="yes"/>
      <point x="330" y="719"/>
      <point x="341" y="731"/>
    </contour>
    <contour>
      <point x="447" y="532" type="line"/>
      <point x="447" y="0" type="line"/>
      <point x="337" y="0" type="line"/>
      <point x="337" y="78" type="line"/>
      <point x="307" y="15"/>
      <point x="265" y="-14"/>
      <point x="201" y="-14" type="curve" smooth="yes"/>
      <point x="107" y="-14"/>
      <point x="54" y="57"/>
      <point x="54" y="182" type="curve" smooth="yes"/>
      <point x="54" y="532" type="line"/>
      <point x="168" y="532" type="line"/>
      <point x="168" y="202" type="line" smooth="yes"/>
      <point x="168" y="138"/>
      <point x="193" y="104"/>
      <point x="242" y="104" type="curve" smooth="yes"/>
      <point x="299" y="104"/>
      <point x="333" y="150"/>
      <point x="333" y="225" type="curve" smooth="yes"/>
      <point x="333" y="532" type="line"/>
    </contour>
  </outline>
</glyph>
<glyph name="Umacron" format="1">
  <advance width="592"/>
  <unicode hex="016A"/>
  <outline>
    <contour>
      <point x="534" y="718" type="line"/>
      <point x="534" y="251" type="line" smooth="yes"/>
      <point x="534" y="75"/>
      <point x="451" y="-19"/>
      <point x="295" y="-19" type="curve" smooth="yes"/>
      <point x="145" y="-19"/>
      <point x="59" y="76"/>
      <point x="59" y="242" type="curve" smooth="yes"/>
      <point x="59" y="718" type="line"/>
      <point x="184" y="718" type="line"/>
      <point x="184" y="252" type="line" smooth="yes"/>
      <point x="184" y="160"/>
      <point x="224" y="108"/>
      <point x="295" y="108" type="curve" smooth="yes"/>
      <point x="369" y="108"/>
      <point x="409" y="156"/>
      <point x="409" y="245" type="curve" smooth="yes"/>
      <point x="409" y="718" type="line"/>
    </contour>
    <contour>
      <point x="438" y="864" type="line"/>
      <point x="438" y="791" type="line"/>
      <point x="155" y="791" type="line"/>
      <point x="155" y="864" type="line"/>
    </contour>
  </outline>
</glyph>
<glyph name="Uring" format="1">
  <advance width="592"/>
  <unicode hex="016E"/>
  <outline>
    <contour>
      <point x="534" y="718" type="line"/>
      <point x="534" y="251" type="line" smooth="yes"/>
      <point x="534" y="75"/>
      <point x="451" y="-19"/>
      <point x="295" y="-19" type="curve" smooth="yes"/>
      <point x="145" y="-19"/>
      <point x="59" y="76"/>
      <point x="59" y="242" type="curve" smooth="yes"/>
      <point x="59" y="718" type="line"/>
      <point x="184" y="718" type="line"/>
      <point x="184" y="252" type="line" smooth="yes"/>
      <point x="184" y="160"/>
      <point x="224" y="108"/>
      <point x="295" y="108" type="curve" smooth="yes"/>
      <point x="369" y="108"/>
      <point x="409" y="156"/>
      <point x="409" y="245" type="curve" smooth="yes"/>
      <point x="409" y="718" type="line"/>
    </contour>
    <contour>
      <point x="297" y="962" type="curve" smooth="yes"/>
      <point x="343" y="962"/>
      <point x="384" y="913"/>
      <point x="384" y="858" type="curve" smooth="yes"/>
      <point x="384" y="803"/>
      <point x="343" y="754"/>
      <point x="295" y="754" type="curve" smooth="yes"/>
      <point x="248" y="754"/>
      <point x="207" y="802"/>
      <point x="207" y="858" type="curve" smooth="yes"/>
      <point x="207" y="914"/>
      <point x="248" y="962"/>
    </contour>
    <contour>
      <point x="296" y="910" type="curve" smooth="yes"/>
      <point x="272" y="910"/>
      <point x="253" y="887"/>
      <point x="253" y="858" type="curve" smooth="yes"/>
      <point x="253" y="829"/>
      <point x="272" y="806"/>
      <point x="295" y="806" type="curve" smooth="yes"/>
      <point x="319" y="806"/>
      <point x="338" y="829"/>
      <point x="338" y="858" type="curve" smooth="yes"/>
      <point x="338" y="886"/>
      <point x="319" y="910"/>
    </contour>
  </outline>
</glyph>
<glyph name="uring" format="1">
  <advance width="501"/>
  <unicode hex="016F"/>
  <outline>
    <contour>
      <point x="447" y="532" type="line"/>
      <point x="447" y="0" type="line"/>
      <point x="337" y="0" type="line"/>
      <point x="337" y="78" type="line"/>
      <point x="307" y="15"/>
      <point x="265" y="-14"/>
      <point x="201" y="-14" type="curve" smooth="yes"/>
      <point x="107" y="-14"/>
      <point x="54" y="57"/>
      <point x="54" y="182" type="curve" smooth="yes"/>
      <point x="54" y="532" type="line"/>
      <point x="168" y="532" type="line"/>
      <point x="168" y="202" type="line" smooth="yes"/>
      <point x="168" y="138"/>
      <point x="193" y="104"/>
      <point x="242" y="104" type="curve" smooth="yes"/>
      <point x="299" y="104"/>
      <point x="333" y="150"/>
      <point x="333" y="225" type="curve" smooth="yes"/>
      <point x="333" y="532" type="line"/>
    </contour>
    <contour>
      <point x="252" y="776" type="curve" smooth="yes"/>
      <point x="298" y="776"/>
      <point x="339" y="727"/>
      <point x="339" y="672" type="curve" smooth="yes"/>
      <point x="339" y="617"/>
      <point x="298" y="568"/>
      <point x="250" y="568" type="curve" smooth="yes"/>
      <point x="203" y="568"/>
      <point x="162" y="616"/>
      <point x="162" y="672" type="curve" smooth="yes"/>
      <point x="162" y="728"/>
      <point x="203" y="776"/>
    </contour>
    <contour>
      <point x="251" y="724" type="curve" smooth="yes"/>
      <point x="227" y="724"/>
      <point x="208" y="701"/>
      <point x="208" y="672" type="curve" smooth="yes"/>
      <point x="208" y="643"/>
      <point x="227" y="620"/>
      <point x="250" y="620" type="curve" smooth="yes"/>
      <point x="274" y="620"/>
      <point x="293" y="643"/>
      <point x="293" y="672" type="curve" smooth="yes"/>
      <point x="293" y="700"/>
      <point x="274" y="724"/>
    </contour>
  </outline>
</glyph>
<glyph name="Uogonek" format="1">
  <advance width="592"/>
  <unicode hex="0172"/>
  <outline>
    <contour>
      <point x="184" y="718" type="line"/>
      <point x="184" y="252" type="line" smooth="yes"/>
      <point x="184" y="160"/>
      <point x="224" y="108"/>
      <point x="295" y="108" type="curve" smooth="yes"/>
      <point x="369" y="108"/>
      <point x="409" y="156"/>
      <point x="409" y="245" type="curve" smooth="yes"/>
      <point x="409" y="718" type="line"/>
      <point x="534" y="718" type="line"/>
      <point x="534" y="251" type="line" smooth="yes"/>
      <point x="534" y="187"/>
      <point x="521" y="126"/>
      <point x="500" y="88" type="curve" smooth="yes"/>
      <point x="489" y="69"/>
      <point x="489" y="69"/>
      <point x="433" y="1" type="curve"/>
      <point x="394" y="-48"/>
      <point x="374" y="-90"/>
      <point x="374" y="-126" type="curve" smooth="yes"/>
      <point x="374" y="-150"/>
      <point x="391" y="-171"/>
      <point x="412" y="-171" type="curve" smooth="yes"/>
      <point x="426" y="-171"/>
      <point x="448" y="-165"/>
      <point x="474" y="-155" type="curve"/>
      <point x="489" y="-204" type="line"/>
      <point x="448" y="-222"/>
      <point x="427" y="-228"/>
      <point x="400" y="-228" type="curve" smooth="yes"/>
      <point x="339" y="-228"/>
      <point x="297" y="-189"/>
      <point x="297" y="-132" type="curve" smooth="yes"/>
      <point x="297" y="-82"/>
      <point x="323" y="-37"/>
      <point x="368" y="-11" type="curve"/>
      <point x="342" y="-17"/>
      <point x="321" y="-19"/>
      <point x="295" y="-19" type="curve" smooth="yes"/>
      <point x="145" y="-19"/>
      <point x="59" y="76"/>
      <point x="59" y="242" type="curve" smooth="yes"/>
      <point x="59" y="718" type="line"/>
    </contour>
  </outline>
</glyph>
<glyph name="uogonek" format="1">
  <advance width="501"/>
  <unicode hex="0173"/>
  <outline>
    <contour>
      <point x="447" y="532" type="line"/>
      <point x="447" y="-4" type="line"/>
      <point x="394" y="-42"/>
      <point x="366" y="-85"/>
      <point x="366" y="-125" type="curve" smooth="yes"/>
      <point x="366" y="-150"/>
      <point x="383" y="-171"/>
      <point x="403" y="-171" type="curve" smooth="yes"/>
      <point x="418" y="-171"/>
      <point x="440" y="-165"/>
      <point x="465" y="-155" type="curve"/>
      <point x="480" y="-204" type="line"/>
      <point x="439" y="-222"/>
      <point x="419" y="-228"/>
      <point x="392" y="-228" type="curve" smooth="yes"/>
      <point x="331" y="-228"/>
      <point x="289" y="-189"/>
      <point x="289" y="-132" type="curve" smooth="yes"/>
      <point x="289" y="-92"/>
      <point x="307" y="-52"/>
      <point x="338" y="-26" type="curve"/>
      <point x="347" y="-17"/>
      <point x="354" y="-13"/>
      <point x="378" y="0" type="curve"/>
      <point x="337" y="0" type="line"/>
      <point x="337" y="78" type="line"/>
      <point x="307" y="15"/>
      <point x="265" y="-14"/>
      <point x="201" y="-14" type="curve" smooth="yes"/>
      <point x="107" y="-14"/>
      <point x="54" y="57"/>
      <point x="54" y="182" type="curve" smooth="yes"/>
      <point x="54" y="532" type="line"/>
      <point x="168" y="532" type="line"/>
      <point x="168" y="202" type="line" smooth="yes"/>
      <point x="168" y="138"/>
      <point x="193" y="104"/>
      <point x="242" y="104" type="curve" smooth="yes"/>
      <point x="299" y="104"/>
      <point x="333" y="150"/>
      <point x="333" y="225" type="curve" smooth="yes"/>
      <point x="333" y="532" type="line"/>
    </contour>
  </outline>
</glyph>
<glyph name="Wcircumflex" format="1">
  <advance width="774"/>
  <unicode hex="0174"/>
  <outline>
    <contour>
      <point x="439" y="964" type="line"/>
      <point x="532" y="818" type="line"/>
      <point x="439" y="818" type="line"/>
      <point x="387" y="900" type="line"/>
      <point x="336" y="818" type="line"/>
      <point x="243" y="818" type="line"/>
      <point x="336" y="964" type="line"/>
    </contour>
    <contour>
      <point x="180" y="0" type="line"/>
      <point x="13" y="718" type="line"/>
      <point x="144" y="718" type="line"/>
      <point x="214" y="353"/>
      <point x="226" y="286"/>
      <point x="239" y="187" type="curve"/>
      <point x="256" y="313"/>
      <point x="276" y="439"/>
      <point x="321" y="718" type="curve"/>
      <point x="452" y="718" type="line"/>
      <point x="517" y="343"/>
      <point x="525" y="294"/>
      <point x="540" y="187" type="curve"/>
      <point x="554" y="279"/>
      <point x="570" y="367"/>
      <point x="637" y="718" type="curve"/>
      <point x="762" y="718" type="line"/>
      <point x="596" y="0" type="line"/>
      <point x="478" y="0" type="line"/>
      <point x="418" y="349"/>
      <point x="409" y="403"/>
      <point x="386" y="565" type="curve"/>
      <point x="355" y="364"/>
      <point x="332" y="217"/>
      <point x="319" y="142" type="curve" smooth="yes"/>
      <point x="294" y="0" type="line"/>
    </contour>
  </outline>
</glyph>
<glyph name="wcircumflex" format="1">
  <advance width="638"/>
  <unicode hex="0175"/>
  <outline>
    <contour>
      <point x="371" y="778" type="line"/>
      <point x="464" y="632" type="line"/>
      <point x="371" y="632" type="line"/>
      <point x="319" y="714" type="line"/>
      <point x="268" y="632" type="line"/>
      <point x="175" y="632" type="line"/>
      <point x="268" y="778" type="line"/>
    </contour>
    <contour>
      <point x="631" y="532" type="line"/>
      <point x="505" y="0" type="line"/>
      <point x="387" y="0" type="line"/>
      <point x="318" y="393" type="line"/>
      <point x="249" y="0" type="line"/>
      <point x="131" y="0" type="line"/>
      <point x="8" y="532" type="line"/>
      <point x="130" y="532" type="line"/>
      <point x="199" y="145" type="line"/>
      <point x="262" y="532" type="line"/>
      <point x="377" y="532" type="line"/>
      <point x="444" y="145" type="line"/>
      <point x="513" y="532" type="line"/>
    </contour>
  </outline>
</glyph>
<glyph name="Ycircumflex" format="1">
  <advance width="547"/>
  <unicode hex="0176"/>
  <outline>
    <contour>
      <point x="325" y="964" type="line"/>
      <point x="418" y="818" type="line"/>
      <point x="325" y="818" type="line"/>
      <point x="273" y="900" type="line"/>
      <point x="222" y="818" type="line"/>
      <point x="129" y="818" type="line"/>
      <point x="222" y="964" type="line"/>
    </contour>
    <contour>
      <point x="338" y="269" type="line"/>
      <point x="338" y="0" type="line"/>
      <point x="215" y="0" type="line"/>
      <point x="215" y="271" type="line"/>
      <point x="12" y="718" type="line"/>
      <point x="157" y="718" type="line"/>
      <point x="279" y="406" type="line"/>
      <point x="396" y="718" type="line"/>
      <point x="535" y="718" type="line"/>
    </contour>
  </outline>
</glyph>
<glyph name="Ydieresis" format="1">
  <advance width="547"/>
  <unicode hex="0178"/>
  <outline>
    <contour>
      <point x="338" y="269" type="line"/>
      <point x="338" y="0" type="line"/>
      <point x="215" y="0" type="line"/>
      <point x="215" y="271" type="line"/>
      <point x="12" y="718" type="line"/>
      <point x="157" y="718" type="line"/>
      <point x="279" y="406" type="line"/>
      <point x="396" y="718" type="line"/>
      <point x="535" y="718" type="line"/>
    </contour>
    <contour>
      <point x="245" y="915" type="line"/>
      <point x="245" y="800" type="line"/>
      <point x="142" y="800" type="line"/>
      <point x="142" y="915" type="line"/>
    </contour>
    <contour>
      <point x="405" y="915" type="line"/>
      <point x="405" y="800" type="line"/>
      <point x="302" y="800" type="line"/>
      <point x="302" y="915" type="line"/>
    </contour>
  </outline>
</glyph>
<glyph name="Zacute" format="1">
  <advance width="501"/>
  <unicode hex="0179"/>
  <outline>
    <contour>
      <point x="481" y="127" type="line"/>
      <point x="481" y="0" type="line"/>
      <point x="20" y="0" type="line"/>
      <point x="20" y="127" type="line"/>
      <point x="325" y="591" type="line"/>
      <point x="28" y="591" type="line"/>
      <point x="28" y="718" type="line"/>
      <point x="479" y="718" type="line"/>
      <point x="479" y="600" type="line"/>
      <point x="170" y="127" type="line"/>
    </contour>
    <contour>
      <point x="406" y="936" type="line"/>
      <point x="286" y="790" type="line"/>
      <point x="203" y="790" type="line"/>
      <point x="280" y="936" type="line"/>
    </contour>
  </outline>
</glyph>
<glyph name="zacute" format="1">
  <advance width="410"/>
  <unicode hex="017A"/>
  <outline>
    <contour>
      <point x="386" y="417" type="line"/>
      <point x="165" y="115" type="line"/>
      <point x="394" y="115" type="line"/>
      <point x="394" y="0" type="line"/>
      <point x="16" y="0" type="line"/>
      <point x="16" y="109" type="line"/>
      <point x="241" y="420" type="line"/>
      <point x="32" y="420" type="line"/>
      <point x="32" y="532" type="line"/>
      <point x="386" y="532" type="line"/>
    </contour>
    <contour>
      <point x="361" y="750" type="line"/>
      <point x="241" y="604" type="line"/>
      <point x="158" y="604" type="line"/>
      <point x="235" y="750" type="line"/>
    </contour>
  </outline>
</glyph>
<glyph name="Zdotaccent" format="1">
  <advance width="501"/>
  <unicode hex="017B"/>
  <outline>
    <contour>
      <point x="481" y="127" type="line"/>
      <point x="481" y="0" type="line"/>
      <point x="20" y="0" type="line"/>
      <point x="20" y="127" type="line"/>
      <point x="325" y="591" type="line"/>
      <point x="28" y="591" type="line"/>
      <point x="28" y="718" type="line"/>
      <point x="479" y="718" type="line"/>
      <point x="479" y="600" type="line"/>
      <point x="170" y="127" type="line"/>
    </contour>
    <contour>
      <point x="303" y="915" type="line"/>
      <point x="303" y="800" type="line"/>
      <point x="199" y="800" type="line"/>
      <point x="199" y="915" type="line"/>
    </contour>
  </outline>
</glyph>
<glyph name="zdotaccent" format="1">
  <advance width="410"/>
  <unicode hex="017C"/>
  <outline>
    <contour>
      <point x="386" y="417" type="line"/>
      <point x="165" y="115" type="line"/>
      <point x="394" y="115" type="line"/>
      <point x="394" y="0" type="line"/>
      <point x="16" y="0" type="line"/>
      <point x="16" y="109" type="line"/>
      <point x="241" y="420" type="line"/>
      <point x="32" y="420" type="line"/>
      <point x="32" y="532" type="line"/>
      <point x="386" y="532" type="line"/>
    </contour>
    <contour>
      <point x="258" y="729" type="line"/>
      <point x="258" y="614" type="line"/>
      <point x="154" y="614" type="line"/>
      <point x="154" y="729" type="line"/>
    </contour>
  </outline>
</glyph>
<glyph name="Zcaron" format="1">
  <advance width="501"/>
  <unicode hex="017D"/>
  <outline>
    <contour>
      <point x="481" y="127" type="line"/>
      <point x="481" y="0" type="line"/>
      <point x="20" y="0" type="line"/>
      <point x="20" y="127" type="line"/>
      <point x="325" y="591" type="line"/>
      <point x="28" y="591" type="line"/>
      <point x="28" y="718" type="line"/>
      <point x="479" y="718" type="line"/>
      <point x="479" y="600" type="line"/>
      <point x="170" y="127" type="line"/>
    </contour>
    <contour>
      <point x="394" y="936" type="line"/>
      <point x="301" y="790" type="line"/>
      <point x="198" y="790" type="line"/>
      <point x="105" y="936" type="line"/>
      <point x="198" y="936" type="line"/>
      <point x="249" y="854" type="line"/>
      <point x="301" y="936" type="line"/>
    </contour>
  </outline>
</glyph>
<glyph name="zcaron" format="1">
  <advance width="410"/>
  <unicode hex="017E"/>
  <outline>
    <contour>
      <point x="386" y="417" type="line"/>
      <point x="165" y="115" type="line"/>
      <point x="394" y="115" type="line"/>
      <point x="394" y="0" type="line"/>
      <point x="16" y="0" type="line"/>
      <point x="16" y="109" type="line"/>
      <point x="241" y="420" type="line"/>
      <point x="32" y="420" type="line"/>
      <point x="32" y="532" type="line"/>
      <point x="386" y="532" type="line"/>
    </contour>
    <contour>
      <point x="349" y="750" type="line"/>
      <point x="256" y="604" type="line"/>
      <point x="153" y="604" type="line"/>
      <point x="60" y="750" type="line"/>
      <point x="153" y="750" type="line"/>
      <point x="204" y="668" type="line"/>
      <point x="256" y="750" type="line"/>
    </contour>
  </outline>
</glyph>
<glyph name="florin" format="1">
  <advance width="456"/>
  <unicode hex="0192"/>
  <outline>
    <contour>
      <point x="389" y="477" type="line"/>
      <point x="389" y="380" type="line"/>
      <point x="279" y="380" type="line"/>
      <point x="231" y="21" type="line" smooth="yes"/>
      <point x="210" y="-137"/>
      <point x="160" y="-210"/>
      <point x="74" y="-210" type="curve" smooth="yes"/>
      <point x="51" y="-210"/>
      <point x="36" y="-206"/>
      <point x="-8" y="-189" type="curve"/>
      <point x="12" y="-78" type="line"/>
      <point x="32" y="-92"/>
      <point x="40" y="-95"/>
      <point x="54" y="-95" type="curve" smooth="yes"/>
      <point x="91" y="-95"/>
      <point x="102" y="-72"/>
      <point x="118" y="46" type="curve" smooth="yes"/>
      <point x="165" y="380" type="line"/>
      <point x="65" y="380" type="line"/>
      <point x="65" y="477" type="line"/>
      <point x="177" y="477" type="line"/>
      <point x="193" y="564" type="line" smooth="yes"/>
      <point x="214" y="683"/>
      <point x="259" y="737"/>
      <point x="337" y="737" type="curve" smooth="yes"/>
      <point x="363" y="737"/>
      <point x="388" y="731"/>
      <point x="423" y="718" type="curve"/>
      <point x="403" y="610" type="line"/>
      <point x="386" y="620"/>
      <point x="370" y="625"/>
      <point x="357" y="625" type="curve" smooth="yes"/>
      <point x="329" y="625"/>
      <point x="308" y="602"/>
      <point x="303" y="565" type="curve" smooth="yes"/>
      <point x="291" y="477" type="line"/>
    </contour>
  </outline>
</glyph>
<glyph name="breve" format="1">
  <advance width="273"/>
  <unicode hex="02D8"/>
  <outline>
    <contour>
      <point x="222" y="750" type="curve"/>
      <point x="275" y="750" type="line"/>
      <point x="265" y="653"/>
      <point x="216" y="604"/>
      <point x="132" y="604" type="curve" smooth="yes"/>
      <point x="52" y="604"/>
      <point x="7" y="652"/>
      <point x="-2" y="750" type="curve"/>
      <point x="52" y="750" type="line"/>
      <point x="61" y="699"/>
      <point x="83" y="681"/>
      <point x="137" y="681" type="curve" smooth="yes"/>
      <point x="190" y="681"/>
      <point x="211" y="698"/>
    </contour>
  </outline>
</glyph>
<glyph name="dotaccent" format="1">
  <advance width="273"/>
  <unicode hex="02D9"/>
  <outline>
    <contour>
      <point x="189" y="729" type="line"/>
      <point x="189" y="614" type="line"/>
      <point x="85" y="614" type="line"/>
      <point x="85" y="729" type="line"/>
    </contour>
  </outline>
</glyph>
<glyph name="tilde" format="1">
  <advance width="273"/>
  <unicode hex="02DC"/>
  <outline>
    <contour>
      <point x="234" y="737" type="curve"/>
      <point x="287" y="737" type="line"/>
      <point x="274" y="657"/>
      <point x="244" y="617"/>
      <point x="199" y="617" type="curve" smooth="yes"/>
      <point x="181" y="617"/>
      <point x="150" y="626"/>
      <point x="114" y="641" type="curve"/>
      <point x="96" y="650"/>
      <point x="84" y="653"/>
      <point x="76" y="653" type="curve" smooth="yes"/>
      <point x="57" y="653"/>
      <point x="44" y="638"/>
      <point x="38" y="610" type="curve"/>
      <point x="-14" y="610" type="line"/>
      <point x="0" y="694"/>
      <point x="32" y="733"/>
      <point x="85" y="733" type="curve" smooth="yes"/>
      <point x="101" y="733"/>
      <point x="110" y="730"/>
      <point x="144" y="714" type="curve" smooth="yes"/>
      <point x="173" y="701"/>
      <point x="184" y="697"/>
      <point x="195" y="697" type="curve" smooth="yes"/>
      <point x="216" y="697"/>
      <point x="227" y="709"/>
    </contour>
  </outline>
</glyph>
<glyph name="afii10057" format="1">
  <advance width="456"/>
  <unicode hex="0408"/>
  <outline>
    <contour>
      <point x="397" y="718" type="line"/>
      <point x="397" y="208" type="line" smooth="yes"/>
      <point x="397" y="56"/>
      <point x="335" y="-18"/>
      <point x="207" y="-18" type="curve" smooth="yes"/>
      <point x="129" y="-18"/>
      <point x="73" y="12"/>
      <point x="45" y="70" type="curve"/>
      <point x="24" y="111"/>
      <point x="18" y="160"/>
      <point x="18" y="271" type="curve"/>
      <point x="133" y="271" type="line"/>
      <point x="134" y="135"/>
      <point x="147" y="104"/>
      <point x="205" y="104" type="curve" smooth="yes"/>
      <point x="256" y="104"/>
      <point x="274" y="131"/>
      <point x="274" y="208" type="curve" smooth="yes"/>
      <point x="274" y="718" type="line"/>
    </contour>
  </outline>
</glyph>
<glyph name="afii10058" format="1">
  <advance width="901"/>
  <unicode hex="0409"/>
  <outline>
    <contour>
      <point x="416" y="0" type="line"/>
      <point x="418" y="595" type="line"/>
      <point x="252" y="595" type="line"/>
      <point x="252" y="485" type="line"/>
      <point x="253" y="276"/>
      <point x="191" y="0"/>
      <point x="15" y="0" type="curve"/>
      <point x="15" y="121" type="line"/>
      <point x="77" y="120"/>
      <point x="129" y="312"/>
      <point x="129" y="490" type="curve" smooth="yes"/>
      <point x="129" y="718" type="line"/>
      <point x="539" y="718" type="line"/>
      <point x="539" y="458" type="line"/>
      <point x="680" y="458" type="line" smooth="yes"/>
      <point x="794" y="458"/>
      <point x="868" y="365"/>
      <point x="868" y="223" type="curve" smooth="yes"/>
      <point x="868" y="88"/>
      <point x="796" y="0"/>
      <point x="685" y="0" type="curve" smooth="yes"/>
    </contour>
    <contour>
      <point x="539" y="335" type="line"/>
      <point x="539" y="123" type="line"/>
      <point x="637" y="123" type="line" smooth="yes"/>
      <point x="714" y="123"/>
      <point x="745" y="152"/>
      <point x="745" y="226" type="curve" smooth="yes"/>
      <point x="745" y="300"/>
      <point x="715" y="335"/>
      <point x="653" y="335" type="curve" smooth="yes"/>
    </contour>
  </outline>
</glyph>
<glyph name="afii10059" format="1">
  <advance width="896"/>
  <unicode hex="040A"/>
  <outline>
    <contour>
      <point x="534" y="718" type="line"/>
      <point x="534" y="458" type="line"/>
      <point x="675" y="458" type="line" smooth="yes"/>
      <point x="789" y="458"/>
      <point x="863" y="365"/>
      <point x="863" y="223" type="curve" smooth="yes"/>
      <point x="863" y="88"/>
      <point x="791" y="0"/>
      <point x="680" y="0" type="curve" smooth="yes"/>
      <point x="411" y="0" type="line"/>
      <point x="411" y="323" type="line"/>
      <point x="181" y="323" type="line"/>
      <point x="181" y="0" type="line"/>
      <point x="58" y="0" type="line"/>
      <point x="58" y="718" type="line"/>
      <point x="181" y="718" type="line"/>
      <point x="181" y="446" type="line"/>
      <point x="411" y="446" type="line"/>
      <point x="411" y="718" type="line"/>
    </contour>
    <contour>
      <point x="534" y="335" type="line"/>
      <point x="534" y="123" type="line"/>
      <point x="632" y="123" type="line" smooth="yes"/>
      <point x="709" y="123"/>
      <point x="740" y="152"/>
      <point x="740" y="226" type="curve" smooth="yes"/>
      <point x="740" y="300"/>
      <point x="710" y="335"/>
      <point x="648" y="335" type="curve" smooth="yes"/>
    </contour>
  </outline>
</glyph>
